<svg viewBox="0 0 344.1767 84.8594" width="5000px" height="1232.7882550264756px" xmlns="http://www.w3.org/2000/svg" xmlns:xlink="http://www.w3.org/1999/xlink" preserveAspectRatio="none"><defs></defs><style>.aD6z1nYkhcolor {fill:#FFFFFF;fill-opacity:1;}.aiZR5Ed1qycolors-0 {fill:#FFFFFF;fill-opacity:1;}.companyName {fill:#FFFFFF;fill-opacity:1;}.shapeStroke-str {stroke:#D9D9D9;stroke-opacity:1;}</style><g opacity="1" transform="rotate(0 98.05309999999999 18.477499999999992)">
<svg width="246.1236" height="48" x="98.05309999999999" y="18.477499999999992" version="1.1" preserveAspectRatio="none" viewBox="3.32 -31.48 201.20000000000002 39.24">
  <g transform="matrix(1 0 0 1 0 0)" class="aD6z1nYkhcolor"><path d="M3.32 0L3.32-28L9.80-28L9.80-5.28L23.84-5.28L23.84 0L3.32 0Z M35.96-21.84Q40.96-21.84 43.64-19.46Q46.32-17.08 46.32-12.28L46.32-12.28L46.32 0L40.48 0L40.48-2.68Q38.72 0.32 33.92 0.32L33.92 0.32Q31.44 0.32 29.62-0.52Q27.80-1.36 26.84-2.84Q25.88-4.32 25.88-6.20L25.88-6.20Q25.88-9.20 28.14-10.92Q30.40-12.64 35.12-12.64L35.12-12.64L40.08-12.64Q40.08-14.68 38.84-15.78Q37.60-16.88 35.12-16.88L35.12-16.88Q33.40-16.88 31.74-16.34Q30.08-15.80 28.92-14.88L28.92-14.88L26.68-19.24Q28.44-20.48 30.90-21.16Q33.36-21.84 35.96-21.84L35.96-21.84ZM35.48-3.88Q37.08-3.88 38.32-4.62Q39.56-5.36 40.08-6.80L40.08-6.80L40.08-9L35.80-9Q31.96-9 31.96-6.48L31.96-6.48Q31.96-5.28 32.90-4.58Q33.84-3.88 35.48-3.88L35.48-3.88Z M64.68-21.84Q67.68-21.84 70.14-20.46Q72.60-19.08 74-16.58Q75.40-14.08 75.40-10.76L75.40-10.76Q75.40-7.44 74-4.94Q72.60-2.44 70.14-1.06Q67.68 0.32 64.68 0.32L64.68 0.32Q60.56 0.32 58.20-2.28L58.20-2.28L58.20 7.76L51.96 7.76L51.96-21.52L57.92-21.52L57.92-19.04Q60.24-21.84 64.68-21.84L64.68-21.84ZM63.60-4.80Q66-4.80 67.54-6.42Q69.08-8.04 69.08-10.76L69.08-10.76Q69.08-13.48 67.54-15.10Q66-16.72 63.60-16.72L63.60-16.72Q61.20-16.72 59.66-15.10Q58.12-13.48 58.12-10.76L58.12-10.76Q58.12-8.04 59.66-6.42Q61.20-4.80 63.60-4.80L63.60-4.80Z M79.56 0L79.56-21.52L85.80-21.52L85.80 0L79.56 0ZM82.68-24.52Q80.96-24.52 79.88-25.52Q78.80-26.52 78.80-28L78.80-28Q78.80-29.48 79.88-30.48Q80.96-31.48 82.68-31.48L82.68-31.48Q84.40-31.48 85.48-30.52Q86.56-29.56 86.56-28.12L86.56-28.12Q86.56-26.56 85.48-25.54Q84.40-24.52 82.68-24.52L82.68-24.52Z M98.00-4.80L109.32-4.80L109.32 0L90.12 0L90.12-3.76L101.08-16.72L90.40-16.72L90.40-21.52L108.96-21.52L108.96-17.76L98.00-4.80Z M134.32-14.56Q136.72-13.80 138.08-12.02Q139.44-10.24 139.44-7.64L139.44-7.64Q139.44-3.96 136.58-1.98Q133.72 0 128.24 0L128.24 0L113.76 0L113.76-28L127.44-28Q132.56-28 135.30-26.04Q138.04-24.08 138.04-20.72L138.04-20.72Q138.04-18.68 137.06-17.08Q136.08-15.48 134.32-14.56L134.32-14.56ZM126.64-23.12L120.20-23.12L120.20-16.52L126.64-16.52Q129.04-16.52 130.28-17.36Q131.52-18.20 131.52-19.84L131.52-19.84Q131.52-21.48 130.28-22.30Q129.04-23.12 126.64-23.12L126.64-23.12ZM127.76-4.88Q130.32-4.88 131.62-5.72Q132.92-6.56 132.92-8.32L132.92-8.32Q132.92-11.80 127.76-11.80L127.76-11.80L120.20-11.80L120.20-4.88L127.76-4.88Z M143.92 0L143.92-29.68L150.16-29.68L150.16 0L143.92 0Z M171.40-21.52L177.64-21.52L177.64 0L171.72 0L171.72-2.56Q170.48-1.16 168.76-0.42Q167.04 0.32 165.04 0.32L165.04 0.32Q160.80 0.32 158.32-2.12Q155.84-4.56 155.84-9.36L155.84-9.36L155.84-21.52L162.08-21.52L162.08-10.28Q162.08-5.08 166.44-5.08L166.44-5.08Q168.68-5.08 170.04-6.54Q171.40-8 171.40-10.88L171.40-10.88L171.40-21.52Z M204.52-10.68Q204.52-10.56 204.40-9L204.40-9L188.12-9Q188.56-7 190.20-5.84Q191.84-4.68 194.28-4.68L194.28-4.68Q195.96-4.68 197.26-5.18Q198.56-5.68 199.68-6.76L199.68-6.76L203-3.16Q199.96 0.32 194.12 0.32L194.12 0.32Q190.48 0.32 187.68-1.10Q184.88-2.52 183.36-5.04Q181.84-7.56 181.84-10.76L181.84-10.76Q181.84-13.92 183.34-16.46Q184.84-19 187.46-20.42Q190.08-21.84 193.32-21.84L193.32-21.84Q196.48-21.84 199.04-20.48Q201.60-19.12 203.06-16.58Q204.52-14.04 204.52-10.68L204.52-10.68ZM193.36-17.12Q191.24-17.12 189.80-15.92Q188.36-14.72 188.04-12.64L188.04-12.64L198.64-12.64Q198.32-14.68 196.88-15.90Q195.44-17.12 193.36-17.12L193.36-17.12Z"></path></g>
</svg>
</g><g opacity="1" transform="rotate(0 84.3661 0)">
<svg width="2.7373" height="84.8594" x="84.3661" y="0" version="1.1" preserveAspectRatio="none" viewBox="0 0 2.7373 84.8594">
  <rect x="0" y="0" width="2.7373" height="84.8594" class="companyName shapeStroke-str" style="stroke-width:0;" rx="0px" ry="0px"></rect>
</svg>
</g><g opacity="1" transform="rotate(0 0 5.930999999999983)">
<svg width="72.8325" height="72.8318" x="0" y="5.930999999999983" version="1.1" preserveAspectRatio="none" viewBox="5.124524116516113 5.250003814697266 89.75082397460938 89.75">
  <g transform="matrix(1 0 0 1 0 0)" class="aiZR5Ed1qycolors-0"><path d="M63.707695,92.8514252c13.1226196-4.2205963,23.6306992-14.3238373,28.3938904-27.1956177H40.7757912L63.707695,92.8514252z  "></path><path d="M22.6376381,85.6559219C30.2177868,91.5070877,39.7061195,95,50.0007324,95  c3.4445724,0,6.7942162-0.4033279,10.0185165-1.141304L37.8699493,67.5910645L22.6376381,85.6559219z"></path><path d="M80.4001541,17.1523438L42.4273911,62.1867981h50.7879639c1.0739136-3.8408699,1.659996-7.883255,1.659996-12.0624008  C94.875351,37.0998116,89.2930984,25.3575363,80.4001541,17.1523438z"></path><path d="M8.583395,32.8589401c-2.2248998,5.3180351-3.4588709,11.1498375-3.4588709,17.2654572  c0,4.1791458,0.5869174,8.2215309,1.6599946,12.0624008h26.5289001L8.583395,32.8589401z"></path><path d="M7.8982167,65.6558075c2.5442662,6.8747711,6.7273469,12.9601364,12.0715542,17.7825546l14.9943371-17.7825546H7.8982167z"></path><path d="M37.8885574,62.1867981l39.8699799-47.2825775c-7.6445236-6.0375538-17.2836151-9.6542168-27.7578049-9.6542168  c-17.2743073,0-32.2897491,9.8170013-39.7886581,24.1586876l27.639267,32.7781067H37.8885574z"></path></g>
</svg>
</g></svg>