<svg xmlns="http://www.w3.org/2000/svg" xmlns:xlink="http://www.w3.org/1999/xlink" width="500" zoomAndPan="magnify" viewBox="0 0 375 374.999991" height="500" preserveAspectRatio="xMidYMid meet" version="1.0"><defs><g/><clipPath id="4f89e29a2b"><path d="M 106.011719 123.117188 L 268.761719 123.117188 L 268.761719 184.617188 L 106.011719 184.617188 Z M 106.011719 123.117188 " clip-rule="nonzero"/></clipPath><clipPath id="f053c797f8"><path d="M 222.332031 157.957031 L 253.082031 157.957031 L 253.082031 183.457031 L 222.332031 183.457031 Z M 222.332031 157.957031 " clip-rule="nonzero"/></clipPath><clipPath id="43d2bd933f"><rect x="0" width="224" y="0" height="37"/></clipPath><clipPath id="e0d8f3861c"><path d="M 0.28125 3 L 9 3 L 9 13 L 0.28125 13 Z M 0.28125 3 " clip-rule="nonzero"/></clipPath><clipPath id="1c4e294923"><rect x="0" width="201" y="0" height="17"/></clipPath></defs><g clip-path="url(#4f89e29a2b)"><path fill="#b48e2e" d="M 136.148438 128.367188 L 109.699219 154.808594 L 109.699219 184.808594 L 106.011719 184.808594 L 106.011719 153.28125 L 115.890625 143.398438 L 115.890625 130.316406 L 121.480469 130.316406 L 121.480469 137.8125 L 136.148438 123.148438 L 168.980469 155.988281 L 163.761719 155.988281 Z M 114.867188 183.085938 L 114.867188 156.953125 L 136.148438 135.675781 L 156.457031 155.988281 L 158.898438 155.988281 L 136.148438 133.238281 L 113.144531 156.238281 L 113.144531 184.8125 L 268.984375 184.8125 L 268.984375 183.089844 L 114.867188 183.089844 Z M 114.867188 183.085938 " fill-opacity="1" fill-rule="nonzero"/></g><g clip-path="url(#f053c797f8)"><path fill="#282828" d="M 240.234375 181.640625 C 240.234375 181.90625 240.230469 182.171875 240.230469 182.441406 C 240.226562 182.773438 240.183594 182.820312 239.847656 182.847656 C 239.824219 182.847656 239.796875 182.847656 239.773438 182.847656 C 239.605469 182.847656 239.4375 182.84375 239.269531 182.84375 C 237.433594 182.84375 235.597656 182.84375 233.761719 182.84375 C 233.484375 182.84375 233.398438 182.753906 233.398438 182.472656 C 233.398438 182.203125 233.398438 181.9375 233.398438 181.667969 C 233.402344 181.363281 233.488281 181.277344 233.789062 181.277344 C 234.1875 181.28125 234.585938 181.269531 234.984375 181.28125 C 235.140625 181.285156 235.15625 181.226562 235.164062 181.09375 C 235.175781 180.9375 235.089844 180.957031 234.992188 180.957031 C 233.9375 180.957031 232.878906 180.949219 231.820312 180.953125 C 231.601562 180.957031 231.453125 180.890625 231.347656 180.699219 C 231.257812 180.527344 231.140625 180.375 231.042969 180.207031 C 230.996094 180.128906 230.945312 180.097656 230.851562 180.097656 C 230.15625 180.105469 229.457031 180.105469 228.761719 180.101562 C 228.640625 180.101562 228.589844 180.132812 228.613281 180.253906 C 228.632812 180.355469 228.542969 180.507812 228.773438 180.496094 C 229.132812 180.480469 229.492188 180.492188 229.855469 180.496094 C 230.125 180.496094 230.199219 180.5625 230.242188 180.820312 C 230.320312 181.308594 230.320312 181.308594 230.804688 181.308594 C 231.300781 181.308594 231.796875 181.308594 232.296875 181.3125 C 232.609375 181.3125 232.710938 181.410156 232.722656 181.722656 C 232.730469 181.976562 232.738281 182.230469 232.75 182.488281 C 232.753906 182.601562 232.753906 182.714844 232.644531 182.785156 C 232.558594 182.84375 232.636719 182.882812 232.660156 182.921875 C 232.765625 183.09375 232.878906 183.261719 233.007812 183.453125 C 232.714844 183.453125 232.453125 183.453125 232.1875 183.453125 C 232.097656 183.453125 232.066406 183.390625 232.035156 183.320312 C 231.953125 183.167969 231.871094 183.011719 231.789062 182.859375 C 231.773438 182.867188 231.761719 182.875 231.75 182.882812 C 231.828125 183.050781 231.910156 183.222656 231.992188 183.390625 C 231.976562 183.46875 231.917969 183.46875 231.851562 183.472656 C 231.730469 183.472656 231.609375 183.433594 231.484375 183.46875 C 231.222656 183.542969 231.171875 183.34375 231.101562 183.171875 C 231.058594 183.054688 231.023438 182.933594 230.917969 182.851562 C 230.9375 182.96875 230.976562 183.070312 231.039062 183.167969 C 231.042969 183.1875 231.046875 183.207031 231.050781 183.222656 C 231.0625 183.296875 231.15625 183.410156 231.089844 183.433594 C 230.984375 183.46875 230.839844 183.519531 230.734375 183.394531 C 230.664062 183.214844 230.59375 183.03125 230.523438 182.851562 C 230.503906 182.859375 230.488281 182.867188 230.46875 182.875 C 230.535156 183.050781 230.601562 183.226562 230.667969 183.40625 C 230.660156 183.433594 230.660156 183.464844 230.617188 183.464844 C 230.414062 183.460938 230.210938 183.457031 230.007812 183.464844 C 229.945312 183.464844 229.921875 183.4375 229.902344 183.386719 C 229.867188 183.296875 229.824219 183.207031 229.78125 183.117188 C 229.773438 183.089844 229.761719 183.066406 229.753906 183.039062 C 229.734375 183.003906 229.71875 182.96875 229.703125 182.933594 C 229.691406 182.90625 229.699219 182.851562 229.652344 182.875 C 229.621094 182.894531 229.65625 182.933594 229.667969 182.964844 C 229.683594 183 229.695312 183.039062 229.710938 183.074219 C 229.71875 183.101562 229.726562 183.125 229.738281 183.152344 C 229.765625 183.25 229.796875 183.351562 229.828125 183.460938 C 229.617188 183.460938 229.417969 183.453125 229.21875 183.464844 C 229.113281 183.46875 229.066406 183.433594 229.035156 183.335938 C 229.003906 183.238281 228.996094 183.121094 228.882812 183.035156 C 228.871094 183.160156 228.933594 183.242188 228.960938 183.328125 C 228.996094 183.445312 228.964844 183.472656 228.859375 183.460938 C 228.785156 183.453125 228.707031 183.484375 228.640625 183.433594 C 228.582031 183.25 228.519531 183.0625 228.460938 182.878906 C 228.472656 182.996094 228.511719 183.105469 228.539062 183.214844 C 228.558594 183.296875 228.632812 183.375 228.5625 183.46875 C 228.429688 183.429688 228.25 183.527344 228.160156 183.425781 C 228.078125 183.328125 228.078125 183.160156 228.039062 183.023438 C 228.023438 182.976562 228.007812 182.933594 227.992188 182.886719 C 227.980469 182.878906 227.957031 182.863281 227.953125 182.867188 C 227.9375 182.886719 227.941406 182.90625 227.957031 182.925781 C 227.976562 183.058594 227.996094 183.195312 228.011719 183.328125 C 228.015625 183.359375 228.03125 183.410156 228.019531 183.417969 C 227.894531 183.515625 227.75 183.4375 227.617188 183.460938 C 227.546875 183.472656 227.519531 183.441406 227.515625 183.367188 C 227.511719 183.207031 227.5 183.046875 227.492188 182.886719 C 227.476562 182.886719 227.457031 182.890625 227.441406 182.890625 C 227.441406 183.039062 227.433594 183.1875 227.445312 183.339844 C 227.453125 183.5 227.347656 183.457031 227.257812 183.460938 C 227.160156 183.46875 227.105469 183.445312 227.125 183.332031 C 227.136719 183.253906 227.136719 183.175781 227.140625 183.058594 C 227.046875 183.148438 227.050781 183.234375 227.046875 183.304688 C 227.039062 183.4375 226.980469 183.460938 226.859375 183.460938 C 226.511719 183.457031 226.511719 183.460938 226.585938 183.132812 C 226.59375 183.089844 226.601562 183.046875 226.609375 183.003906 C 226.609375 183 226.601562 182.992188 226.570312 182.960938 C 226.527344 183.097656 226.476562 183.214844 226.449219 183.335938 C 226.425781 183.4375 226.378906 183.464844 226.28125 183.460938 C 226.089844 183.453125 225.898438 183.457031 225.695312 183.457031 C 225.722656 183.246094 225.820312 183.066406 225.871094 182.867188 C 225.796875 182.851562 225.78125 182.890625 225.769531 182.933594 C 225.738281 183.019531 225.707031 183.109375 225.675781 183.195312 C 225.574219 183.484375 225.574219 183.484375 225.253906 183.433594 C 225.273438 183.363281 225.292969 183.292969 225.3125 183.226562 C 225.316406 183.210938 225.320312 183.195312 225.324219 183.179688 C 225.375 183.078125 225.429688 182.980469 225.410156 182.859375 C 225.371094 182.949219 225.332031 183.042969 225.292969 183.132812 C 225.285156 183.152344 225.277344 183.171875 225.269531 183.191406 C 225.210938 183.417969 225.0625 183.496094 224.835938 183.457031 C 224.742188 183.441406 224.640625 183.449219 224.542969 183.460938 C 224.429688 183.472656 224.421875 183.421875 224.453125 183.339844 C 224.460938 183.304688 224.5 183.265625 224.464844 183.242188 C 224.414062 183.214844 224.417969 183.273438 224.40625 183.300781 C 224.339844 183.441406 224.175781 183.515625 224.050781 183.457031 C 223.957031 183.414062 224.058594 183.351562 224.042969 183.300781 C 224.066406 183.238281 224.09375 183.175781 224.117188 183.113281 C 224.125 183.089844 224.136719 183.0625 224.144531 183.039062 C 224.15625 183.011719 224.164062 182.984375 224.175781 182.957031 C 224.199219 182.929688 224.226562 182.890625 224.1875 182.871094 C 224.164062 182.855469 224.144531 182.898438 224.136719 182.929688 C 224.125 182.953125 224.117188 182.976562 224.105469 183.003906 C 224.09375 183.03125 224.085938 183.058594 224.074219 183.082031 C 224.046875 183.144531 224.019531 183.203125 223.996094 183.265625 C 223.953125 183.429688 223.859375 183.488281 223.6875 183.464844 C 223.539062 183.445312 223.390625 183.453125 223.242188 183.460938 C 223.152344 183.464844 223.152344 183.425781 223.175781 183.363281 C 223.246094 183.203125 223.316406 183.042969 223.386719 182.878906 C 223.375 182.875 223.363281 182.871094 223.351562 182.863281 C 223.277344 183.027344 223.203125 183.191406 223.125 183.359375 C 223.089844 183.425781 223.046875 183.484375 222.953125 183.464844 C 222.78125 183.429688 222.609375 183.464844 222.4375 183.464844 C 222.324219 183.464844 222.308594 183.429688 222.367188 183.335938 C 222.425781 183.242188 222.472656 183.140625 222.527344 183.042969 C 222.601562 182.925781 222.695312 182.816406 222.539062 182.6875 C 222.511719 182.664062 222.515625 182.59375 222.515625 182.542969 C 222.519531 182.257812 222.523438 181.972656 222.527344 181.6875 C 222.535156 181.425781 222.648438 181.3125 222.910156 181.308594 C 223.582031 181.308594 224.253906 181.304688 224.925781 181.3125 C 225.050781 181.316406 225.101562 181.273438 225.125 181.160156 C 225.152344 181.019531 225.199219 180.886719 225.230469 180.746094 C 225.269531 180.574219 225.375 180.492188 225.550781 180.496094 C 225.609375 180.5 225.675781 180.492188 225.734375 180.5 C 225.867188 180.511719 225.921875 180.484375 225.929688 180.324219 C 225.933594 180.132812 225.875 180.089844 225.691406 180.101562 C 225.375 180.117188 225.058594 180.105469 224.742188 180.105469 C 224.328125 180.101562 224.089844 179.871094 224.089844 179.460938 C 224.089844 178.769531 224.09375 178.078125 224.09375 177.390625 C 224.09375 177.246094 224.109375 177.113281 224.230469 177.019531 C 224.261719 176.992188 224.265625 176.957031 224.269531 176.921875 C 224.359375 176.359375 224.4375 175.792969 224.535156 175.234375 C 224.671875 174.476562 224.820312 173.722656 224.964844 172.96875 C 225.03125 172.632812 225.089844 172.296875 225.167969 171.964844 C 225.378906 171.0625 226.105469 170.429688 227.023438 170.320312 C 229.242188 170.058594 231.457031 169.796875 233.675781 169.53125 C 234.089844 169.484375 234.503906 169.425781 234.917969 169.382812 C 235.011719 169.371094 235.054688 169.332031 235.09375 169.246094 C 235.230469 168.929688 235.375 168.613281 235.511719 168.292969 C 235.585938 168.117188 235.699219 168.015625 235.898438 167.996094 C 236.273438 167.960938 236.648438 167.898438 237.027344 167.851562 C 237.132812 167.839844 237.1875 167.824219 237.1875 167.691406 C 237.179688 167.152344 237.191406 167.148438 237.722656 167.148438 C 238.53125 167.144531 239.339844 167.148438 240.148438 167.148438 C 240.433594 167.148438 240.523438 167.238281 240.527344 167.527344 C 240.53125 167.84375 240.53125 167.847656 240.855469 167.847656 C 241.25 167.851562 241.640625 167.855469 242.03125 167.851562 C 242.222656 167.847656 242.355469 167.921875 242.4375 168.089844 C 242.449219 168.117188 242.46875 168.144531 242.480469 168.171875 C 242.582031 168.441406 242.695312 168.605469 243.0625 168.523438 C 243.382812 168.453125 243.722656 168.570312 243.90625 168.90625 C 243.945312 168.980469 243.980469 168.945312 244.023438 168.929688 C 244.320312 168.804688 244.636719 168.730469 244.957031 168.6875 C 245.027344 168.679688 245.066406 168.652344 245.097656 168.589844 C 246.464844 165.785156 247.835938 162.976562 249.207031 160.171875 C 249.210938 160.160156 249.207031 160.148438 249.207031 160.121094 C 249.015625 160.167969 248.832031 160.214844 248.648438 160.261719 C 248.269531 160.359375 247.925781 160.164062 247.839844 159.804688 C 247.742188 159.410156 247.957031 159.058594 248.347656 158.96875 C 249.347656 158.742188 250.347656 158.523438 251.34375 158.28125 C 251.746094 158.183594 252.132812 158.027344 252.546875 157.96875 C 253.164062 157.882812 253.515625 158.28125 253.417969 158.894531 C 253.367188 159.191406 253.335938 159.484375 253.226562 159.765625 C 252.890625 160.621094 252.289062 161.203125 251.445312 161.542969 C 251.105469 161.679688 250.757812 161.796875 250.402344 161.894531 C 250.324219 161.914062 250.261719 161.9375 250.21875 162.027344 C 249.0625 164.40625 247.898438 166.78125 246.734375 169.15625 C 246.671875 169.285156 246.671875 169.375 246.746094 169.503906 C 246.96875 169.917969 247.054688 170.371094 247.078125 170.832031 C 247.136719 171.820312 247.015625 172.78125 246.605469 173.695312 C 246.453125 174.035156 246.257812 174.355469 245.964844 174.601562 C 245.800781 174.742188 245.621094 174.851562 245.410156 174.898438 C 245.292969 174.925781 245.3125 174.996094 245.308594 175.074219 C 245.304688 175.179688 245.375 175.171875 245.445312 175.179688 C 245.511719 175.1875 245.582031 175.199219 245.648438 175.210938 C 246.144531 175.296875 246.34375 175.554688 246.296875 176.054688 C 246.289062 176.179688 246.269531 176.304688 246.246094 176.425781 C 246.171875 176.898438 245.894531 177.214844 245.453125 177.378906 C 245.328125 177.421875 245.300781 177.484375 245.304688 177.605469 C 245.308594 178.296875 245.304688 178.988281 245.308594 179.675781 C 245.308594 180.132812 245.160156 180.519531 244.789062 180.800781 C 244.683594 180.878906 244.742188 180.972656 244.75 181.054688 C 244.757812 181.15625 244.84375 181.089844 244.898438 181.097656 C 244.933594 181.105469 244.972656 181.097656 245.007812 181.097656 C 245.460938 181.101562 245.507812 181.136719 245.644531 181.5625 C 245.65625 181.605469 245.652344 181.664062 245.71875 181.683594 C 245.753906 181.570312 245.734375 181.453125 245.734375 181.335938 C 245.742188 181.089844 245.832031 180.992188 246.070312 180.992188 C 246.519531 180.988281 246.96875 180.992188 247.417969 180.996094 C 247.628906 180.996094 247.726562 181.101562 247.734375 181.320312 C 247.734375 181.402344 247.734375 181.480469 247.734375 181.5625 C 247.734375 181.722656 247.6875 181.902344 247.96875 181.871094 C 248.089844 181.859375 248.167969 181.988281 248.171875 182.121094 C 248.175781 182.363281 248.179688 182.605469 248.171875 182.847656 C 248.167969 183.039062 248.054688 183.132812 247.835938 183.132812 C 246.976562 183.132812 246.117188 183.128906 245.261719 183.125 C 245 183.125 244.738281 183.117188 244.476562 183.128906 C 244.28125 183.136719 244.152344 183.0625 244.085938 182.863281 C 243.785156 183.140625 243.449219 183.339844 243.054688 183.4375 C 241.835938 183.738281 240.609375 182.988281 240.328125 181.765625 C 240.316406 181.722656 240.304688 181.679688 240.292969 181.640625 C 240.277344 181.441406 240.253906 181.242188 240.292969 181.046875 C 240.304688 180.96875 240.273438 180.949219 240.203125 180.949219 C 239.867188 180.953125 239.53125 180.957031 239.195312 180.953125 C 239.03125 180.953125 239.109375 181.070312 239.097656 181.140625 C 239.085938 181.214844 239.082031 181.285156 239.203125 181.277344 C 239.414062 181.269531 239.625 181.277344 239.835938 181.277344 C 240.136719 181.277344 240.203125 181.339844 240.234375 181.640625 Z M 224.503906 183.175781 C 224.546875 183.074219 224.59375 182.972656 224.640625 182.867188 C 224.519531 182.925781 224.507812 183.035156 224.472656 183.132812 C 224.460938 183.160156 224.429688 183.1875 224.464844 183.210938 C 224.488281 183.226562 224.5 183.203125 224.503906 183.175781 Z M 233.699219 176.933594 C 233.699219 176.933594 233.699219 176.933594 233.699219 176.929688 C 235.921875 176.929688 238.144531 176.929688 240.367188 176.933594 C 240.496094 176.933594 240.582031 176.894531 240.667969 176.796875 C 241.289062 176.101562 241.917969 175.414062 242.539062 174.714844 C 242.660156 174.574219 242.796875 174.5 242.980469 174.472656 C 243.535156 174.390625 244.085938 174.296875 244.640625 174.214844 C 244.738281 174.199219 244.773438 174.171875 244.773438 174.066406 C 244.769531 173.058594 244.777344 172.050781 244.769531 171.042969 C 244.761719 170.5 244.417969 170.085938 243.894531 169.945312 C 243.730469 169.902344 243.5625 169.890625 243.394531 169.890625 C 242.671875 169.890625 241.949219 169.898438 241.226562 169.890625 C 241.101562 169.886719 241.027344 169.933594 240.949219 170.027344 C 240.351562 170.761719 239.75 171.488281 239.152344 172.222656 C 239.082031 172.308594 239.011719 172.378906 238.878906 172.390625 C 236.949219 172.515625 235.019531 172.652344 233.089844 172.785156 C 231.28125 172.90625 229.476562 173.019531 227.667969 173.136719 C 227.554688 173.144531 227.503906 173.171875 227.480469 173.300781 C 227.28125 174.457031 227.078125 175.613281 226.867188 176.769531 C 226.84375 176.902344 226.851562 176.9375 226.996094 176.9375 C 229.230469 176.933594 231.464844 176.933594 233.699219 176.933594 Z M 244.757812 174.742188 C 244.199219 174.832031 243.644531 174.925781 243.085938 175.015625 C 243.011719 175.027344 242.960938 175.058594 242.914062 175.113281 C 242.308594 175.789062 241.695312 176.457031 241.101562 177.144531 C 240.902344 177.378906 240.691406 177.476562 240.382812 177.476562 C 235.859375 177.46875 231.335938 177.472656 226.8125 177.46875 C 226.660156 177.46875 226.640625 177.519531 226.640625 177.648438 C 226.648438 178.226562 226.652344 178.804688 226.640625 179.382812 C 226.640625 179.539062 226.695312 179.558594 226.832031 179.558594 C 228.839844 179.558594 230.851562 179.5625 232.859375 179.5625 C 233 179.5625 233.113281 179.601562 233.210938 179.703125 C 233.417969 179.910156 233.628906 180.113281 233.835938 180.320312 C 233.902344 180.386719 233.96875 180.410156 234.0625 180.410156 C 236.003906 180.40625 237.945312 180.402344 239.886719 180.414062 C 240.105469 180.414062 240.203125 180.351562 240.304688 180.160156 C 240.746094 179.324219 241.433594 178.816406 242.386719 178.769531 C 243.363281 178.71875 244.097656 179.15625 244.605469 179.984375 C 244.625 180.019531 244.628906 180.074219 244.691406 180.066406 C 244.785156 179.832031 244.839844 175.460938 244.757812 174.742188 Z M 227.578125 172.746094 C 229.003906 172.65625 230.40625 172.570312 231.808594 172.476562 C 234.109375 172.324219 236.402344 172.160156 238.699219 172.007812 C 238.796875 172 238.855469 171.96875 238.917969 171.894531 C 239.261719 171.460938 239.613281 171.035156 239.964844 170.605469 C 240.152344 170.375 240.339844 170.148438 240.550781 169.890625 C 240.460938 169.890625 240.410156 169.890625 240.355469 169.890625 C 238.664062 169.890625 236.96875 169.886719 235.277344 169.882812 C 235.226562 169.882812 235.175781 169.886719 235.128906 169.890625 C 233.25 170.125 231.375 170.363281 229.5 170.582031 C 228.691406 170.675781 228.117188 171.0625 227.789062 171.808594 C 227.660156 172.101562 227.632812 172.417969 227.578125 172.746094 Z M 245.296875 170.8125 C 245.347656 170.71875 245.378906 170.660156 245.410156 170.601562 C 245.914062 169.574219 246.421875 168.550781 246.921875 167.523438 C 248.234375 164.832031 249.546875 162.144531 250.847656 159.445312 C 250.960938 159.207031 251.085938 159.035156 251.359375 159.011719 C 251.414062 159.007812 251.492188 159.019531 251.472656 158.914062 C 251.449219 158.800781 251.386719 158.835938 251.320312 158.851562 C 250.386719 159.066406 249.453125 159.28125 248.523438 159.492188 C 248.445312 159.511719 248.328125 159.503906 248.359375 159.640625 C 248.390625 159.777344 248.492188 159.722656 248.570312 159.703125 C 248.933594 159.617188 249.296875 159.53125 249.65625 159.4375 C 249.777344 159.40625 249.867188 159.441406 249.941406 159.523438 C 250.019531 159.609375 250.03125 159.710938 249.988281 159.820312 C 249.972656 159.859375 249.953125 159.898438 249.933594 159.9375 C 248.953125 161.949219 247.972656 163.957031 246.988281 165.964844 C 246.347656 167.28125 245.699219 168.597656 245.054688 169.914062 C 245.023438 169.972656 244.964844 170.027344 245.027344 170.117188 C 245.160156 170.3125 245.230469 170.539062 245.296875 170.8125 Z M 242.539062 179.539062 C 241.597656 179.53125 240.835938 180.296875 240.828125 181.265625 C 240.816406 182.1875 241.5625 182.945312 242.484375 182.953125 C 243.433594 182.964844 244.195312 182.203125 244.199219 181.238281 C 244.203125 180.289062 243.476562 179.546875 242.539062 179.539062 Z M 239.746094 169.34375 C 239.746094 169.347656 239.746094 169.347656 239.746094 169.347656 C 240.597656 169.347656 241.449219 169.34375 242.300781 169.347656 C 242.425781 169.351562 242.460938 169.332031 242.394531 169.210938 C 242.273438 168.980469 242.160156 168.746094 242.046875 168.511719 C 242.003906 168.421875 241.953125 168.386719 241.847656 168.386719 C 240.386719 168.386719 238.925781 168.382812 237.464844 168.378906 C 237.367188 168.378906 237.324219 168.40625 237.300781 168.503906 C 237.246094 168.734375 237.1875 168.960938 237.109375 169.183594 C 237.066406 169.320312 237.085938 169.347656 237.230469 169.347656 C 238.066406 169.34375 238.90625 169.34375 239.746094 169.34375 Z M 227.613281 182.304688 C 229.078125 182.304688 230.539062 182.304688 232 182.304688 C 232.03125 182.304688 232.0625 182.300781 232.09375 182.304688 C 232.167969 182.3125 232.195312 182.28125 232.191406 182.207031 C 232.183594 182.144531 232.179688 182.082031 232.1875 182.023438 C 232.207031 181.886719 232.152344 181.859375 232.023438 181.859375 C 229.117188 181.863281 226.214844 181.863281 223.308594 181.863281 C 223.265625 181.863281 223.21875 181.867188 223.175781 181.863281 C 223.09375 181.855469 223.066406 181.890625 223.074219 181.96875 C 223.078125 182.023438 223.082031 182.082031 223.070312 182.136719 C 223.035156 182.28125 223.089844 182.308594 223.230469 182.308594 C 224.691406 182.304688 226.152344 182.304688 227.613281 182.304688 Z M 225.636719 176.933594 C 225.71875 176.933594 225.796875 176.933594 225.878906 176.933594 C 226.058594 176.933594 226.285156 176.996094 226.40625 176.910156 C 226.539062 176.816406 226.5 176.566406 226.53125 176.386719 C 226.71875 175.367188 226.894531 174.347656 227.082031 173.324219 C 227.101562 173.214844 227.09375 173.175781 226.960938 173.1875 C 226.503906 173.226562 226.042969 173.257812 225.585938 173.285156 C 225.496094 173.289062 225.453125 173.316406 225.433594 173.40625 C 225.386719 173.675781 225.335938 173.945312 225.269531 174.210938 C 225.242188 174.332031 225.292969 174.328125 225.378906 174.324219 C 225.582031 174.320312 225.789062 174.316406 225.992188 174.316406 C 226.273438 174.3125 226.398438 174.4375 226.359375 174.71875 C 226.304688 175.167969 226.234375 175.617188 226.167969 176.066406 C 226.140625 176.238281 226.035156 176.328125 225.859375 176.332031 C 225.695312 176.335938 225.527344 176.335938 225.359375 176.335938 C 224.886719 176.34375 224.886719 176.34375 224.839844 176.8125 C 224.839844 176.816406 224.839844 176.824219 224.835938 176.832031 C 224.816406 176.910156 224.84375 176.9375 224.929688 176.9375 C 225.164062 176.929688 225.398438 176.933594 225.636719 176.933594 Z M 226.355469 178.519531 C 226.355469 178.519531 226.351562 178.519531 226.351562 178.519531 C 226.351562 178.222656 226.34375 177.921875 226.351562 177.625 C 226.355469 177.503906 226.320312 177.46875 226.195312 177.472656 C 225.722656 177.484375 225.25 177.488281 224.777344 177.484375 C 224.648438 177.480469 224.628906 177.527344 224.628906 177.640625 C 224.636719 178.230469 224.636719 178.820312 224.632812 179.414062 C 224.632812 179.527344 224.667969 179.5625 224.78125 179.5625 C 225.265625 179.554688 225.753906 179.554688 226.238281 179.558594 C 226.335938 179.5625 226.363281 179.535156 226.359375 179.433594 C 226.351562 179.128906 226.355469 178.824219 226.355469 178.519531 Z M 228.039062 170.769531 C 227.59375 170.824219 227.140625 170.804688 226.71875 170.957031 C 226.191406 171.148438 225.839844 171.515625 225.703125 172.0625 C 225.640625 172.296875 225.605469 172.539062 225.554688 172.773438 C 225.535156 172.859375 225.539062 172.898438 225.648438 172.886719 C 226.113281 172.847656 226.578125 172.816406 227.042969 172.789062 C 227.144531 172.78125 227.175781 172.75 227.191406 172.648438 C 227.242188 172.34375 227.277344 172.03125 227.390625 171.738281 C 227.527344 171.367188 227.757812 171.054688 228.039062 170.769531 Z M 236.824219 181.824219 C 236.488281 181.824219 236.152344 181.824219 235.816406 181.824219 C 235.246094 181.824219 234.671875 181.828125 234.101562 181.820312 C 233.980469 181.820312 233.925781 181.847656 233.949219 181.972656 C 233.953125 182.015625 233.957031 182.0625 233.949219 182.105469 C 233.921875 182.261719 233.96875 182.308594 234.144531 182.308594 C 235.882812 182.300781 237.625 182.304688 239.363281 182.304688 C 239.691406 182.304688 239.679688 182.308594 239.691406 181.988281 C 239.695312 181.835938 239.636719 181.820312 239.507812 181.820312 C 238.613281 181.828125 237.71875 181.824219 236.824219 181.824219 Z M 246.347656 169.941406 C 246.113281 170.417969 245.902344 170.851562 245.683594 171.285156 C 245.636719 171.382812 245.695312 171.414062 245.746094 171.464844 C 246.273438 172.003906 246.105469 172.890625 245.414062 173.1875 C 245.328125 173.222656 245.300781 173.257812 245.304688 173.347656 C 245.308594 173.632812 245.3125 173.921875 245.308594 174.207031 C 245.304688 174.351562 245.355469 174.34375 245.453125 174.285156 C 245.734375 174.121094 245.902344 173.859375 246.042969 173.582031 C 246.324219 173.03125 246.464844 172.4375 246.523438 171.828125 C 246.582031 171.207031 246.5625 170.589844 246.347656 169.941406 Z M 250.597656 161.242188 C 251.628906 160.964844 252.4375 160.464844 252.773438 159.390625 C 252.730469 159.402344 252.703125 159.410156 252.671875 159.414062 C 252.40625 159.457031 252.148438 159.578125 251.871094 159.449219 C 251.777344 159.402344 251.414062 159.5625 251.375 159.636719 C 251.117188 160.164062 250.863281 160.695312 250.597656 161.242188 Z M 227.714844 181.046875 C 227.085938 181.046875 226.457031 181.050781 225.828125 181.042969 C 225.660156 181.039062 225.667969 181.160156 225.660156 181.25 C 225.65625 181.359375 225.761719 181.304688 225.816406 181.304688 C 226.890625 181.308594 227.96875 181.308594 229.042969 181.3125 C 229.25 181.3125 229.453125 181.308594 229.660156 181.3125 C 229.753906 181.316406 229.765625 181.289062 229.753906 181.195312 C 229.734375 181.070312 229.679688 181.042969 229.558594 181.042969 C 228.945312 181.050781 228.328125 181.046875 227.714844 181.046875 Z M 237.117188 181.277344 C 237.117188 181.277344 237.117188 181.273438 237.117188 181.273438 C 237.546875 181.273438 237.976562 181.265625 238.402344 181.277344 C 238.542969 181.28125 238.546875 181.222656 238.550781 181.117188 C 238.550781 181.011719 238.546875 180.949219 238.40625 180.953125 C 237.554688 180.957031 236.703125 180.953125 235.851562 180.949219 C 235.730469 180.949219 235.691406 180.976562 235.699219 181.101562 C 235.710938 181.207031 235.695312 181.285156 235.851562 181.28125 C 236.273438 181.269531 236.695312 181.277344 237.117188 181.277344 Z M 236.914062 168.414062 C 236.617188 168.453125 236.347656 168.492188 236.078125 168.523438 C 236.007812 168.53125 235.984375 168.570312 235.960938 168.625 C 235.871094 168.828125 235.78125 169.035156 235.6875 169.238281 C 235.652344 169.3125 235.652344 169.347656 235.753906 169.347656 C 236.019531 169.339844 236.289062 169.34375 236.554688 169.347656 C 236.632812 169.347656 236.664062 169.324219 236.683594 169.25 C 236.75 168.980469 236.828125 168.710938 236.914062 168.414062 Z M 227.261719 180.488281 C 227.484375 180.488281 227.710938 180.476562 227.933594 180.488281 C 228.117188 180.5 228.046875 180.375 228.050781 180.292969 C 228.054688 180.207031 228.105469 180.09375 227.925781 180.097656 C 227.53125 180.109375 227.132812 180.101562 226.734375 180.101562 C 226.476562 180.101562 226.484375 180.105469 226.476562 180.355469 C 226.472656 180.480469 226.523438 180.492188 226.628906 180.492188 C 226.839844 180.484375 227.050781 180.488281 227.261719 180.488281 Z M 246.128906 182.574219 C 246.128906 182.578125 246.128906 182.578125 246.128906 182.578125 C 246.582031 182.578125 247.035156 182.578125 247.488281 182.578125 C 247.550781 182.578125 247.628906 182.609375 247.628906 182.492188 C 247.625 182.386719 247.554688 182.410156 247.5 182.410156 C 246.585938 182.410156 245.675781 182.410156 244.761719 182.414062 C 244.710938 182.414062 244.632812 182.378906 244.628906 182.488281 C 244.628906 182.609375 244.710938 182.574219 244.769531 182.574219 C 245.222656 182.574219 245.675781 182.574219 246.128906 182.574219 Z M 238.839844 167.84375 C 239.175781 167.84375 239.511719 167.84375 239.847656 167.839844 C 239.90625 167.839844 239.980469 167.871094 239.976562 167.765625 C 239.972656 167.671875 239.90625 167.699219 239.855469 167.699219 C 239.195312 167.695312 238.535156 167.691406 237.878906 167.691406 C 237.824219 167.691406 237.746094 167.660156 237.746094 167.765625 C 237.742188 167.886719 237.832031 167.84375 237.890625 167.84375 C 238.207031 167.847656 238.523438 167.84375 238.839844 167.84375 Z M 245.304688 176.828125 C 245.652344 176.691406 245.714844 176.410156 245.742188 176.117188 C 245.773438 175.804688 245.742188 175.777344 245.4375 175.746094 C 245.328125 175.734375 245.300781 175.761719 245.300781 175.871094 C 245.308594 176.183594 245.304688 176.492188 245.304688 176.828125 Z M 231.601562 180.101562 C 231.714844 180.222656 231.726562 180.394531 231.859375 180.402344 C 232.277344 180.417969 232.695312 180.40625 233.164062 180.40625 C 232.992188 180.300781 232.941406 180.113281 232.773438 180.105469 C 232.398438 180.089844 232.023438 180.101562 231.601562 180.101562 Z M 246.71875 181.859375 C 246.839844 181.859375 246.957031 181.855469 247.074219 181.863281 C 247.179688 181.871094 247.183594 181.804688 247.171875 181.734375 C 247.15625 181.667969 247.242188 181.542969 247.089844 181.539062 C 246.84375 181.53125 246.59375 181.535156 246.347656 181.535156 C 246.304688 181.535156 246.285156 181.546875 246.273438 181.59375 C 246.230469 181.792969 246.28125 181.859375 246.480469 181.859375 C 246.558594 181.859375 246.640625 181.859375 246.71875 181.859375 Z M 252.890625 158.671875 C 252.886719 158.535156 252.839844 158.480469 252.714844 158.507812 C 252.527344 158.546875 252.335938 158.578125 252.148438 158.609375 C 252.0625 158.625 251.960938 158.632812 251.992188 158.761719 C 252.019531 158.878906 252.070312 158.976562 252.222656 158.9375 C 252.402344 158.890625 252.582031 158.851562 252.761719 158.804688 C 252.839844 158.785156 252.898438 158.746094 252.890625 158.671875 Z M 225.679688 175.53125 C 225.421875 175.53125 225.175781 175.53125 224.929688 175.53125 C 224.777344 175.527344 224.839844 175.648438 224.824219 175.71875 C 224.796875 175.828125 224.886719 175.78125 224.929688 175.78125 C 225.089844 175.78125 225.253906 175.761719 225.410156 175.777344 C 225.605469 175.796875 225.703125 175.746094 225.679688 175.53125 Z M 225.375 174.878906 C 225.375 174.878906 225.375 174.882812 225.375 174.882812 C 225.257812 174.882812 225.140625 174.882812 225.023438 174.882812 C 224.882812 174.882812 224.929688 175.003906 224.914062 175.074219 C 224.890625 175.171875 224.96875 175.144531 225.019531 175.144531 C 225.214844 175.144531 225.414062 175.128906 225.613281 175.140625 C 225.769531 175.152344 225.765625 175.058594 225.769531 174.957031 C 225.78125 174.808594 225.671875 174.890625 225.617188 174.882812 C 225.539062 174.867188 225.457031 174.878906 225.375 174.878906 Z M 243.292969 169.324219 C 243.308594 169.316406 243.4375 169.417969 243.429688 169.25 C 243.421875 169.066406 243.285156 169.054688 243.152344 169.054688 C 243.078125 169.054688 242.953125 169.050781 242.964844 169.140625 C 242.984375 169.273438 243.066406 169.398438 243.292969 169.324219 Z M 245.421875 171.910156 C 245.28125 172.109375 245.269531 172.199219 245.324219 172.582031 C 245.539062 172.402344 245.578125 172.175781 245.421875 171.910156 Z M 244.222656 169.472656 C 244.347656 169.507812 244.457031 169.636719 244.550781 169.621094 C 244.652344 169.605469 244.671875 169.429688 244.730469 169.324219 C 244.730469 169.320312 244.726562 169.316406 244.722656 169.296875 C 244.550781 169.332031 244.386719 169.382812 244.222656 169.472656 Z M 244.960938 181.804688 C 244.957031 181.828125 244.980469 181.875 245.066406 181.863281 C 245.113281 181.855469 245.160156 181.859375 245.144531 181.792969 C 245.125 181.730469 245.128906 181.648438 245.027344 181.648438 C 244.945312 181.648438 244.96875 181.707031 244.960938 181.804688 Z M 227.117188 182.851562 C 227.125 182.941406 227.078125 182.996094 227.132812 183.089844 C 227.144531 183 227.167969 182.941406 227.117188 182.851562 Z M 226.625 182.921875 C 226.640625 182.886719 226.617188 182.882812 226.605469 182.875 C 226.601562 182.875 226.585938 182.894531 226.585938 182.902344 C 226.585938 182.917969 226.59375 182.933594 226.597656 182.945312 C 226.609375 182.9375 226.621094 182.925781 226.625 182.921875 Z M 226.625 182.921875 " fill-opacity="1" fill-rule="evenodd"/></g><path fill="#282828" d="M 243.542969 181.242188 C 243.542969 181.8125 243.082031 182.273438 242.511719 182.273438 C 241.949219 182.273438 241.496094 181.816406 241.496094 181.253906 C 241.496094 180.683594 241.957031 180.210938 242.519531 180.210938 C 243.09375 180.210938 243.542969 180.664062 243.542969 181.242188 Z M 242.992188 181.246094 C 242.992188 180.980469 242.792969 180.761719 242.535156 180.753906 C 242.273438 180.742188 242.050781 180.960938 242.046875 181.234375 C 242.039062 181.503906 242.234375 181.710938 242.5 181.71875 C 242.773438 181.726562 242.988281 181.515625 242.992188 181.246094 Z M 242.992188 181.246094 " fill-opacity="1" fill-rule="evenodd"/><g transform="matrix(1, 0, 0, 1, 76, 196)"><g clip-path="url(#43d2bd933f)"><g fill="#444142" fill-opacity="1"><g transform="translate(1.21826, 28.771073)"><g><path d="M 10.34375 0.359375 C 8.488281 0.359375 6.765625 0.101562 5.171875 -0.40625 C 3.578125 -0.925781 2.320312 -1.523438 1.40625 -2.203125 L 1.265625 -7.625 L 1.734375 -7.703125 C 2.242188 -6.328125 2.9375 -5.085938 3.8125 -3.984375 C 4.695312 -2.890625 5.765625 -2.015625 7.015625 -1.359375 C 8.265625 -0.710938 9.6875 -0.390625 11.28125 -0.390625 C 12.125 -0.390625 12.90625 -0.566406 13.625 -0.921875 C 14.351562 -1.273438 14.945312 -1.785156 15.40625 -2.453125 C 15.863281 -3.128906 16.09375 -3.960938 16.09375 -4.953125 C 16.09375 -5.847656 15.835938 -6.625 15.328125 -7.28125 C 14.828125 -7.945312 14.179688 -8.523438 13.390625 -9.015625 C 12.609375 -9.515625 11.785156 -9.953125 10.921875 -10.328125 C 10.054688 -10.703125 9.257812 -11.035156 8.53125 -11.328125 C 7.300781 -11.859375 6.164062 -12.382812 5.125 -12.90625 C 4.09375 -13.4375 3.265625 -14.117188 2.640625 -14.953125 C 2.015625 -15.785156 1.703125 -16.898438 1.703125 -18.296875 C 1.703125 -20.546875 2.539062 -22.320312 4.21875 -23.625 C 5.894531 -24.925781 8.15625 -25.578125 11 -25.578125 C 12.34375 -25.578125 13.597656 -25.441406 14.765625 -25.171875 C 15.941406 -24.910156 17 -24.535156 17.9375 -24.046875 L 18.09375 -19.359375 L 17.6875 -19.203125 C 16.9375 -21.066406 15.84375 -22.488281 14.40625 -23.46875 C 12.976562 -24.457031 11.382812 -24.953125 9.625 -24.953125 C 8.175781 -24.953125 6.953125 -24.546875 5.953125 -23.734375 C 4.953125 -22.929688 4.453125 -21.820312 4.453125 -20.40625 C 4.453125 -19.601562 4.648438 -18.90625 5.046875 -18.3125 C 5.441406 -17.726562 5.96875 -17.21875 6.625 -16.78125 C 7.289062 -16.34375 8.003906 -15.960938 8.765625 -15.640625 C 9.523438 -15.316406 10.269531 -15.007812 11 -14.71875 C 11.914062 -14.351562 12.847656 -13.96875 13.796875 -13.5625 C 14.753906 -13.15625 15.628906 -12.671875 16.421875 -12.109375 C 17.210938 -11.554688 17.847656 -10.894531 18.328125 -10.125 C 18.816406 -9.351562 19.0625 -8.425781 19.0625 -7.34375 C 19.0625 -6.113281 18.804688 -5.015625 18.296875 -4.046875 C 17.796875 -3.085938 17.125 -2.28125 16.28125 -1.625 C 15.4375 -0.976562 14.492188 -0.484375 13.453125 -0.140625 C 12.421875 0.191406 11.382812 0.359375 10.34375 0.359375 Z M 10.34375 0.359375 "/></g></g></g><g fill="#444142" fill-opacity="1"><g transform="translate(23.130878, 28.771073)"><g><path d="M 1.015625 0 L 1.015625 -0.5 C 1.617188 -0.695312 2.007812 -1.101562 2.1875 -1.71875 C 2.363281 -2.332031 2.453125 -3.289062 2.453125 -4.59375 L 2.453125 -12.90625 C 2.453125 -13.96875 2.328125 -14.664062 2.078125 -15 C 1.828125 -15.34375 1.472656 -15.613281 1.015625 -15.8125 L 1.015625 -16.3125 L 5.78125 -18.40625 L 6.15625 -18.125 L 6.15625 -4.59375 C 6.15625 -3.289062 6.242188 -2.332031 6.421875 -1.71875 C 6.597656 -1.101562 6.988281 -0.695312 7.59375 -0.5 L 7.59375 0 Z M 1.625 -22.09375 C 1.625 -22.800781 1.863281 -23.394531 2.34375 -23.875 C 2.832031 -24.351562 3.414062 -24.59375 4.09375 -24.59375 C 4.8125 -24.59375 5.398438 -24.351562 5.859375 -23.875 C 6.316406 -23.394531 6.546875 -22.800781 6.546875 -22.09375 C 6.546875 -21.425781 6.3125 -20.847656 5.84375 -20.359375 C 5.375 -19.878906 4.789062 -19.640625 4.09375 -19.640625 C 3.414062 -19.640625 2.832031 -19.878906 2.34375 -20.359375 C 1.863281 -20.847656 1.625 -21.425781 1.625 -22.09375 Z M 1.625 -22.09375 "/></g></g></g><g fill="#444142" fill-opacity="1"><g transform="translate(33.72596, 28.771073)"><g><path d="M 10.8125 0 L 10.8125 -0.5 C 11.414062 -0.695312 11.566406 -1.03125 11.265625 -1.5 C 10.960938 -1.96875 10.453125 -2.742188 9.734375 -3.828125 L 6.9375 -8.0625 L 3.765625 -3.6875 C 3.253906 -2.988281 2.875 -2.425781 2.625 -2 C 2.375 -1.582031 2.347656 -1.265625 2.546875 -1.046875 C 2.753906 -0.828125 3.269531 -0.644531 4.09375 -0.5 L 4.09375 0 L -0.6875 0 L -0.6875 -0.5 C -0.15625 -0.695312 0.410156 -1.019531 1.015625 -1.46875 C 1.617188 -1.914062 2.304688 -2.65625 3.078125 -3.6875 L 6.625 -8.53125 L 2.859375 -14.25 C 2.128906 -15.332031 1.492188 -16.113281 0.953125 -16.59375 C 0.410156 -17.082031 -0.0625 -17.410156 -0.46875 -17.578125 L -0.46875 -18.09375 L 5.859375 -18.09375 L 5.859375 -17.578125 C 5.253906 -17.390625 5.101562 -17.054688 5.40625 -16.578125 C 5.707031 -16.109375 6.21875 -15.332031 6.9375 -14.25 L 9.15625 -10.890625 L 11.578125 -14.328125 C 12.078125 -15.046875 12.441406 -15.613281 12.671875 -16.03125 C 12.898438 -16.457031 12.914062 -16.789062 12.71875 -17.03125 C 12.53125 -17.28125 12.015625 -17.460938 11.171875 -17.578125 L 11.171875 -18.09375 L 15.921875 -18.09375 L 15.921875 -17.578125 C 15.390625 -17.410156 14.828125 -17.09375 14.234375 -16.625 C 13.640625 -16.15625 12.96875 -15.390625 12.21875 -14.328125 L 9.484375 -10.375 L 13.78125 -3.828125 C 14.5 -2.742188 15.132812 -1.96875 15.6875 -1.5 C 16.25 -1.03125 16.722656 -0.695312 17.109375 -0.5 L 17.109375 0 Z M 10.8125 0 "/></g></g></g><g fill="#444142" fill-opacity="1"><g transform="translate(52.312015, 28.771073)"><g><path d="M 6.796875 0.359375 C 5.566406 0.359375 4.628906 -0.0625 3.984375 -0.90625 C 3.347656 -1.75 3.03125 -3.144531 3.03125 -5.09375 L 3.03125 -17.5 L 0.71875 -17.5 L 0.71875 -18.09375 L 6.15625 -22.859375 L 6.734375 -22.859375 L 6.734375 -18.09375 L 12.328125 -18.09375 L 12.1875 -17.5 L 6.734375 -17.5 L 6.734375 -5.0625 C 6.734375 -3.957031 6.9375 -3.144531 7.34375 -2.625 C 7.75 -2.101562 8.351562 -1.84375 9.15625 -1.84375 C 9.5625 -1.84375 10.046875 -1.957031 10.609375 -2.1875 C 11.179688 -2.414062 11.769531 -2.90625 12.375 -3.65625 L 12.734375 -3.296875 C 11.765625 -2.179688 10.800781 -1.289062 9.84375 -0.625 C 8.894531 0.03125 7.878906 0.359375 6.796875 0.359375 Z M 6.796875 0.359375 "/></g></g></g><g fill="#444142" fill-opacity="1"><g transform="translate(67.101451, 28.771073)"><g><path d="M 1.296875 6.984375 C 0.554688 7.003906 -0.0664062 6.90625 -0.578125 6.6875 C -1.085938 6.46875 -1.34375 6.179688 -1.34375 5.828125 C -1.34375 5.585938 -1.238281 5.289062 -1.03125 4.9375 C -0.820312 4.582031 -0.515625 4.257812 -0.109375 3.96875 C 0.296875 3.6875 0.78125 3.546875 1.34375 3.546875 C 1.875 3.546875 2.585938 3.609375 3.484375 3.734375 C 4.390625 3.867188 5.3125 4.023438 6.25 4.203125 C 6.6875 3.710938 7.125 3.125 7.5625 2.4375 C 8 1.75 8.410156 1 8.796875 0.1875 L 2.71875 -13.859375 C 2.207031 -15.054688 1.707031 -15.925781 1.21875 -16.46875 C 0.738281 -17.019531 0.296875 -17.390625 -0.109375 -17.578125 L -0.109375 -18.09375 L 6.296875 -18.09375 L 6.296875 -17.578125 C 5.691406 -17.390625 5.472656 -17.03125 5.640625 -16.5 C 5.804688 -15.96875 6.15625 -15.097656 6.6875 -13.890625 L 10.8125 -4.484375 L 14.859375 -13.859375 C 15.367188 -15.054688 15.585938 -15.9375 15.515625 -16.5 C 15.441406 -17.070312 15.09375 -17.429688 14.46875 -17.578125 L 14.46875 -18.09375 L 18.59375 -18.09375 L 18.59375 -17.578125 C 18.0625 -17.390625 17.535156 -17.03125 17.015625 -16.5 C 16.492188 -15.96875 15.972656 -15.097656 15.453125 -13.890625 L 9.90625 -1.078125 C 8.988281 1.015625 8.082031 2.644531 7.1875 3.8125 C 6.300781 4.988281 5.375 5.800781 4.40625 6.25 C 3.445312 6.707031 2.410156 6.953125 1.296875 6.984375 Z M 1.296875 6.984375 "/></g></g></g><g fill="#444142" fill-opacity="1"><g transform="translate(87.278466, 28.771073)"><g><path d="M 20.765625 0.296875 L 3.796875 -21.125 L 3.796875 -6.765625 C 3.796875 -5.296875 3.890625 -4.140625 4.078125 -3.296875 C 4.273438 -2.453125 4.578125 -1.820312 4.984375 -1.40625 C 5.398438 -1 5.921875 -0.695312 6.546875 -0.5 L 6.546875 0 L 1.703125 0 L 1.703125 -0.5 C 2.304688 -0.695312 2.695312 -1.101562 2.875 -1.71875 C 3.050781 -2.332031 3.140625 -3.289062 3.140625 -4.59375 L 3.140625 -20.71875 C 3.140625 -22.03125 3.019531 -22.992188 2.78125 -23.609375 C 2.539062 -24.222656 2.035156 -24.625 1.265625 -24.8125 L 1.265625 -25.328125 L 5.359375 -25.328125 L 20.546875 -6.296875 L 20.546875 -18.5625 C 20.546875 -20.03125 20.445312 -21.1875 20.25 -22.03125 C 20.0625 -22.875 19.757812 -23.5 19.34375 -23.90625 C 18.9375 -24.320312 18.421875 -24.625 17.796875 -24.8125 L 17.796875 -25.328125 L 22.6875 -25.328125 L 22.6875 -24.8125 C 22.082031 -24.625 21.6875 -24.222656 21.5 -23.609375 C 21.320312 -22.992188 21.234375 -22.03125 21.234375 -20.71875 L 21.234375 0.296875 Z M 20.765625 0.296875 "/></g></g></g><g fill="#444142" fill-opacity="1"><g transform="translate(113.132326, 28.771073)"><g><path d="M 9.6875 0.359375 C 8.675781 0.359375 7.671875 0.179688 6.671875 -0.171875 C 5.671875 -0.535156 4.75 -1.078125 3.90625 -1.796875 C 3.0625 -2.523438 2.382812 -3.429688 1.875 -4.515625 C 1.375 -5.609375 1.125 -6.890625 1.125 -8.359375 C 1.125 -9.898438 1.394531 -11.285156 1.9375 -12.515625 C 2.476562 -13.742188 3.207031 -14.789062 4.125 -15.65625 C 5.039062 -16.53125 6.054688 -17.195312 7.171875 -17.65625 C 8.296875 -18.113281 9.453125 -18.34375 10.640625 -18.34375 C 12.273438 -18.34375 13.644531 -18.015625 14.75 -17.359375 C 15.863281 -16.710938 16.703125 -15.894531 17.265625 -14.90625 C 17.835938 -13.914062 18.125 -12.890625 18.125 -11.828125 L 4.40625 -11.828125 C 4.382812 -11.628906 4.367188 -11.429688 4.359375 -11.234375 C 4.347656 -11.046875 4.34375 -10.859375 4.34375 -10.671875 C 4.34375 -9.097656 4.648438 -7.695312 5.265625 -6.46875 C 5.878906 -5.238281 6.742188 -4.28125 7.859375 -3.59375 C 8.984375 -2.90625 10.304688 -2.5625 11.828125 -2.5625 C 13.179688 -2.5625 14.375 -2.828125 15.40625 -3.359375 C 16.445312 -3.890625 17.34375 -4.578125 18.09375 -5.421875 L 18.40625 -5.0625 C 17.851562 -4.21875 17.164062 -3.378906 16.34375 -2.546875 C 15.53125 -1.710938 14.566406 -1.019531 13.453125 -0.46875 C 12.347656 0.0820312 11.09375 0.359375 9.6875 0.359375 Z M 4.453125 -12.328125 L 14.46875 -12.328125 C 14.320312 -13.316406 14.015625 -14.210938 13.546875 -15.015625 C 13.078125 -15.828125 12.5 -16.472656 11.8125 -16.953125 C 11.125 -17.441406 10.359375 -17.6875 9.515625 -17.6875 C 8.503906 -17.707031 7.644531 -17.460938 6.9375 -16.953125 C 6.238281 -16.453125 5.6875 -15.789062 5.28125 -14.96875 C 4.875 -14.15625 4.597656 -13.273438 4.453125 -12.328125 Z M 4.453125 -12.328125 "/></g></g></g><g fill="#444142" fill-opacity="1"><g transform="translate(134.357932, 28.771073)"><g><path d="M 1.625 -13.671875 C 1.257812 -14.921875 0.925781 -15.84375 0.625 -16.4375 C 0.332031 -17.03125 -0.0195312 -17.410156 -0.4375 -17.578125 L -0.4375 -18.09375 L 5.75 -18.09375 L 5.75 -17.578125 C 5.144531 -17.390625 4.875 -17.003906 4.9375 -16.421875 C 5 -15.835938 5.195312 -14.921875 5.53125 -13.671875 L 8.28125 -3.984375 L 13.125 -18.09375 L 15.34375 -18.09375 L 20.109375 -4.125 L 22.96875 -13.671875 C 23.332031 -14.921875 23.425781 -15.847656 23.25 -16.453125 C 23.082031 -17.054688 22.6875 -17.429688 22.0625 -17.578125 L 22.0625 -18.09375 L 25.9375 -18.09375 L 25.9375 -17.578125 C 25.40625 -17.410156 24.96875 -17.03125 24.625 -16.4375 C 24.289062 -15.84375 23.941406 -14.921875 23.578125 -13.671875 L 19.453125 0 L 17.609375 0 L 12.59375 -14.796875 L 7.453125 0 L 5.609375 0 Z M 1.625 -13.671875 "/></g></g></g><g fill="#444142" fill-opacity="1"><g transform="translate(161.875073, 28.771073)"><g><path d="M 6.796875 0.359375 C 5.566406 0.359375 4.628906 -0.0625 3.984375 -0.90625 C 3.347656 -1.75 3.03125 -3.144531 3.03125 -5.09375 L 3.03125 -17.5 L 0.71875 -17.5 L 0.71875 -18.09375 L 6.15625 -22.859375 L 6.734375 -22.859375 L 6.734375 -18.09375 L 12.328125 -18.09375 L 12.1875 -17.5 L 6.734375 -17.5 L 6.734375 -5.0625 C 6.734375 -3.957031 6.9375 -3.144531 7.34375 -2.625 C 7.75 -2.101562 8.351562 -1.84375 9.15625 -1.84375 C 9.5625 -1.84375 10.046875 -1.957031 10.609375 -2.1875 C 11.179688 -2.414062 11.769531 -2.90625 12.375 -3.65625 L 12.734375 -3.296875 C 11.765625 -2.179688 10.800781 -1.289062 9.84375 -0.625 C 8.894531 0.03125 7.878906 0.359375 6.796875 0.359375 Z M 6.796875 0.359375 "/></g></g></g><g fill="#444142" fill-opacity="1"><g transform="translate(176.66451, 28.771073)"><g><path d="M 10.78125 0.359375 C 9.59375 0.359375 8.425781 0.1875 7.28125 -0.15625 C 6.144531 -0.507812 5.109375 -1.050781 4.171875 -1.78125 C 3.242188 -2.519531 2.503906 -3.445312 1.953125 -4.5625 C 1.398438 -5.6875 1.125 -7.023438 1.125 -8.578125 C 1.125 -10.046875 1.390625 -11.375 1.921875 -12.5625 C 2.453125 -13.757812 3.175781 -14.785156 4.09375 -15.640625 C 5.007812 -16.492188 6.046875 -17.15625 7.203125 -17.625 C 8.359375 -18.101562 9.550781 -18.34375 10.78125 -18.34375 C 11.914062 -18.34375 13.039062 -18.171875 14.15625 -17.828125 C 15.28125 -17.492188 16.316406 -16.957031 17.265625 -16.21875 C 18.222656 -15.488281 18.984375 -14.554688 19.546875 -13.421875 C 20.117188 -12.285156 20.40625 -10.921875 20.40625 -9.328125 C 20.40625 -7.785156 20.109375 -6.410156 19.515625 -5.203125 C 18.921875 -4.003906 18.144531 -2.992188 17.1875 -2.171875 C 16.238281 -1.347656 15.195312 -0.71875 14.0625 -0.28125 C 12.9375 0.144531 11.84375 0.359375 10.78125 0.359375 Z M 4.734375 -11.28125 C 4.734375 -10.21875 4.890625 -9.0625 5.203125 -7.8125 C 5.515625 -6.5625 5.976562 -5.375 6.59375 -4.25 C 7.21875 -3.125 7.984375 -2.207031 8.890625 -1.5 C 9.804688 -0.789062 10.859375 -0.4375 12.046875 -0.4375 C 13.222656 -0.4375 14.15625 -0.738281 14.84375 -1.34375 C 15.53125 -1.945312 16.019531 -2.71875 16.3125 -3.65625 C 16.601562 -4.59375 16.75 -5.566406 16.75 -6.578125 C 16.75 -7.734375 16.5625 -8.96875 16.1875 -10.28125 C 15.8125 -11.601562 15.28125 -12.84375 14.59375 -14 C 13.90625 -15.15625 13.078125 -16.078125 12.109375 -16.765625 C 11.148438 -17.453125 10.09375 -17.734375 8.9375 -17.609375 C 7.894531 -17.515625 7.066406 -17.160156 6.453125 -16.546875 C 5.835938 -15.929688 5.394531 -15.160156 5.125 -14.234375 C 4.863281 -13.304688 4.734375 -12.320312 4.734375 -11.28125 Z M 4.734375 -11.28125 "/></g></g></g><g fill="#444142" fill-opacity="1"><g transform="translate(200.457354, 28.771073)"><g><path d="M 1.015625 0 L 1.015625 -0.5 C 1.617188 -0.695312 2.007812 -1.101562 2.1875 -1.71875 C 2.363281 -2.332031 2.453125 -3.289062 2.453125 -4.59375 L 2.453125 -12.90625 C 2.453125 -13.96875 2.328125 -14.664062 2.078125 -15 C 1.828125 -15.34375 1.472656 -15.613281 1.015625 -15.8125 L 1.015625 -16.3125 L 5.78125 -18.40625 L 6.15625 -18.125 L 6.15625 -15.078125 C 7.132812 -15.898438 8.265625 -16.648438 9.546875 -17.328125 C 10.828125 -18.003906 12.164062 -18.34375 13.5625 -18.34375 C 15.226562 -18.34375 16.570312 -17.875 17.59375 -16.9375 C 18.625 -16.007812 19.140625 -14.488281 19.140625 -12.375 L 19.140625 -4.59375 C 19.140625 -3.289062 19.226562 -2.332031 19.40625 -1.71875 C 19.582031 -1.101562 19.972656 -0.695312 20.578125 -0.5 L 20.578125 0 L 14 0 L 14 -0.5 C 14.601562 -0.695312 14.992188 -1.101562 15.171875 -1.71875 C 15.359375 -2.332031 15.453125 -3.289062 15.453125 -4.59375 L 15.453125 -11.71875 C 15.453125 -13.351562 15.109375 -14.625 14.421875 -15.53125 C 13.734375 -16.4375 12.710938 -16.890625 11.359375 -16.890625 C 10.515625 -16.890625 9.679688 -16.679688 8.859375 -16.265625 C 8.035156 -15.859375 7.132812 -15.257812 6.15625 -14.46875 L 6.15625 -4.59375 C 6.15625 -3.289062 6.242188 -2.332031 6.421875 -1.71875 C 6.597656 -1.101562 6.988281 -0.695312 7.59375 -0.5 L 7.59375 0 Z M 1.015625 0 "/></g></g></g></g></g><g transform="matrix(1, 0, 0, 1, 89, 236)"><g clip-path="url(#1c4e294923)"><g clip-path="url(#e0d8f3861c)"><g fill="#161925" fill-opacity="1"><g transform="translate(0.336207, 12.30041)"><g><path d="M 2.59375 -0.40625 C 2.957031 -0.425781 3.191406 -0.523438 3.296875 -0.703125 C 3.398438 -0.890625 3.453125 -1.175781 3.453125 -1.5625 L 3.453125 -1.953125 L 3.46875 -8.28125 L 2.171875 -8.28125 C 1.660156 -8.28125 1.289062 -8.101562 1.0625 -7.75 C 0.84375 -7.40625 0.734375 -6.859375 0.734375 -6.109375 L 0.28125 -6.109375 L 0.34375 -8.75 L 7.640625 -8.75 L 7.71875 -6.109375 L 7.234375 -6.109375 C 7.222656 -6.640625 7.171875 -7.0625 7.078125 -7.375 C 6.984375 -7.6875 6.820312 -7.914062 6.59375 -8.0625 C 6.363281 -8.21875 6.035156 -8.296875 5.609375 -8.296875 L 4.546875 -8.296875 L 4.53125 -1.484375 C 4.53125 -1.046875 4.519531 -0.71875 4.5 -0.5 L 5.53125 -0.546875 L 5.53125 0 L 2.59375 0 Z M 2.59375 -0.40625 "/></g></g></g></g><g fill="#161925" fill-opacity="1"><g transform="translate(12.01801, 12.30041)"><g><path d="M 0.6875 -0.40625 C 0.976562 -0.414062 1.1875 -0.484375 1.3125 -0.609375 C 1.4375 -0.734375 1.503906 -0.878906 1.515625 -1.046875 C 1.535156 -1.222656 1.546875 -1.523438 1.546875 -1.953125 L 1.546875 -7.34375 C 1.546875 -7.695312 1.5625 -8 1.59375 -8.25 L 0.6875 -8.203125 L 0.6875 -8.75 L 6.703125 -8.75 L 6.765625 -6.5625 L 6.34375 -6.5625 C 6.34375 -7.25 6.195312 -7.71875 5.90625 -7.96875 C 5.613281 -8.21875 5.195312 -8.332031 4.65625 -8.3125 L 3.59375 -8.28125 C 3.289062 -8.28125 3.070312 -8.226562 2.9375 -8.125 C 2.800781 -8.019531 2.71875 -7.875 2.6875 -7.6875 C 2.65625 -7.5 2.640625 -7.203125 2.640625 -6.796875 L 2.640625 -4.796875 L 4.984375 -4.78125 L 4.90625 -5.859375 L 5.453125 -5.859375 L 5.453125 -3.234375 L 5.03125 -3.234375 C 5.03125 -3.546875 4.992188 -3.78125 4.921875 -3.9375 C 4.847656 -4.101562 4.734375 -4.210938 4.578125 -4.265625 C 4.421875 -4.316406 4.207031 -4.34375 3.9375 -4.34375 L 3.546875 -4.34375 L 2.640625 -4.296875 L 2.640625 -1.4375 C 2.640625 -1 2.625 -0.675781 2.59375 -0.46875 L 4.984375 -0.5 C 5.566406 -0.507812 6.007812 -0.65625 6.3125 -0.9375 C 6.625 -1.226562 6.78125 -1.726562 6.78125 -2.4375 L 7.21875 -2.4375 L 7.140625 0 L 0.6875 0 Z M 0.6875 -0.40625 "/></g></g></g><g fill="#161925" fill-opacity="1"><g transform="translate(23.474994, 12.30041)"><g><path d="M 4.828125 0.203125 C 4.003906 0.203125 3.269531 0.0078125 2.625 -0.375 C 1.976562 -0.769531 1.472656 -1.304688 1.109375 -1.984375 C 0.753906 -2.660156 0.578125 -3.410156 0.578125 -4.234375 C 0.578125 -5.054688 0.738281 -5.820312 1.0625 -6.53125 C 1.394531 -7.25 1.890625 -7.832031 2.546875 -8.28125 C 3.203125 -8.726562 3.988281 -8.953125 4.90625 -8.953125 C 5.820312 -8.953125 6.664062 -8.695312 7.4375 -8.1875 L 7.375 -8.859375 L 8.046875 -8.859375 L 8.046875 -5.96875 L 7.59375 -5.96875 C 7.507812 -6.738281 7.238281 -7.34375 6.78125 -7.78125 C 6.320312 -8.21875 5.726562 -8.4375 5 -8.4375 C 4.40625 -8.4375 3.863281 -8.269531 3.375 -7.9375 C 2.894531 -7.613281 2.507812 -7.144531 2.21875 -6.53125 C 1.9375 -5.925781 1.796875 -5.222656 1.796875 -4.421875 C 1.796875 -3.660156 1.945312 -2.976562 2.25 -2.375 C 2.550781 -1.769531 2.953125 -1.296875 3.453125 -0.953125 C 3.960938 -0.617188 4.53125 -0.453125 5.15625 -0.453125 C 5.707031 -0.453125 6.238281 -0.578125 6.75 -0.828125 C 7.269531 -1.078125 7.695312 -1.429688 8.03125 -1.890625 L 8.359375 -1.625 C 7.878906 -0.945312 7.328125 -0.472656 6.703125 -0.203125 C 6.078125 0.0664062 5.453125 0.203125 4.828125 0.203125 Z M 4.828125 0.203125 "/></g></g></g><g fill="#161925" fill-opacity="1"><g transform="translate(35.893703, 12.30041)"><g><path d="M 0.6875 -0.40625 C 0.976562 -0.414062 1.1875 -0.484375 1.3125 -0.609375 C 1.4375 -0.734375 1.503906 -0.878906 1.515625 -1.046875 C 1.535156 -1.222656 1.546875 -1.523438 1.546875 -1.953125 L 1.546875 -7.34375 C 1.546875 -7.695312 1.5625 -8 1.59375 -8.25 L 0.6875 -8.203125 L 0.6875 -8.75 L 3.5 -8.75 L 3.5 -8.34375 C 3.207031 -8.332031 3 -8.265625 2.875 -8.140625 C 2.75 -8.015625 2.675781 -7.863281 2.65625 -7.6875 C 2.644531 -7.519531 2.640625 -7.222656 2.640625 -6.796875 L 2.640625 -4.71875 L 7.109375 -4.71875 L 7.109375 -7.34375 C 7.109375 -7.695312 7.125 -8 7.15625 -8.25 L 6.25 -8.203125 L 6.25 -8.75 L 9.0625 -8.75 L 9.0625 -8.34375 C 8.769531 -8.332031 8.5625 -8.265625 8.4375 -8.140625 C 8.3125 -8.015625 8.238281 -7.863281 8.21875 -7.6875 C 8.207031 -7.519531 8.203125 -7.222656 8.203125 -6.796875 L 8.203125 -1.484375 C 8.203125 -1.046875 8.1875 -0.71875 8.15625 -0.5 L 9.0625 -0.546875 L 9.0625 0 L 6.25 0 L 6.25 -0.40625 C 6.539062 -0.414062 6.75 -0.484375 6.875 -0.609375 C 7 -0.734375 7.066406 -0.878906 7.078125 -1.046875 C 7.097656 -1.222656 7.109375 -1.523438 7.109375 -1.953125 L 7.109375 -4.21875 L 2.640625 -4.171875 L 2.640625 -1.484375 C 2.640625 -1.046875 2.625 -0.71875 2.59375 -0.5 L 3.5 -0.546875 L 3.5 0 L 0.6875 0 Z M 0.6875 -0.40625 "/></g></g></g><g fill="#161925" fill-opacity="1"><g transform="translate(49.324105, 12.30041)"><g><path d="M 2.09375 -7.09375 L 2.125 -1.734375 C 2.125 -1.179688 2.113281 -0.769531 2.09375 -0.5 L 3 -0.546875 L 3 0 L 0.71875 0 L 0.71875 -0.40625 C 1.050781 -0.40625 1.269531 -0.5 1.375 -0.6875 C 1.476562 -0.882812 1.53125 -1.125 1.53125 -1.40625 L 1.546875 -8.25 L 0.71875 -8.203125 L 0.71875 -8.75 L 2.203125 -8.75 L 7.53125 -1.625 L 7.546875 -7.34375 C 7.546875 -7.695312 7.5625 -8 7.59375 -8.25 L 6.6875 -8.203125 L 6.6875 -8.75 L 8.984375 -8.75 L 8.984375 -8.34375 C 8.734375 -8.332031 8.546875 -8.28125 8.421875 -8.1875 C 8.304688 -8.101562 8.234375 -7.984375 8.203125 -7.828125 C 8.171875 -7.679688 8.15625 -7.484375 8.15625 -7.234375 L 8.15625 -6.796875 L 8.125 0.203125 L 7.53125 0.203125 Z M 2.09375 -7.09375 "/></g></g></g><g fill="#161925" fill-opacity="1"><g transform="translate(62.529688, 12.30041)"><g><path d="M 0.6875 -0.40625 C 0.976562 -0.414062 1.1875 -0.484375 1.3125 -0.609375 C 1.4375 -0.734375 1.503906 -0.878906 1.515625 -1.046875 C 1.535156 -1.222656 1.546875 -1.523438 1.546875 -1.953125 L 1.546875 -7.34375 C 1.546875 -7.695312 1.5625 -8 1.59375 -8.25 L 0.6875 -8.203125 L 0.6875 -8.75 L 3.5 -8.75 L 3.5 -8.34375 C 3.207031 -8.332031 3 -8.265625 2.875 -8.140625 C 2.75 -8.015625 2.675781 -7.863281 2.65625 -7.6875 C 2.644531 -7.519531 2.640625 -7.222656 2.640625 -6.796875 L 2.640625 -1.484375 C 2.640625 -1.046875 2.625 -0.71875 2.59375 -0.5 L 3.5 -0.546875 L 3.5 0 L 0.6875 0 Z M 0.6875 -0.40625 "/></g></g></g><g fill="#161925" fill-opacity="1"><g transform="translate(70.402048, 12.30041)"><g><path d="M 4.828125 0.203125 C 4.003906 0.203125 3.269531 0.0078125 2.625 -0.375 C 1.976562 -0.769531 1.472656 -1.304688 1.109375 -1.984375 C 0.753906 -2.660156 0.578125 -3.410156 0.578125 -4.234375 C 0.578125 -5.054688 0.738281 -5.820312 1.0625 -6.53125 C 1.394531 -7.25 1.890625 -7.832031 2.546875 -8.28125 C 3.203125 -8.726562 3.988281 -8.953125 4.90625 -8.953125 C 5.820312 -8.953125 6.664062 -8.695312 7.4375 -8.1875 L 7.375 -8.859375 L 8.046875 -8.859375 L 8.046875 -5.96875 L 7.59375 -5.96875 C 7.507812 -6.738281 7.238281 -7.34375 6.78125 -7.78125 C 6.320312 -8.21875 5.726562 -8.4375 5 -8.4375 C 4.40625 -8.4375 3.863281 -8.269531 3.375 -7.9375 C 2.894531 -7.613281 2.507812 -7.144531 2.21875 -6.53125 C 1.9375 -5.925781 1.796875 -5.222656 1.796875 -4.421875 C 1.796875 -3.660156 1.945312 -2.976562 2.25 -2.375 C 2.550781 -1.769531 2.953125 -1.296875 3.453125 -0.953125 C 3.960938 -0.617188 4.53125 -0.453125 5.15625 -0.453125 C 5.707031 -0.453125 6.238281 -0.578125 6.75 -0.828125 C 7.269531 -1.078125 7.695312 -1.429688 8.03125 -1.890625 L 8.359375 -1.625 C 7.878906 -0.945312 7.328125 -0.472656 6.703125 -0.203125 C 6.078125 0.0664062 5.453125 0.203125 4.828125 0.203125 Z M 4.828125 0.203125 "/></g></g></g><g fill="#161925" fill-opacity="1"><g transform="translate(82.820756, 12.30041)"><g><path d="M -0.078125 -0.40625 C 0.128906 -0.40625 0.296875 -0.453125 0.421875 -0.546875 C 0.546875 -0.648438 0.644531 -0.773438 0.71875 -0.921875 C 0.800781 -1.078125 0.898438 -1.3125 1.015625 -1.625 L 1.140625 -1.96875 L 3.71875 -8.984375 L 4.015625 -8.984375 L 6.796875 -1.875 C 6.890625 -1.644531 6.96875 -1.398438 7.03125 -1.140625 C 7.101562 -0.878906 7.132812 -0.664062 7.125 -0.5 L 7.96875 -0.546875 L 7.96875 0 L 5.109375 0 L 5.109375 -0.40625 C 5.597656 -0.414062 5.84375 -0.617188 5.84375 -1.015625 C 5.84375 -1.171875 5.800781 -1.363281 5.71875 -1.59375 L 5.28125 -2.78125 L 2.03125 -2.703125 C 1.90625 -2.359375 1.757812 -1.910156 1.59375 -1.359375 C 1.507812 -1.085938 1.40625 -0.800781 1.28125 -0.5 L 2.265625 -0.546875 L 2.265625 0 L -0.078125 0 Z M 5.109375 -3.234375 L 4.21875 -5.625 L 3.65625 -7.15625 L 3.640625 -7.15625 L 3.109375 -5.75 L 2.4375 -3.84375 L 2.21875 -3.234375 Z M 5.109375 -3.234375 "/></g></g></g><g fill="#161925" fill-opacity="1"><g transform="translate(94.327702, 12.30041)"><g><path d="M 0.6875 -0.40625 C 0.976562 -0.414062 1.1875 -0.484375 1.3125 -0.609375 C 1.4375 -0.734375 1.503906 -0.878906 1.515625 -1.046875 C 1.535156 -1.222656 1.546875 -1.523438 1.546875 -1.953125 L 1.546875 -7.34375 C 1.546875 -7.695312 1.5625 -8 1.59375 -8.25 L 0.6875 -8.203125 L 0.6875 -8.75 L 3.5 -8.75 L 3.5 -8.34375 C 3.207031 -8.332031 3 -8.265625 2.875 -8.140625 C 2.75 -8.015625 2.675781 -7.863281 2.65625 -7.6875 C 2.644531 -7.519531 2.640625 -7.222656 2.640625 -6.796875 L 2.640625 -1.4375 C 2.640625 -1 2.625 -0.675781 2.59375 -0.46875 L 4.9375 -0.5 C 5.46875 -0.507812 5.863281 -0.675781 6.125 -1 C 6.394531 -1.332031 6.53125 -1.863281 6.53125 -2.59375 L 6.96875 -2.59375 L 6.890625 0 L 0.6875 0 Z M 0.6875 -0.40625 "/></g></g></g><g fill="#161925" fill-opacity="1"><g transform="translate(105.235122, 12.30041)"><g/></g></g><g fill="#161925" fill-opacity="1"><g transform="translate(112.208202, 12.30041)"><g><path d="M 3.609375 0.203125 C 3.222656 0.203125 2.832031 0.144531 2.4375 0.03125 C 2.039062 -0.0703125 1.691406 -0.226562 1.390625 -0.4375 L 1.453125 0.09375 L 0.796875 0.09375 L 0.71875 -2.5625 L 1.21875 -2.5625 C 1.257812 -1.84375 1.503906 -1.289062 1.953125 -0.90625 C 2.398438 -0.519531 2.96875 -0.328125 3.65625 -0.328125 C 4.164062 -0.328125 4.59375 -0.460938 4.9375 -0.734375 C 5.289062 -1.015625 5.46875 -1.398438 5.46875 -1.890625 C 5.46875 -2.242188 5.367188 -2.546875 5.171875 -2.796875 C 4.972656 -3.054688 4.726562 -3.269531 4.4375 -3.4375 C 4.15625 -3.613281 3.769531 -3.8125 3.28125 -4.03125 C 2.71875 -4.300781 2.269531 -4.535156 1.9375 -4.734375 C 1.613281 -4.929688 1.332031 -5.195312 1.09375 -5.53125 C 0.863281 -5.863281 0.75 -6.269531 0.75 -6.75 C 0.75 -7.082031 0.828125 -7.414062 0.984375 -7.75 C 1.140625 -8.082031 1.40625 -8.363281 1.78125 -8.59375 C 2.15625 -8.832031 2.65625 -8.953125 3.28125 -8.953125 C 3.65625 -8.953125 4.03125 -8.898438 4.40625 -8.796875 C 4.789062 -8.703125 5.144531 -8.539062 5.46875 -8.3125 L 5.40625 -8.84375 L 6.046875 -8.84375 L 6.046875 -6.09375 L 5.59375 -6.09375 C 5.550781 -6.757812 5.34375 -7.316406 4.96875 -7.765625 C 4.59375 -8.222656 4.0625 -8.453125 3.375 -8.453125 C 2.875 -8.453125 2.484375 -8.3125 2.203125 -8.03125 C 1.921875 -7.75 1.78125 -7.398438 1.78125 -6.984375 C 1.78125 -6.648438 1.875 -6.363281 2.0625 -6.125 C 2.25 -5.882812 2.476562 -5.679688 2.75 -5.515625 C 3.03125 -5.359375 3.421875 -5.164062 3.921875 -4.9375 C 4.492188 -4.675781 4.953125 -4.441406 5.296875 -4.234375 C 5.640625 -4.023438 5.929688 -3.75 6.171875 -3.40625 C 6.410156 -3.070312 6.53125 -2.660156 6.53125 -2.171875 C 6.53125 -1.703125 6.414062 -1.289062 6.1875 -0.9375 C 5.957031 -0.582031 5.625 -0.300781 5.1875 -0.09375 C 4.75 0.101562 4.222656 0.203125 3.609375 0.203125 Z M 3.609375 0.203125 "/></g></g></g><g fill="#161925" fill-opacity="1"><g transform="translate(122.978233, 12.30041)"><g><path d="M 0.6875 -0.40625 C 0.976562 -0.414062 1.1875 -0.484375 1.3125 -0.609375 C 1.4375 -0.734375 1.503906 -0.878906 1.515625 -1.046875 C 1.535156 -1.222656 1.546875 -1.523438 1.546875 -1.953125 L 1.546875 -7.34375 C 1.546875 -7.695312 1.5625 -8 1.59375 -8.25 L 0.6875 -8.203125 L 0.6875 -8.75 L 6.703125 -8.75 L 6.765625 -6.5625 L 6.34375 -6.5625 C 6.34375 -7.25 6.195312 -7.71875 5.90625 -7.96875 C 5.613281 -8.21875 5.195312 -8.332031 4.65625 -8.3125 L 3.59375 -8.28125 C 3.289062 -8.28125 3.070312 -8.226562 2.9375 -8.125 C 2.800781 -8.019531 2.71875 -7.875 2.6875 -7.6875 C 2.65625 -7.5 2.640625 -7.203125 2.640625 -6.796875 L 2.640625 -4.796875 L 4.984375 -4.78125 L 4.90625 -5.859375 L 5.453125 -5.859375 L 5.453125 -3.234375 L 5.03125 -3.234375 C 5.03125 -3.546875 4.992188 -3.78125 4.921875 -3.9375 C 4.847656 -4.101562 4.734375 -4.210938 4.578125 -4.265625 C 4.421875 -4.316406 4.207031 -4.34375 3.9375 -4.34375 L 3.546875 -4.34375 L 2.640625 -4.296875 L 2.640625 -1.4375 C 2.640625 -1 2.625 -0.675781 2.59375 -0.46875 L 4.984375 -0.5 C 5.566406 -0.507812 6.007812 -0.65625 6.3125 -0.9375 C 6.625 -1.226562 6.78125 -1.726562 6.78125 -2.4375 L 7.21875 -2.4375 L 7.140625 0 L 0.6875 0 Z M 0.6875 -0.40625 "/></g></g></g><g fill="#161925" fill-opacity="1"><g transform="translate(134.435218, 12.30041)"><g><path d="M 0.6875 -0.40625 C 0.976562 -0.414062 1.1875 -0.484375 1.3125 -0.609375 C 1.4375 -0.734375 1.503906 -0.878906 1.515625 -1.046875 C 1.535156 -1.222656 1.546875 -1.523438 1.546875 -1.953125 L 1.546875 -7.34375 C 1.546875 -7.695312 1.5625 -8 1.59375 -8.25 L 0.6875 -8.203125 L 0.6875 -8.75 C 1.550781 -8.769531 2.207031 -8.78125 2.65625 -8.78125 C 3.050781 -8.78125 3.347656 -8.773438 3.546875 -8.765625 C 4.722656 -8.742188 5.582031 -8.539062 6.125 -8.15625 C 6.675781 -7.78125 6.953125 -7.238281 6.953125 -6.53125 C 6.960938 -5.945312 6.789062 -5.425781 6.4375 -4.96875 C 6.082031 -4.507812 5.472656 -4.195312 4.609375 -4.03125 C 4.753906 -3.914062 4.882812 -3.78125 5 -3.625 C 5.113281 -3.476562 5.269531 -3.25 5.46875 -2.9375 L 6.328125 -1.59375 C 6.503906 -1.300781 6.65625 -1.078125 6.78125 -0.921875 C 6.90625 -0.773438 7.050781 -0.648438 7.21875 -0.546875 C 7.382812 -0.453125 7.59375 -0.40625 7.84375 -0.40625 L 7.84375 0 L 6.28125 0 C 6.050781 -0.1875 5.859375 -0.382812 5.703125 -0.59375 C 5.546875 -0.800781 5.363281 -1.066406 5.15625 -1.390625 L 4.328125 -2.71875 L 4.15625 -2.984375 C 4.03125 -3.210938 3.914062 -3.394531 3.8125 -3.53125 C 3.707031 -3.675781 3.597656 -3.800781 3.484375 -3.90625 C 3.410156 -3.90625 3.296875 -3.90625 3.140625 -3.90625 C 2.910156 -3.90625 2.742188 -3.90625 2.640625 -3.90625 L 2.640625 -1.484375 C 2.640625 -1.046875 2.625 -0.71875 2.59375 -0.5 L 3.5 -0.546875 L 3.5 0 L 0.6875 0 Z M 3.1875 -4.375 C 4.882812 -4.375 5.734375 -5.046875 5.734375 -6.390625 C 5.734375 -7.023438 5.550781 -7.5 5.1875 -7.8125 C 4.820312 -8.125 4.257812 -8.28125 3.5 -8.28125 C 3.207031 -8.28125 3 -8.222656 2.875 -8.109375 C 2.75 -7.992188 2.675781 -7.851562 2.65625 -7.6875 C 2.644531 -7.519531 2.640625 -7.222656 2.640625 -6.796875 L 2.640625 -4.40625 C 2.890625 -4.382812 3.070312 -4.375 3.1875 -4.375 Z M 3.1875 -4.375 "/></g></g></g><g fill="#161925" fill-opacity="1"><g transform="translate(145.96714, 12.30041)"><g><path d="M 1.1875 -6.53125 C 0.882812 -7.238281 0.707031 -7.800781 0.65625 -8.21875 L -0.046875 -8.203125 L -0.046875 -8.75 L 2.84375 -8.75 L 2.84375 -8.328125 C 2.5625 -8.304688 2.351562 -8.242188 2.21875 -8.140625 C 2.09375 -8.035156 2.03125 -7.882812 2.03125 -7.6875 C 2.03125 -7.5 2.09375 -7.257812 2.21875 -6.96875 L 2.53125 -6.171875 C 2.613281 -5.960938 2.738281 -5.644531 2.90625 -5.21875 C 3.082031 -4.800781 3.25 -4.414062 3.40625 -4.0625 L 3.71875 -3.296875 C 4.050781 -2.554688 4.28125 -2.007812 4.40625 -1.65625 L 4.4375 -1.65625 L 4.90625 -2.984375 L 5.0625 -3.4375 L 6.15625 -6.53125 L 6.453125 -7.328125 C 6.609375 -7.773438 6.726562 -8.082031 6.8125 -8.25 L 5.84375 -8.203125 L 5.84375 -8.75 L 8.390625 -8.75 L 8.390625 -8.34375 C 8.023438 -8.320312 7.742188 -8.222656 7.546875 -8.046875 C 7.347656 -7.867188 7.171875 -7.554688 7.015625 -7.109375 L 4.375 0.125 L 4.03125 0.125 Z M 1.1875 -6.53125 "/></g></g></g><g fill="#161925" fill-opacity="1"><g transform="translate(157.811308, 12.30041)"><g><path d="M 0.6875 -0.40625 C 0.976562 -0.414062 1.1875 -0.484375 1.3125 -0.609375 C 1.4375 -0.734375 1.503906 -0.878906 1.515625 -1.046875 C 1.535156 -1.222656 1.546875 -1.523438 1.546875 -1.953125 L 1.546875 -7.34375 C 1.546875 -7.695312 1.5625 -8 1.59375 -8.25 L 0.6875 -8.203125 L 0.6875 -8.75 L 3.5 -8.75 L 3.5 -8.34375 C 3.207031 -8.332031 3 -8.265625 2.875 -8.140625 C 2.75 -8.015625 2.675781 -7.863281 2.65625 -7.6875 C 2.644531 -7.519531 2.640625 -7.222656 2.640625 -6.796875 L 2.640625 -1.484375 C 2.640625 -1.046875 2.625 -0.71875 2.59375 -0.5 L 3.5 -0.546875 L 3.5 0 L 0.6875 0 Z M 0.6875 -0.40625 "/></g></g></g><g fill="#161925" fill-opacity="1"><g transform="translate(165.683675, 12.30041)"><g><path d="M 4.828125 0.203125 C 4.003906 0.203125 3.269531 0.0078125 2.625 -0.375 C 1.976562 -0.769531 1.472656 -1.304688 1.109375 -1.984375 C 0.753906 -2.660156 0.578125 -3.410156 0.578125 -4.234375 C 0.578125 -5.054688 0.738281 -5.820312 1.0625 -6.53125 C 1.394531 -7.25 1.890625 -7.832031 2.546875 -8.28125 C 3.203125 -8.726562 3.988281 -8.953125 4.90625 -8.953125 C 5.820312 -8.953125 6.664062 -8.695312 7.4375 -8.1875 L 7.375 -8.859375 L 8.046875 -8.859375 L 8.046875 -5.96875 L 7.59375 -5.96875 C 7.507812 -6.738281 7.238281 -7.34375 6.78125 -7.78125 C 6.320312 -8.21875 5.726562 -8.4375 5 -8.4375 C 4.40625 -8.4375 3.863281 -8.269531 3.375 -7.9375 C 2.894531 -7.613281 2.507812 -7.144531 2.21875 -6.53125 C 1.9375 -5.925781 1.796875 -5.222656 1.796875 -4.421875 C 1.796875 -3.660156 1.945312 -2.976562 2.25 -2.375 C 2.550781 -1.769531 2.953125 -1.296875 3.453125 -0.953125 C 3.960938 -0.617188 4.53125 -0.453125 5.15625 -0.453125 C 5.707031 -0.453125 6.238281 -0.578125 6.75 -0.828125 C 7.269531 -1.078125 7.695312 -1.429688 8.03125 -1.890625 L 8.359375 -1.625 C 7.878906 -0.945312 7.328125 -0.472656 6.703125 -0.203125 C 6.078125 0.0664062 5.453125 0.203125 4.828125 0.203125 Z M 4.828125 0.203125 "/></g></g></g><g fill="#161925" fill-opacity="1"><g transform="translate(178.102384, 12.30041)"><g><path d="M 0.6875 -0.40625 C 0.976562 -0.414062 1.1875 -0.484375 1.3125 -0.609375 C 1.4375 -0.734375 1.503906 -0.878906 1.515625 -1.046875 C 1.535156 -1.222656 1.546875 -1.523438 1.546875 -1.953125 L 1.546875 -7.34375 C 1.546875 -7.695312 1.5625 -8 1.59375 -8.25 L 0.6875 -8.203125 L 0.6875 -8.75 L 6.703125 -8.75 L 6.765625 -6.5625 L 6.34375 -6.5625 C 6.34375 -7.25 6.195312 -7.71875 5.90625 -7.96875 C 5.613281 -8.21875 5.195312 -8.332031 4.65625 -8.3125 L 3.59375 -8.28125 C 3.289062 -8.28125 3.070312 -8.226562 2.9375 -8.125 C 2.800781 -8.019531 2.71875 -7.875 2.6875 -7.6875 C 2.65625 -7.5 2.640625 -7.203125 2.640625 -6.796875 L 2.640625 -4.796875 L 4.984375 -4.78125 L 4.90625 -5.859375 L 5.453125 -5.859375 L 5.453125 -3.234375 L 5.03125 -3.234375 C 5.03125 -3.546875 4.992188 -3.78125 4.921875 -3.9375 C 4.847656 -4.101562 4.734375 -4.210938 4.578125 -4.265625 C 4.421875 -4.316406 4.207031 -4.34375 3.9375 -4.34375 L 3.546875 -4.34375 L 2.640625 -4.296875 L 2.640625 -1.4375 C 2.640625 -1 2.625 -0.675781 2.59375 -0.46875 L 4.984375 -0.5 C 5.566406 -0.507812 6.007812 -0.65625 6.3125 -0.9375 C 6.625 -1.226562 6.78125 -1.726562 6.78125 -2.4375 L 7.21875 -2.4375 L 7.140625 0 L 0.6875 0 Z M 0.6875 -0.40625 "/></g></g></g><g fill="#161925" fill-opacity="1"><g transform="translate(189.559369, 12.30041)"><g><path d="M 3.609375 0.203125 C 3.222656 0.203125 2.832031 0.144531 2.4375 0.03125 C 2.039062 -0.0703125 1.691406 -0.226562 1.390625 -0.4375 L 1.453125 0.09375 L 0.796875 0.09375 L 0.71875 -2.5625 L 1.21875 -2.5625 C 1.257812 -1.84375 1.503906 -1.289062 1.953125 -0.90625 C 2.398438 -0.519531 2.96875 -0.328125 3.65625 -0.328125 C 4.164062 -0.328125 4.59375 -0.460938 4.9375 -0.734375 C 5.289062 -1.015625 5.46875 -1.398438 5.46875 -1.890625 C 5.46875 -2.242188 5.367188 -2.546875 5.171875 -2.796875 C 4.972656 -3.054688 4.726562 -3.269531 4.4375 -3.4375 C 4.15625 -3.613281 3.769531 -3.8125 3.28125 -4.03125 C 2.71875 -4.300781 2.269531 -4.535156 1.9375 -4.734375 C 1.613281 -4.929688 1.332031 -5.195312 1.09375 -5.53125 C 0.863281 -5.863281 0.75 -6.269531 0.75 -6.75 C 0.75 -7.082031 0.828125 -7.414062 0.984375 -7.75 C 1.140625 -8.082031 1.40625 -8.363281 1.78125 -8.59375 C 2.15625 -8.832031 2.65625 -8.953125 3.28125 -8.953125 C 3.65625 -8.953125 4.03125 -8.898438 4.40625 -8.796875 C 4.789062 -8.703125 5.144531 -8.539062 5.46875 -8.3125 L 5.40625 -8.84375 L 6.046875 -8.84375 L 6.046875 -6.09375 L 5.59375 -6.09375 C 5.550781 -6.757812 5.34375 -7.316406 4.96875 -7.765625 C 4.59375 -8.222656 4.0625 -8.453125 3.375 -8.453125 C 2.875 -8.453125 2.484375 -8.3125 2.203125 -8.03125 C 1.921875 -7.75 1.78125 -7.398438 1.78125 -6.984375 C 1.78125 -6.648438 1.875 -6.363281 2.0625 -6.125 C 2.25 -5.882812 2.476562 -5.679688 2.75 -5.515625 C 3.03125 -5.359375 3.421875 -5.164062 3.921875 -4.9375 C 4.492188 -4.675781 4.953125 -4.441406 5.296875 -4.234375 C 5.640625 -4.023438 5.929688 -3.75 6.171875 -3.40625 C 6.410156 -3.070312 6.53125 -2.660156 6.53125 -2.171875 C 6.53125 -1.703125 6.414062 -1.289062 6.1875 -0.9375 C 5.957031 -0.582031 5.625 -0.300781 5.1875 -0.09375 C 4.75 0.101562 4.222656 0.203125 3.609375 0.203125 Z M 3.609375 0.203125 "/></g></g></g></g></g></svg>