<svg xmlns="http://www.w3.org/2000/svg" xmlns:xlink="http://www.w3.org/1999/xlink" width="500" zoomAndPan="magnify" viewBox="0 0 375 374.999991" height="500" preserveAspectRatio="xMidYMid meet" version="1.0"><defs><g/><clipPath id="99bb74afee"><path d="M 96.425781 116.359375 L 278.675781 116.359375 L 278.675781 185.359375 L 96.425781 185.359375 Z M 96.425781 116.359375 " clip-rule="nonzero"/></clipPath><clipPath id="9148398cb5"><path d="M 226.429688 155.296875 L 260.929688 155.296875 L 260.929688 183.796875 L 226.429688 183.796875 Z M 226.429688 155.296875 " clip-rule="nonzero"/></clipPath><clipPath id="e7aa4c2a7b"><rect x="0" width="251" y="0" height="41"/></clipPath></defs><g clip-path="url(#99bb74afee)"><path fill="#b48e2e" d="M 130.105469 122.226562 L 100.546875 151.78125 L 100.546875 185.308594 L 96.425781 185.308594 L 96.425781 150.074219 L 107.464844 139.027344 L 107.464844 124.410156 L 113.710938 124.410156 L 113.710938 132.785156 L 130.105469 116.394531 L 166.800781 153.097656 L 160.96875 153.097656 Z M 106.324219 183.382812 L 106.324219 154.175781 L 130.105469 130.394531 L 152.808594 153.097656 L 155.53125 153.097656 L 130.105469 127.671875 L 104.398438 153.378906 L 104.398438 185.3125 L 278.570312 185.3125 L 278.570312 183.386719 L 106.324219 183.386719 Z M 106.324219 183.382812 " fill-opacity="1" fill-rule="nonzero"/></g><g clip-path="url(#9148398cb5)"><path fill="#ffffff" d="M 246.4375 181.761719 C 246.4375 182.058594 246.429688 182.355469 246.429688 182.65625 C 246.429688 183.027344 246.378906 183.082031 246.007812 183.113281 C 245.976562 183.113281 245.949219 183.113281 245.921875 183.113281 C 245.734375 183.109375 245.546875 183.105469 245.359375 183.105469 C 243.308594 183.105469 241.253906 183.105469 239.203125 183.105469 C 238.894531 183.105469 238.796875 183.007812 238.796875 182.691406 C 238.796875 182.390625 238.796875 182.09375 238.800781 181.792969 C 238.804688 181.449219 238.898438 181.359375 239.234375 181.359375 C 239.679688 181.359375 240.125 181.347656 240.570312 181.359375 C 240.742188 181.367188 240.761719 181.296875 240.769531 181.148438 C 240.78125 180.976562 240.6875 181 240.582031 181 C 239.398438 180.996094 238.214844 180.988281 237.035156 180.996094 C 236.789062 180.996094 236.625 180.925781 236.507812 180.707031 C 236.40625 180.519531 236.273438 180.347656 236.164062 180.164062 C 236.113281 180.074219 236.054688 180.039062 235.953125 180.039062 C 235.171875 180.046875 234.394531 180.046875 233.613281 180.042969 C 233.480469 180.039062 233.425781 180.078125 233.453125 180.210938 C 233.472656 180.328125 233.371094 180.496094 233.625 180.484375 C 234.03125 180.464844 234.433594 180.480469 234.835938 180.484375 C 235.140625 180.484375 235.222656 180.554688 235.269531 180.84375 C 235.359375 181.390625 235.359375 181.390625 235.898438 181.390625 C 236.453125 181.390625 237.007812 181.394531 237.566406 181.394531 C 237.914062 181.398438 238.027344 181.507812 238.042969 181.851562 C 238.054688 182.136719 238.058594 182.421875 238.070312 182.707031 C 238.078125 182.835938 238.074219 182.960938 237.953125 183.042969 C 237.859375 183.105469 237.945312 183.152344 237.96875 183.195312 C 238.089844 183.386719 238.21875 183.574219 238.359375 183.789062 C 238.035156 183.789062 237.738281 183.789062 237.445312 183.789062 C 237.339844 183.789062 237.304688 183.71875 237.273438 183.640625 C 237.179688 183.46875 237.089844 183.296875 237 183.125 C 236.984375 183.132812 236.96875 183.140625 236.953125 183.152344 C 237.042969 183.339844 237.136719 183.527344 237.226562 183.71875 C 237.207031 183.804688 237.144531 183.808594 237.070312 183.808594 C 236.933594 183.808594 236.796875 183.765625 236.65625 183.804688 C 236.367188 183.886719 236.308594 183.664062 236.230469 183.472656 C 236.179688 183.34375 236.144531 183.210938 236.027344 183.117188 C 236.046875 183.246094 236.09375 183.363281 236.160156 183.472656 C 236.164062 183.492188 236.167969 183.511719 236.171875 183.53125 C 236.1875 183.613281 236.292969 183.742188 236.21875 183.765625 C 236.097656 183.808594 235.9375 183.859375 235.820312 183.722656 C 235.742188 183.519531 235.660156 183.316406 235.582031 183.113281 C 235.5625 183.125 235.542969 183.132812 235.523438 183.140625 C 235.597656 183.339844 235.671875 183.535156 235.746094 183.734375 C 235.738281 183.765625 235.738281 183.800781 235.6875 183.800781 C 235.460938 183.796875 235.234375 183.792969 235.007812 183.800781 C 234.9375 183.800781 234.914062 183.769531 234.890625 183.710938 C 234.847656 183.609375 234.800781 183.511719 234.757812 183.414062 C 234.746094 183.382812 234.734375 183.355469 234.722656 183.324219 C 234.703125 183.285156 234.6875 183.246094 234.667969 183.207031 C 234.65625 183.179688 234.664062 183.117188 234.609375 183.144531 C 234.574219 183.164062 234.617188 183.207031 234.628906 183.242188 C 234.644531 183.28125 234.660156 183.324219 234.675781 183.363281 C 234.683594 183.394531 234.695312 183.421875 234.707031 183.449219 C 234.738281 183.5625 234.773438 183.671875 234.808594 183.796875 C 234.570312 183.796875 234.347656 183.789062 234.128906 183.800781 C 234.007812 183.804688 233.957031 183.769531 233.921875 183.65625 C 233.886719 183.546875 233.875 183.417969 233.75 183.320312 C 233.738281 183.460938 233.808594 183.550781 233.839844 183.648438 C 233.878906 183.777344 233.84375 183.8125 233.722656 183.796875 C 233.640625 183.789062 233.554688 183.820312 233.480469 183.765625 C 233.414062 183.558594 233.347656 183.351562 233.28125 183.148438 C 233.292969 183.277344 233.335938 183.398438 233.367188 183.523438 C 233.390625 183.613281 233.46875 183.703125 233.394531 183.804688 C 233.242188 183.765625 233.042969 183.871094 232.945312 183.757812 C 232.851562 183.648438 232.851562 183.460938 232.808594 183.308594 C 232.792969 183.257812 232.773438 183.207031 232.753906 183.152344 C 232.742188 183.144531 232.714844 183.128906 232.710938 183.132812 C 232.691406 183.152344 232.699219 183.175781 232.714844 183.199219 C 232.738281 183.347656 232.757812 183.5 232.777344 183.648438 C 232.785156 183.683594 232.800781 183.738281 232.785156 183.75 C 232.648438 183.859375 232.488281 183.769531 232.335938 183.796875 C 232.257812 183.808594 232.226562 183.773438 232.226562 183.691406 C 232.21875 183.515625 232.207031 183.335938 232.199219 183.15625 C 232.179688 183.15625 232.160156 183.15625 232.140625 183.15625 C 232.140625 183.324219 232.132812 183.492188 232.144531 183.660156 C 232.152344 183.839844 232.035156 183.792969 231.9375 183.796875 C 231.828125 183.804688 231.765625 183.78125 231.785156 183.652344 C 231.800781 183.566406 231.796875 183.476562 231.804688 183.347656 C 231.699219 183.449219 231.703125 183.542969 231.699219 183.621094 C 231.691406 183.769531 231.625 183.796875 231.488281 183.796875 C 231.101562 183.789062 231.101562 183.796875 231.183594 183.429688 C 231.191406 183.378906 231.199219 183.332031 231.207031 183.285156 C 231.207031 183.28125 231.199219 183.273438 231.167969 183.234375 C 231.117188 183.390625 231.0625 183.519531 231.03125 183.65625 C 231.003906 183.769531 230.953125 183.800781 230.84375 183.792969 C 230.628906 183.785156 230.414062 183.792969 230.191406 183.792969 C 230.222656 183.558594 230.332031 183.355469 230.382812 183.132812 C 230.304688 183.117188 230.285156 183.160156 230.269531 183.207031 C 230.238281 183.304688 230.203125 183.402344 230.167969 183.5 C 230.054688 183.820312 230.054688 183.820312 229.695312 183.769531 C 229.71875 183.6875 229.738281 183.609375 229.761719 183.53125 C 229.765625 183.515625 229.769531 183.5 229.773438 183.480469 C 229.832031 183.371094 229.890625 183.261719 229.871094 183.121094 C 229.824219 183.226562 229.78125 183.328125 229.738281 183.429688 C 229.730469 183.453125 229.71875 183.476562 229.710938 183.496094 C 229.644531 183.75 229.480469 183.835938 229.230469 183.792969 C 229.121094 183.777344 229.007812 183.785156 228.902344 183.796875 C 228.773438 183.8125 228.765625 183.753906 228.800781 183.660156 C 228.808594 183.625 228.855469 183.578125 228.8125 183.554688 C 228.757812 183.519531 228.761719 183.589844 228.746094 183.617188 C 228.671875 183.773438 228.492188 183.855469 228.351562 183.792969 C 228.246094 183.742188 228.359375 183.675781 228.34375 183.617188 C 228.371094 183.546875 228.398438 183.476562 228.425781 183.410156 C 228.433594 183.382812 228.445312 183.351562 228.457031 183.324219 C 228.46875 183.292969 228.476562 183.261719 228.488281 183.230469 C 228.519531 183.203125 228.546875 183.160156 228.503906 183.136719 C 228.476562 183.121094 228.457031 183.167969 228.445312 183.199219 C 228.433594 183.230469 228.421875 183.257812 228.414062 183.285156 C 228.402344 183.316406 228.390625 183.34375 228.378906 183.375 C 228.347656 183.441406 228.316406 183.507812 228.289062 183.578125 C 228.242188 183.757812 228.136719 183.824219 227.945312 183.800781 C 227.78125 183.777344 227.613281 183.789062 227.445312 183.796875 C 227.347656 183.800781 227.34375 183.757812 227.371094 183.6875 C 227.453125 183.507812 227.53125 183.328125 227.609375 183.148438 C 227.597656 183.140625 227.582031 183.136719 227.570312 183.128906 C 227.484375 183.3125 227.402344 183.496094 227.316406 183.679688 C 227.277344 183.757812 227.230469 183.824219 227.125 183.800781 C 226.933594 183.761719 226.742188 183.800781 226.550781 183.800781 C 226.417969 183.800781 226.40625 183.761719 226.46875 183.660156 C 226.535156 183.550781 226.585938 183.4375 226.648438 183.332031 C 226.730469 183.199219 226.835938 183.074219 226.660156 182.933594 C 226.628906 182.90625 226.636719 182.828125 226.636719 182.773438 C 226.640625 182.453125 226.644531 182.132812 226.648438 181.8125 C 226.65625 181.523438 226.78125 181.394531 227.074219 181.394531 C 227.824219 181.390625 228.578125 181.386719 229.328125 181.398438 C 229.46875 181.398438 229.523438 181.355469 229.550781 181.226562 C 229.582031 181.070312 229.632812 180.917969 229.667969 180.761719 C 229.710938 180.570312 229.828125 180.480469 230.023438 180.484375 C 230.09375 180.484375 230.164062 180.476562 230.234375 180.484375 C 230.382812 180.503906 230.441406 180.46875 230.449219 180.292969 C 230.457031 180.074219 230.390625 180.03125 230.1875 180.042969 C 229.832031 180.0625 229.476562 180.046875 229.121094 180.046875 C 228.660156 180.042969 228.394531 179.785156 228.394531 179.328125 C 228.394531 178.554688 228.398438 177.78125 228.398438 177.011719 C 228.402344 176.851562 228.417969 176.703125 228.550781 176.597656 C 228.589844 176.566406 228.589844 176.527344 228.597656 176.488281 C 228.695312 175.859375 228.78125 175.226562 228.894531 174.601562 C 229.042969 173.757812 229.210938 172.914062 229.375 172.070312 C 229.445312 171.695312 229.511719 171.320312 229.601562 170.949219 C 229.835938 169.941406 230.644531 169.234375 231.675781 169.113281 C 234.152344 168.820312 236.628906 168.523438 239.105469 168.230469 C 239.570312 168.175781 240.03125 168.113281 240.492188 168.0625 C 240.597656 168.050781 240.648438 168.003906 240.691406 167.914062 C 240.84375 167.554688 241.007812 167.203125 241.15625 166.84375 C 241.242188 166.648438 241.367188 166.535156 241.589844 166.515625 C 242.011719 166.472656 242.429688 166.402344 242.851562 166.355469 C 242.96875 166.339844 243.03125 166.324219 243.03125 166.171875 C 243.023438 165.574219 243.035156 165.566406 243.628906 165.566406 C 244.53125 165.566406 245.4375 165.566406 246.339844 165.566406 C 246.660156 165.566406 246.761719 165.667969 246.765625 165.992188 C 246.769531 166.347656 246.769531 166.347656 247.132812 166.347656 C 247.570312 166.351562 248.007812 166.355469 248.445312 166.351562 C 248.660156 166.347656 248.804688 166.429688 248.898438 166.621094 C 248.914062 166.652344 248.933594 166.679688 248.945312 166.710938 C 249.0625 167.011719 249.1875 167.195312 249.597656 167.105469 C 249.957031 167.023438 250.335938 167.15625 250.539062 167.53125 C 250.582031 167.613281 250.621094 167.578125 250.667969 167.558594 C 251.003906 167.414062 251.355469 167.332031 251.714844 167.289062 C 251.796875 167.277344 251.835938 167.25 251.871094 167.179688 C 253.398438 164.042969 254.933594 160.90625 256.464844 157.769531 C 256.46875 157.757812 256.464844 157.742188 256.464844 157.710938 C 256.25 157.765625 256.046875 157.816406 255.839844 157.871094 C 255.417969 157.980469 255.03125 157.761719 254.933594 157.359375 C 254.828125 156.917969 255.066406 156.523438 255.503906 156.425781 C 256.621094 156.171875 257.738281 155.925781 258.851562 155.65625 C 259.300781 155.546875 259.730469 155.375 260.195312 155.308594 C 260.886719 155.210938 261.28125 155.660156 261.167969 156.34375 C 261.113281 156.675781 261.078125 157 260.953125 157.316406 C 260.582031 158.273438 259.90625 158.921875 258.964844 159.304688 C 258.582031 159.457031 258.195312 159.585938 257.800781 159.695312 C 257.714844 159.71875 257.644531 159.746094 257.597656 159.84375 C 256.300781 162.5 255.003906 165.15625 253.699219 167.8125 C 253.628906 167.957031 253.632812 168.054688 253.710938 168.203125 C 253.960938 168.660156 254.054688 169.167969 254.085938 169.683594 C 254.152344 170.789062 254.015625 171.863281 253.554688 172.882812 C 253.382812 173.265625 253.167969 173.621094 252.84375 173.898438 C 252.660156 174.050781 252.457031 174.171875 252.222656 174.226562 C 252.085938 174.257812 252.113281 174.335938 252.109375 174.425781 C 252.105469 174.542969 252.183594 174.535156 252.261719 174.542969 C 252.335938 174.550781 252.410156 174.5625 252.488281 174.578125 C 253.039062 174.671875 253.261719 174.960938 253.214844 175.523438 C 253.203125 175.660156 253.179688 175.796875 253.15625 175.933594 C 253.070312 176.464844 252.765625 176.816406 252.269531 176.996094 C 252.128906 177.050781 252.101562 177.117188 252.101562 177.253906 C 252.109375 178.023438 252.105469 178.796875 252.105469 179.566406 C 252.105469 180.078125 251.9375 180.507812 251.527344 180.824219 C 251.410156 180.914062 251.472656 181.015625 251.480469 181.109375 C 251.488281 181.222656 251.589844 181.144531 251.648438 181.15625 C 251.6875 181.164062 251.730469 181.152344 251.773438 181.15625 C 252.277344 181.160156 252.328125 181.199219 252.480469 181.675781 C 252.496094 181.722656 252.492188 181.789062 252.566406 181.8125 C 252.605469 181.683594 252.582031 181.550781 252.585938 181.421875 C 252.59375 181.148438 252.695312 181.039062 252.960938 181.035156 C 253.460938 181.035156 253.960938 181.035156 254.460938 181.039062 C 254.703125 181.042969 254.8125 181.160156 254.816406 181.40625 C 254.816406 181.496094 254.816406 181.585938 254.816406 181.675781 C 254.820312 181.851562 254.761719 182.054688 255.078125 182.019531 C 255.214844 182.007812 255.304688 182.152344 255.304688 182.296875 C 255.3125 182.570312 255.316406 182.839844 255.308594 183.113281 C 255.300781 183.328125 255.175781 183.433594 254.933594 183.429688 C 253.972656 183.429688 253.011719 183.425781 252.054688 183.421875 C 251.761719 183.421875 251.46875 183.414062 251.175781 183.425781 C 250.960938 183.433594 250.816406 183.351562 250.742188 183.128906 C 250.40625 183.4375 250.027344 183.660156 249.585938 183.769531 C 248.222656 184.105469 246.855469 183.265625 246.539062 181.902344 C 246.527344 181.855469 246.511719 181.808594 246.5 181.761719 C 246.488281 181.539062 246.460938 181.316406 246.5 181.097656 C 246.515625 181.011719 246.480469 180.988281 246.398438 180.992188 C 246.023438 180.996094 245.648438 180.996094 245.273438 180.996094 C 245.09375 180.992188 245.179688 181.125 245.167969 181.203125 C 245.152344 181.285156 245.148438 181.363281 245.285156 181.355469 C 245.519531 181.347656 245.757812 181.355469 245.992188 181.355469 C 246.328125 181.355469 246.402344 181.425781 246.4375 181.761719 Z M 228.855469 183.480469 C 228.90625 183.363281 228.957031 183.25 229.007812 183.136719 C 228.875 183.199219 228.863281 183.324219 228.820312 183.429688 C 228.808594 183.460938 228.773438 183.492188 228.8125 183.515625 C 228.839844 183.535156 228.855469 183.507812 228.855469 183.480469 Z M 239.136719 176.503906 C 239.136719 176.5 239.136719 176.5 239.136719 176.5 C 241.617188 176.5 244.101562 176.496094 246.582031 176.503906 C 246.730469 176.503906 246.828125 176.457031 246.921875 176.351562 C 247.617188 175.570312 248.320312 174.800781 249.011719 174.019531 C 249.148438 173.863281 249.300781 173.78125 249.503906 173.75 C 250.125 173.660156 250.738281 173.554688 251.359375 173.460938 C 251.472656 173.445312 251.507812 173.414062 251.507812 173.296875 C 251.503906 172.171875 251.515625 171.042969 251.503906 169.917969 C 251.496094 169.3125 251.109375 168.851562 250.527344 168.691406 C 250.34375 168.644531 250.15625 168.632812 249.96875 168.632812 C 249.160156 168.632812 248.355469 168.636719 247.546875 168.628906 C 247.40625 168.628906 247.320312 168.675781 247.234375 168.78125 C 246.570312 169.601562 245.898438 170.417969 245.226562 171.234375 C 245.148438 171.335938 245.070312 171.414062 244.925781 171.421875 C 242.765625 171.566406 240.609375 171.71875 238.453125 171.863281 C 236.433594 172 234.414062 172.128906 232.394531 172.257812 C 232.265625 172.265625 232.207031 172.296875 232.183594 172.441406 C 231.960938 173.734375 231.730469 175.027344 231.496094 176.320312 C 231.46875 176.464844 231.480469 176.507812 231.644531 176.507812 C 234.140625 176.5 236.636719 176.503906 239.136719 176.503906 Z M 251.492188 174.050781 C 250.867188 174.15625 250.246094 174.261719 249.621094 174.359375 C 249.539062 174.371094 249.484375 174.40625 249.429688 174.464844 C 248.753906 175.222656 248.066406 175.96875 247.40625 176.738281 C 247.183594 177 246.949219 177.109375 246.601562 177.109375 C 241.546875 177.101562 236.492188 177.105469 231.4375 177.101562 C 231.269531 177.101562 231.246094 177.15625 231.246094 177.300781 C 231.253906 177.945312 231.257812 178.59375 231.246094 179.238281 C 231.246094 179.414062 231.308594 179.4375 231.457031 179.4375 C 233.703125 179.433594 235.949219 179.441406 238.195312 179.441406 C 238.351562 179.441406 238.476562 179.484375 238.589844 179.597656 C 238.816406 179.828125 239.054688 180.054688 239.285156 180.285156 C 239.359375 180.363281 239.433594 180.386719 239.539062 180.386719 C 241.710938 180.382812 243.878906 180.378906 246.050781 180.390625 C 246.292969 180.390625 246.402344 180.320312 246.515625 180.105469 C 247.007812 179.171875 247.777344 178.605469 248.84375 178.550781 C 249.933594 178.496094 250.753906 178.988281 251.320312 179.910156 C 251.34375 179.949219 251.347656 180.011719 251.417969 180.003906 C 251.523438 179.742188 251.585938 174.855469 251.492188 174.050781 Z M 232.292969 171.824219 C 233.886719 171.722656 235.457031 171.628906 237.023438 171.523438 C 239.589844 171.351562 242.15625 171.167969 244.722656 170.996094 C 244.832031 170.988281 244.898438 170.957031 244.964844 170.871094 C 245.351562 170.386719 245.742188 169.910156 246.136719 169.429688 C 246.34375 169.175781 246.554688 168.921875 246.789062 168.632812 C 246.691406 168.632812 246.632812 168.632812 246.570312 168.632812 C 244.679688 168.628906 242.789062 168.625 240.894531 168.625 C 240.839844 168.625 240.785156 168.625 240.730469 168.632812 C 238.632812 168.890625 236.539062 169.160156 234.4375 169.40625 C 233.535156 169.511719 232.894531 169.941406 232.527344 170.773438 C 232.382812 171.101562 232.351562 171.457031 232.292969 171.824219 Z M 252.097656 169.664062 C 252.152344 169.554688 252.1875 169.492188 252.21875 169.425781 C 252.785156 168.277344 253.351562 167.132812 253.910156 165.988281 C 255.378906 162.980469 256.84375 159.972656 258.296875 156.960938 C 258.425781 156.695312 258.5625 156.503906 258.871094 156.476562 C 258.929688 156.46875 259.019531 156.484375 258.996094 156.363281 C 258.96875 156.238281 258.902344 156.277344 258.824219 156.296875 C 257.785156 156.535156 256.742188 156.773438 255.699219 157.011719 C 255.613281 157.03125 255.484375 157.027344 255.519531 157.175781 C 255.554688 157.328125 255.667969 157.269531 255.753906 157.246094 C 256.160156 157.152344 256.566406 157.054688 256.96875 156.949219 C 257.101562 156.914062 257.199219 156.953125 257.285156 157.046875 C 257.371094 157.144531 257.386719 157.257812 257.335938 157.378906 C 257.320312 157.421875 257.296875 157.464844 257.277344 157.507812 C 256.179688 159.753906 255.082031 162 253.984375 164.246094 C 253.265625 165.714844 252.542969 167.1875 251.824219 168.65625 C 251.789062 168.722656 251.722656 168.785156 251.789062 168.882812 C 251.945312 169.101562 252.019531 169.355469 252.097656 169.664062 Z M 249.011719 179.414062 C 247.960938 179.40625 247.109375 180.261719 247.097656 181.34375 C 247.089844 182.375 247.917969 183.21875 248.949219 183.230469 C 250.011719 183.242188 250.863281 182.390625 250.867188 181.3125 C 250.871094 180.253906 250.058594 179.421875 249.011719 179.414062 Z M 245.890625 168.023438 C 246.84375 168.023438 247.796875 168.023438 248.746094 168.027344 C 248.882812 168.027344 248.925781 168.007812 248.851562 167.871094 C 248.714844 167.613281 248.585938 167.351562 248.460938 167.089844 C 248.414062 166.988281 248.355469 166.953125 248.242188 166.953125 C 246.609375 166.953125 244.976562 166.949219 243.34375 166.941406 C 243.230469 166.941406 243.183594 166.972656 243.160156 167.082031 C 243.097656 167.335938 243.03125 167.59375 242.945312 167.84375 C 242.894531 167.992188 242.917969 168.027344 243.078125 168.023438 C 244.015625 168.019531 244.953125 168.023438 245.890625 168.023438 Z M 232.335938 182.503906 C 233.96875 182.503906 235.601562 182.503906 237.234375 182.503906 C 237.269531 182.503906 237.304688 182.5 237.339844 182.503906 C 237.421875 182.511719 237.453125 182.480469 237.445312 182.398438 C 237.441406 182.328125 237.4375 182.257812 237.445312 182.1875 C 237.464844 182.039062 237.40625 182.007812 237.261719 182.007812 C 234.015625 182.011719 230.765625 182.011719 227.519531 182.011719 C 227.472656 182.011719 227.421875 182.015625 227.375 182.011719 C 227.28125 182 227.25 182.039062 227.257812 182.128906 C 227.261719 182.191406 227.269531 182.257812 227.253906 182.316406 C 227.214844 182.480469 227.277344 182.507812 227.433594 182.507812 C 229.066406 182.503906 230.699219 182.503906 232.335938 182.503906 Z M 230.125 176.503906 C 230.214844 176.503906 230.304688 176.503906 230.394531 176.5 C 230.59375 176.5 230.847656 176.570312 230.984375 176.476562 C 231.132812 176.371094 231.085938 176.09375 231.125 175.890625 C 231.332031 174.753906 231.53125 173.609375 231.738281 172.46875 C 231.761719 172.34375 231.75 172.300781 231.605469 172.3125 C 231.09375 172.359375 230.578125 172.390625 230.066406 172.425781 C 229.96875 172.429688 229.917969 172.457031 229.898438 172.5625 C 229.84375 172.863281 229.785156 173.164062 229.714844 173.460938 C 229.679688 173.59375 229.738281 173.589844 229.835938 173.585938 C 230.0625 173.582031 230.292969 173.578125 230.523438 173.574219 C 230.835938 173.570312 230.972656 173.714844 230.933594 174.027344 C 230.867188 174.53125 230.792969 175.03125 230.71875 175.53125 C 230.6875 175.722656 230.566406 175.824219 230.375 175.828125 C 230.1875 175.835938 230 175.832031 229.8125 175.835938 C 229.285156 175.84375 229.285156 175.84375 229.230469 176.367188 C 229.230469 176.375 229.230469 176.378906 229.230469 176.386719 C 229.207031 176.476562 229.234375 176.507812 229.332031 176.503906 C 229.59375 176.5 229.859375 176.503906 230.125 176.503906 Z M 230.929688 178.277344 C 230.925781 178.277344 230.921875 178.277344 230.921875 178.277344 C 230.921875 177.941406 230.914062 177.609375 230.921875 177.273438 C 230.925781 177.136719 230.886719 177.097656 230.75 177.101562 C 230.222656 177.117188 229.691406 177.121094 229.164062 177.117188 C 229.019531 177.113281 228.996094 177.164062 229 177.292969 C 229.003906 177.953125 229.007812 178.613281 229.003906 179.273438 C 229.003906 179.402344 229.042969 179.4375 229.167969 179.4375 C 229.710938 179.433594 230.253906 179.433594 230.792969 179.4375 C 230.902344 179.4375 230.933594 179.410156 230.929688 179.296875 C 230.921875 178.957031 230.929688 178.617188 230.929688 178.277344 Z M 232.808594 169.613281 C 232.308594 169.675781 231.804688 169.652344 231.332031 169.824219 C 230.742188 170.039062 230.351562 170.445312 230.195312 171.058594 C 230.128906 171.320312 230.085938 171.589844 230.03125 171.855469 C 230.011719 171.945312 230.011719 171.992188 230.136719 171.980469 C 230.65625 171.9375 231.175781 171.902344 231.695312 171.871094 C 231.808594 171.863281 231.84375 171.824219 231.863281 171.714844 C 231.917969 171.371094 231.957031 171.023438 232.082031 170.695312 C 232.238281 170.28125 232.492188 169.933594 232.808594 169.613281 Z M 242.625 181.96875 C 242.625 181.96875 242.625 181.96875 242.625 181.964844 C 242.25 181.964844 241.875 181.964844 241.5 181.964844 C 240.859375 181.964844 240.222656 181.96875 239.582031 181.964844 C 239.449219 181.960938 239.386719 181.996094 239.410156 182.136719 C 239.417969 182.183594 239.421875 182.234375 239.414062 182.28125 C 239.382812 182.453125 239.4375 182.511719 239.628906 182.507812 C 241.574219 182.5 243.519531 182.503906 245.464844 182.503906 C 245.828125 182.503906 245.820312 182.507812 245.828125 182.152344 C 245.835938 181.980469 245.769531 181.964844 245.625 181.964844 C 244.625 181.972656 243.625 181.96875 242.625 181.96875 Z M 253.269531 168.6875 C 253.007812 169.21875 252.773438 169.707031 252.527344 170.1875 C 252.472656 170.296875 252.542969 170.335938 252.597656 170.390625 C 253.1875 170.992188 252.996094 171.984375 252.222656 172.316406 C 252.128906 172.355469 252.101562 172.394531 252.101562 172.496094 C 252.109375 172.8125 252.113281 173.132812 252.105469 173.453125 C 252.101562 173.617188 252.160156 173.609375 252.269531 173.542969 C 252.585938 173.359375 252.769531 173.066406 252.929688 172.753906 C 253.242188 172.140625 253.398438 171.476562 253.464844 170.796875 C 253.53125 170.101562 253.507812 169.414062 253.269531 168.6875 Z M 258.019531 158.964844 C 259.171875 158.65625 260.074219 158.097656 260.449219 156.898438 C 260.398438 156.910156 260.367188 156.917969 260.335938 156.921875 C 260.039062 156.972656 259.753906 157.105469 259.441406 156.960938 C 259.335938 156.910156 258.929688 157.089844 258.886719 157.171875 C 258.601562 157.761719 258.316406 158.355469 258.019531 158.964844 Z M 232.445312 181.097656 C 231.742188 181.097656 231.039062 181.105469 230.335938 181.09375 C 230.148438 181.089844 230.15625 181.226562 230.152344 181.324219 C 230.144531 181.449219 230.265625 181.386719 230.324219 181.386719 C 231.527344 181.390625 232.726562 181.390625 233.929688 181.394531 C 234.160156 181.394531 234.390625 181.390625 234.617188 181.398438 C 234.726562 181.398438 234.738281 181.367188 234.722656 181.265625 C 234.703125 181.125 234.644531 181.09375 234.507812 181.097656 C 233.820312 181.105469 233.132812 181.097656 232.445312 181.097656 Z M 242.953125 181.355469 C 242.953125 181.355469 242.953125 181.351562 242.953125 181.351562 C 243.433594 181.351562 243.910156 181.34375 244.390625 181.355469 C 244.546875 181.359375 244.550781 181.292969 244.554688 181.175781 C 244.554688 181.058594 244.550781 180.992188 244.394531 180.992188 C 243.445312 181 242.492188 180.996094 241.539062 180.988281 C 241.40625 180.988281 241.359375 181.019531 241.371094 181.160156 C 241.378906 181.277344 241.363281 181.367188 241.535156 181.359375 C 242.007812 181.347656 242.480469 181.355469 242.953125 181.355469 Z M 242.722656 166.980469 C 242.394531 167.023438 242.09375 167.070312 241.789062 167.105469 C 241.714844 167.113281 241.6875 167.15625 241.660156 167.214844 C 241.5625 167.445312 241.460938 167.675781 241.355469 167.902344 C 241.316406 167.984375 241.316406 168.023438 241.429688 168.023438 C 241.726562 168.015625 242.027344 168.019531 242.328125 168.023438 C 242.410156 168.023438 242.445312 168 242.46875 167.914062 C 242.542969 167.613281 242.632812 167.3125 242.722656 166.980469 Z M 231.9375 180.476562 C 231.9375 180.472656 231.9375 180.472656 231.9375 180.472656 C 232.1875 180.472656 232.441406 180.460938 232.6875 180.476562 C 232.894531 180.488281 232.820312 180.347656 232.820312 180.257812 C 232.824219 180.160156 232.882812 180.035156 232.683594 180.039062 C 232.238281 180.050781 231.792969 180.042969 231.351562 180.042969 C 231.0625 180.042969 231.074219 180.046875 231.0625 180.324219 C 231.058594 180.464844 231.113281 180.480469 231.230469 180.476562 C 231.46875 180.46875 231.703125 180.476562 231.9375 180.476562 Z M 253.027344 182.804688 C 253.027344 182.808594 253.027344 182.808594 253.027344 182.8125 C 253.53125 182.8125 254.039062 182.8125 254.546875 182.8125 C 254.613281 182.8125 254.703125 182.84375 254.699219 182.714844 C 254.695312 182.597656 254.617188 182.625 254.554688 182.625 C 253.535156 182.625 252.515625 182.625 251.496094 182.625 C 251.4375 182.625 251.351562 182.585938 251.347656 182.710938 C 251.347656 182.84375 251.441406 182.804688 251.507812 182.804688 C 252.011719 182.808594 252.519531 182.804688 253.027344 182.804688 Z M 244.878906 166.347656 C 244.878906 166.34375 244.878906 166.34375 244.878906 166.34375 C 245.253906 166.34375 245.628906 166.34375 246.003906 166.339844 C 246.066406 166.339844 246.152344 166.375 246.148438 166.253906 C 246.144531 166.152344 246.070312 166.179688 246.011719 166.179688 C 245.277344 166.175781 244.539062 166.171875 243.800781 166.171875 C 243.742188 166.171875 243.65625 166.136719 243.65625 166.257812 C 243.652344 166.394531 243.75 166.34375 243.816406 166.34375 C 244.167969 166.347656 244.523438 166.347656 244.878906 166.347656 Z M 252.101562 176.382812 C 252.492188 176.230469 252.558594 175.917969 252.59375 175.589844 C 252.625 175.238281 252.59375 175.210938 252.25 175.175781 C 252.132812 175.164062 252.097656 175.195312 252.101562 175.316406 C 252.109375 175.660156 252.101562 176.007812 252.101562 176.382812 Z M 236.789062 180.042969 C 236.914062 180.179688 236.929688 180.371094 237.078125 180.378906 C 237.542969 180.394531 238.007812 180.382812 238.535156 180.382812 C 238.34375 180.261719 238.285156 180.054688 238.101562 180.046875 C 237.679688 180.03125 237.261719 180.042969 236.789062 180.042969 Z M 253.683594 182.003906 C 253.683594 182.007812 253.683594 182.007812 253.683594 182.007812 C 253.816406 182.007812 253.949219 182 254.078125 182.011719 C 254.199219 182.019531 254.203125 181.945312 254.1875 181.867188 C 254.171875 181.792969 254.269531 181.652344 254.097656 181.648438 C 253.820312 181.640625 253.546875 181.644531 253.269531 181.644531 C 253.222656 181.644531 253.199219 181.660156 253.1875 181.710938 C 253.136719 181.933594 253.191406 182.007812 253.414062 182.003906 C 253.503906 182.003906 253.59375 182.003906 253.683594 182.003906 Z M 260.582031 156.097656 C 260.574219 155.941406 260.523438 155.878906 260.382812 155.910156 C 260.171875 155.953125 259.960938 155.988281 259.75 156.027344 C 259.652344 156.042969 259.542969 156.050781 259.578125 156.195312 C 259.609375 156.324219 259.664062 156.433594 259.832031 156.390625 C 260.035156 156.339844 260.234375 156.292969 260.4375 156.242188 C 260.527344 156.222656 260.589844 156.175781 260.582031 156.097656 Z M 230.167969 174.933594 C 229.886719 174.933594 229.609375 174.933594 229.332031 174.933594 C 229.164062 174.933594 229.234375 175.066406 229.214844 175.144531 C 229.183594 175.269531 229.285156 175.210938 229.332031 175.214844 C 229.511719 175.214844 229.695312 175.191406 229.871094 175.210938 C 230.085938 175.234375 230.199219 175.171875 230.167969 174.933594 Z M 229.832031 174.203125 C 229.832031 174.207031 229.832031 174.207031 229.832031 174.210938 C 229.699219 174.210938 229.570312 174.210938 229.4375 174.210938 C 229.277344 174.210938 229.335938 174.34375 229.3125 174.421875 C 229.289062 174.53125 229.375 174.503906 229.433594 174.503906 C 229.652344 174.503906 229.875 174.484375 230.097656 174.5 C 230.269531 174.511719 230.265625 174.40625 230.273438 174.292969 C 230.285156 174.128906 230.164062 174.21875 230.101562 174.207031 C 230.011719 174.195312 229.921875 174.203125 229.832031 174.203125 Z M 249.855469 168 C 249.871094 167.988281 250.015625 168.101562 250.007812 167.914062 C 249.996094 167.710938 249.847656 167.699219 249.699219 167.699219 C 249.617188 167.695312 249.472656 167.691406 249.488281 167.792969 C 249.511719 167.941406 249.601562 168.082031 249.855469 168 Z M 252.234375 170.886719 C 252.078125 171.113281 252.0625 171.210938 252.121094 171.636719 C 252.367188 171.4375 252.40625 171.1875 252.234375 170.886719 Z M 250.890625 168.164062 C 251.03125 168.203125 251.152344 168.347656 251.261719 168.328125 C 251.375 168.3125 251.398438 168.117188 251.460938 168 C 251.464844 167.996094 251.457031 167.988281 251.449219 167.96875 C 251.261719 168.007812 251.074219 168.066406 250.890625 168.164062 Z M 251.71875 181.945312 C 251.714844 181.972656 251.738281 182.023438 251.835938 182.007812 C 251.886719 182.003906 251.941406 182.003906 251.921875 181.929688 C 251.902344 181.863281 251.90625 181.773438 251.792969 181.773438 C 251.703125 181.773438 251.726562 181.835938 251.71875 181.945312 Z M 231.777344 183.117188 C 231.785156 183.214844 231.730469 183.277344 231.796875 183.382812 C 231.808594 183.28125 231.835938 183.21875 231.777344 183.117188 Z M 231.226562 183.195312 C 231.242188 183.15625 231.222656 183.148438 231.203125 183.140625 C 231.199219 183.140625 231.183594 183.164062 231.183594 183.171875 C 231.183594 183.1875 231.191406 183.207031 231.195312 183.222656 C 231.210938 183.210938 231.222656 183.199219 231.226562 183.195312 Z M 231.226562 183.195312 " fill-opacity="1" fill-rule="evenodd"/></g><path fill="#ffffff" d="M 250.132812 181.316406 C 250.132812 181.953125 249.617188 182.46875 248.980469 182.46875 C 248.351562 182.46875 247.84375 181.960938 247.847656 181.328125 C 247.847656 180.691406 248.363281 180.164062 248.988281 180.164062 C 249.632812 180.164062 250.136719 180.667969 250.132812 181.316406 Z M 249.515625 181.320312 C 249.519531 181.023438 249.292969 180.78125 249.007812 180.769531 C 248.714844 180.761719 248.46875 181.003906 248.460938 181.304688 C 248.453125 181.609375 248.671875 181.84375 248.96875 181.847656 C 249.273438 181.855469 249.515625 181.625 249.515625 181.320312 Z M 249.515625 181.320312 " fill-opacity="1" fill-rule="evenodd"/><g transform="matrix(1, 0, 0, 1, 63, 198)"><g clip-path="url(#e7aa4c2a7b)"><g fill="#ffffff" fill-opacity="1"><g transform="translate(1.244188, 31.97082)"><g><path d="M 11.5625 0.40625 C 9.488281 0.40625 7.5625 0.117188 5.78125 -0.453125 C 4 -1.035156 2.597656 -1.707031 1.578125 -2.46875 L 1.421875 -8.53125 L 1.9375 -8.609375 C 2.507812 -7.078125 3.285156 -5.695312 4.265625 -4.46875 C 5.242188 -3.238281 6.429688 -2.257812 7.828125 -1.53125 C 9.234375 -0.800781 10.828125 -0.4375 12.609375 -0.4375 C 13.554688 -0.4375 14.429688 -0.628906 15.234375 -1.015625 C 16.046875 -1.410156 16.707031 -1.984375 17.21875 -2.734375 C 17.726562 -3.492188 17.984375 -4.425781 17.984375 -5.53125 C 17.984375 -6.53125 17.703125 -7.398438 17.140625 -8.140625 C 16.578125 -8.878906 15.851562 -9.523438 14.96875 -10.078125 C 14.09375 -10.628906 13.171875 -11.113281 12.203125 -11.53125 C 11.234375 -11.957031 10.347656 -12.332031 9.546875 -12.65625 C 8.171875 -13.25 6.898438 -13.835938 5.734375 -14.421875 C 4.578125 -15.015625 3.648438 -15.773438 2.953125 -16.703125 C 2.253906 -17.640625 1.90625 -18.890625 1.90625 -20.453125 C 1.90625 -22.960938 2.835938 -24.941406 4.703125 -26.390625 C 6.578125 -27.847656 9.101562 -28.578125 12.28125 -28.578125 C 13.789062 -28.578125 15.195312 -28.425781 16.5 -28.125 C 17.8125 -27.832031 18.992188 -27.414062 20.046875 -26.875 L 20.21875 -21.625 L 19.765625 -21.46875 C 18.929688 -23.539062 17.710938 -25.128906 16.109375 -26.234375 C 14.503906 -27.335938 12.71875 -27.890625 10.75 -27.890625 C 9.132812 -27.890625 7.765625 -27.4375 6.640625 -26.53125 C 5.523438 -25.632812 4.96875 -24.390625 4.96875 -22.796875 C 4.96875 -21.910156 5.191406 -21.132812 5.640625 -20.46875 C 6.085938 -19.8125 6.679688 -19.238281 7.421875 -18.75 C 8.160156 -18.269531 8.953125 -17.847656 9.796875 -17.484375 C 10.648438 -17.117188 11.476562 -16.773438 12.28125 -16.453125 C 13.3125 -16.046875 14.359375 -15.613281 15.421875 -15.15625 C 16.484375 -14.695312 17.457031 -14.15625 18.34375 -13.53125 C 19.238281 -12.914062 19.953125 -12.175781 20.484375 -11.3125 C 21.023438 -10.457031 21.296875 -9.421875 21.296875 -8.203125 C 21.296875 -6.828125 21.015625 -5.597656 20.453125 -4.515625 C 19.890625 -3.441406 19.132812 -2.539062 18.1875 -1.8125 C 17.25 -1.09375 16.195312 -0.539062 15.03125 -0.15625 C 13.875 0.21875 12.71875 0.40625 11.5625 0.40625 Z M 11.5625 0.40625 "/></g></g></g><g fill="#ffffff" fill-opacity="1"><g transform="translate(25.73471, 31.97082)"><g><path d="M 1.125 0 L 1.125 -0.5625 C 1.800781 -0.78125 2.238281 -1.234375 2.4375 -1.921875 C 2.644531 -2.609375 2.75 -3.679688 2.75 -5.140625 L 2.75 -14.4375 C 2.75 -15.613281 2.609375 -16.390625 2.328125 -16.765625 C 2.046875 -17.148438 1.644531 -17.453125 1.125 -17.671875 L 1.125 -18.234375 L 6.46875 -20.578125 L 6.875 -20.25 L 6.875 -5.140625 C 6.875 -3.679688 6.972656 -2.609375 7.171875 -1.921875 C 7.378906 -1.234375 7.816406 -0.78125 8.484375 -0.5625 L 8.484375 0 Z M 1.8125 -24.703125 C 1.8125 -25.484375 2.082031 -26.140625 2.625 -26.671875 C 3.164062 -27.210938 3.8125 -27.484375 4.5625 -27.484375 C 5.375 -27.484375 6.035156 -27.210938 6.546875 -26.671875 C 7.054688 -26.140625 7.3125 -25.484375 7.3125 -24.703125 C 7.3125 -23.941406 7.046875 -23.289062 6.515625 -22.75 C 5.992188 -22.21875 5.34375 -21.953125 4.5625 -21.953125 C 3.8125 -21.953125 3.164062 -22.21875 2.625 -22.75 C 2.082031 -23.289062 1.8125 -23.941406 1.8125 -24.703125 Z M 1.8125 -24.703125 "/></g></g></g><g fill="#ffffff" fill-opacity="1"><g transform="translate(37.576248, 31.97082)"><g><path d="M 12.09375 0 L 12.09375 -0.5625 C 12.757812 -0.78125 12.925781 -1.148438 12.59375 -1.671875 C 12.257812 -2.203125 11.6875 -3.070312 10.875 -4.28125 L 7.765625 -9.015625 L 4.203125 -4.125 C 3.640625 -3.34375 3.210938 -2.710938 2.921875 -2.234375 C 2.640625 -1.765625 2.613281 -1.410156 2.84375 -1.171875 C 3.070312 -0.929688 3.644531 -0.726562 4.5625 -0.5625 L 4.5625 0 L -0.765625 0 L -0.765625 -0.5625 C -0.171875 -0.78125 0.457031 -1.140625 1.125 -1.640625 C 1.800781 -2.140625 2.570312 -2.96875 3.4375 -4.125 L 7.390625 -9.546875 L 3.1875 -15.921875 C 2.382812 -17.140625 1.675781 -18.015625 1.0625 -18.546875 C 0.457031 -19.085938 -0.0703125 -19.453125 -0.53125 -19.640625 L -0.53125 -20.21875 L 6.546875 -20.21875 L 6.546875 -19.640625 C 5.867188 -19.429688 5.695312 -19.0625 6.03125 -18.53125 C 6.375 -18.007812 6.953125 -17.140625 7.765625 -15.921875 L 10.234375 -12.171875 L 12.9375 -16 C 13.5 -16.8125 13.90625 -17.453125 14.15625 -17.921875 C 14.414062 -18.398438 14.4375 -18.769531 14.21875 -19.03125 C 14.007812 -19.300781 13.429688 -19.503906 12.484375 -19.640625 L 12.484375 -20.21875 L 17.78125 -20.21875 L 17.78125 -19.640625 C 17.1875 -19.453125 16.5625 -19.09375 15.90625 -18.5625 C 15.25 -18.039062 14.5 -17.1875 13.65625 -16 L 10.59375 -11.59375 L 15.40625 -4.28125 C 16.207031 -3.070312 16.914062 -2.203125 17.53125 -1.671875 C 18.15625 -1.148438 18.6875 -0.78125 19.125 -0.5625 L 19.125 0 Z M 12.09375 0 "/></g></g></g><g fill="#ffffff" fill-opacity="1"><g transform="translate(58.348855, 31.97082)"><g><path d="M 7.59375 0.40625 C 6.21875 0.40625 5.171875 -0.0625 4.453125 -1 C 3.742188 -1.945312 3.390625 -3.515625 3.390625 -5.703125 L 3.390625 -19.5625 L 0.8125 -19.5625 L 0.8125 -20.21875 L 6.875 -25.546875 L 7.515625 -25.546875 L 7.515625 -20.21875 L 13.78125 -20.21875 L 13.625 -19.5625 L 7.515625 -19.5625 L 7.515625 -5.65625 C 7.515625 -4.414062 7.742188 -3.503906 8.203125 -2.921875 C 8.660156 -2.347656 9.335938 -2.0625 10.234375 -2.0625 C 10.679688 -2.0625 11.222656 -2.1875 11.859375 -2.4375 C 12.492188 -2.695312 13.148438 -3.242188 13.828125 -4.078125 L 14.234375 -3.671875 C 13.148438 -2.429688 12.078125 -1.441406 11.015625 -0.703125 C 9.953125 0.0351562 8.8125 0.40625 7.59375 0.40625 Z M 7.59375 0.40625 "/></g></g></g><g fill="#ffffff" fill-opacity="1"><g transform="translate(74.878191, 31.97082)"><g><path d="M 1.453125 7.796875 C 0.617188 7.828125 -0.078125 7.71875 -0.640625 7.46875 C -1.210938 7.226562 -1.5 6.910156 -1.5 6.515625 C -1.5 6.242188 -1.382812 5.910156 -1.15625 5.515625 C -0.925781 5.128906 -0.582031 4.773438 -0.125 4.453125 C 0.332031 4.128906 0.875 3.96875 1.5 3.96875 C 2.09375 3.96875 2.894531 4.039062 3.90625 4.1875 C 4.914062 4.332031 5.945312 4.5 7 4.6875 C 7.476562 4.144531 7.957031 3.488281 8.4375 2.71875 C 8.925781 1.957031 9.390625 1.117188 9.828125 0.203125 L 3.03125 -15.484375 C 2.46875 -16.828125 1.914062 -17.800781 1.375 -18.40625 C 0.832031 -19.019531 0.332031 -19.429688 -0.125 -19.640625 L -0.125 -20.21875 L 7.03125 -20.21875 L 7.03125 -19.640625 C 6.351562 -19.429688 6.109375 -19.03125 6.296875 -18.4375 C 6.492188 -17.84375 6.890625 -16.867188 7.484375 -15.515625 L 12.09375 -5.015625 L 16.609375 -15.484375 C 17.179688 -16.828125 17.425781 -17.816406 17.34375 -18.453125 C 17.257812 -19.085938 16.867188 -19.484375 16.171875 -19.640625 L 16.171875 -20.21875 L 20.78125 -20.21875 L 20.78125 -19.640625 C 20.1875 -19.429688 19.597656 -19.03125 19.015625 -18.4375 C 18.441406 -17.84375 17.859375 -16.867188 17.265625 -15.515625 L 11.078125 -1.21875 C 10.054688 1.125 9.046875 2.945312 8.046875 4.25 C 7.046875 5.5625 6.003906 6.472656 4.921875 6.984375 C 3.847656 7.503906 2.691406 7.773438 1.453125 7.796875 Z M 1.453125 7.796875 "/></g></g></g><g fill="#ffffff" fill-opacity="1"><g transform="translate(97.428925, 31.97082)"><g><path d="M 23.203125 0.328125 L 4.25 -23.609375 L 4.25 -7.5625 C 4.25 -5.914062 4.351562 -4.617188 4.5625 -3.671875 C 4.78125 -2.734375 5.117188 -2.035156 5.578125 -1.578125 C 6.035156 -1.117188 6.613281 -0.78125 7.3125 -0.5625 L 7.3125 0 L 1.90625 0 L 1.90625 -0.5625 C 2.570312 -0.78125 3.003906 -1.234375 3.203125 -1.921875 C 3.410156 -2.609375 3.515625 -3.679688 3.515625 -5.140625 L 3.515625 -23.15625 C 3.515625 -24.613281 3.378906 -25.6875 3.109375 -26.375 C 2.835938 -27.0625 2.273438 -27.515625 1.421875 -27.734375 L 1.421875 -28.296875 L 5.984375 -28.296875 L 22.953125 -7.03125 L 22.953125 -20.734375 C 22.953125 -22.378906 22.84375 -23.671875 22.625 -24.609375 C 22.414062 -25.554688 22.082031 -26.257812 21.625 -26.71875 C 21.164062 -27.175781 20.585938 -27.515625 19.890625 -27.734375 L 19.890625 -28.296875 L 25.34375 -28.296875 L 25.34375 -27.734375 C 24.664062 -27.515625 24.226562 -27.0625 24.03125 -26.375 C 23.832031 -25.6875 23.734375 -24.613281 23.734375 -23.15625 L 23.734375 0.328125 Z M 23.203125 0.328125 "/></g></g></g><g fill="#ffffff" fill-opacity="1"><g transform="translate(126.324356, 31.97082)"><g><path d="M 10.828125 0.40625 C 9.703125 0.40625 8.578125 0.203125 7.453125 -0.203125 C 6.335938 -0.609375 5.304688 -1.210938 4.359375 -2.015625 C 3.421875 -2.828125 2.664062 -3.835938 2.09375 -5.046875 C 1.53125 -6.265625 1.25 -7.695312 1.25 -9.34375 C 1.25 -11.0625 1.550781 -12.609375 2.15625 -13.984375 C 2.769531 -15.359375 3.585938 -16.53125 4.609375 -17.5 C 5.628906 -18.46875 6.765625 -19.207031 8.015625 -19.71875 C 9.273438 -20.238281 10.566406 -20.5 11.890625 -20.5 C 13.710938 -20.5 15.242188 -20.132812 16.484375 -19.40625 C 17.734375 -18.675781 18.671875 -17.757812 19.296875 -16.65625 C 19.929688 -15.550781 20.25 -14.40625 20.25 -13.21875 L 4.9375 -13.21875 C 4.90625 -13 4.878906 -12.78125 4.859375 -12.5625 C 4.847656 -12.351562 4.84375 -12.140625 4.84375 -11.921875 C 4.84375 -10.171875 5.1875 -8.609375 5.875 -7.234375 C 6.5625 -5.859375 7.53125 -4.785156 8.78125 -4.015625 C 10.039062 -3.253906 11.519531 -2.875 13.21875 -2.875 C 14.726562 -2.875 16.0625 -3.171875 17.21875 -3.765625 C 18.375 -4.359375 19.375 -5.125 20.21875 -6.0625 L 20.578125 -5.65625 C 19.953125 -4.71875 19.179688 -3.78125 18.265625 -2.84375 C 17.347656 -1.914062 16.269531 -1.140625 15.03125 -0.515625 C 13.789062 0.0976562 12.390625 0.40625 10.828125 0.40625 Z M 4.96875 -13.78125 L 16.171875 -13.78125 C 16.003906 -14.882812 15.65625 -15.890625 15.125 -16.796875 C 14.601562 -17.703125 13.957031 -18.421875 13.1875 -18.953125 C 12.425781 -19.492188 11.570312 -19.765625 10.625 -19.765625 C 9.5 -19.796875 8.546875 -19.523438 7.765625 -18.953125 C 6.984375 -18.390625 6.363281 -17.648438 5.90625 -16.734375 C 5.445312 -15.816406 5.132812 -14.832031 4.96875 -13.78125 Z M 4.96875 -13.78125 "/></g></g></g><g fill="#ffffff" fill-opacity="1"><g transform="translate(150.047043, 31.97082)"><g><path d="M 1.8125 -15.28125 C 1.414062 -16.675781 1.046875 -17.703125 0.703125 -18.359375 C 0.367188 -19.023438 -0.0234375 -19.453125 -0.484375 -19.640625 L -0.484375 -20.21875 L 6.421875 -20.21875 L 6.421875 -19.640625 C 5.753906 -19.429688 5.453125 -19 5.515625 -18.34375 C 5.585938 -17.695312 5.8125 -16.675781 6.1875 -15.28125 L 9.25 -4.453125 L 14.671875 -20.21875 L 17.140625 -20.21875 L 22.46875 -4.609375 L 25.671875 -15.28125 C 26.078125 -16.675781 26.179688 -17.710938 25.984375 -18.390625 C 25.796875 -19.066406 25.351562 -19.484375 24.65625 -19.640625 L 24.65625 -20.21875 L 28.984375 -20.21875 L 28.984375 -19.640625 C 28.390625 -19.453125 27.90625 -19.023438 27.53125 -18.359375 C 27.15625 -17.703125 26.765625 -16.675781 26.359375 -15.28125 L 21.75 0 L 19.6875 0 L 14.0625 -16.53125 L 8.328125 0 L 6.265625 0 Z M 1.8125 -15.28125 "/></g></g></g><g fill="#ffffff" fill-opacity="1"><g transform="translate(180.801432, 31.97082)"><g><path d="M 7.59375 0.40625 C 6.21875 0.40625 5.171875 -0.0625 4.453125 -1 C 3.742188 -1.945312 3.390625 -3.515625 3.390625 -5.703125 L 3.390625 -19.5625 L 0.8125 -19.5625 L 0.8125 -20.21875 L 6.875 -25.546875 L 7.515625 -25.546875 L 7.515625 -20.21875 L 13.78125 -20.21875 L 13.625 -19.5625 L 7.515625 -19.5625 L 7.515625 -5.65625 C 7.515625 -4.414062 7.742188 -3.503906 8.203125 -2.921875 C 8.660156 -2.347656 9.335938 -2.0625 10.234375 -2.0625 C 10.679688 -2.0625 11.222656 -2.1875 11.859375 -2.4375 C 12.492188 -2.695312 13.148438 -3.242188 13.828125 -4.078125 L 14.234375 -3.671875 C 13.148438 -2.429688 12.078125 -1.441406 11.015625 -0.703125 C 9.953125 0.0351562 8.8125 0.40625 7.59375 0.40625 Z M 7.59375 0.40625 "/></g></g></g><g fill="#ffffff" fill-opacity="1"><g transform="translate(197.330767, 31.97082)"><g><path d="M 12.046875 0.40625 C 10.722656 0.40625 9.421875 0.210938 8.140625 -0.171875 C 6.859375 -0.566406 5.695312 -1.175781 4.65625 -2 C 3.625 -2.820312 2.796875 -3.859375 2.171875 -5.109375 C 1.554688 -6.367188 1.25 -7.859375 1.25 -9.578125 C 1.25 -11.222656 1.546875 -12.710938 2.140625 -14.046875 C 2.734375 -15.378906 3.539062 -16.523438 4.5625 -17.484375 C 5.59375 -18.441406 6.753906 -19.179688 8.046875 -19.703125 C 9.335938 -20.234375 10.671875 -20.5 12.046875 -20.5 C 13.316406 -20.5 14.578125 -20.304688 15.828125 -19.921875 C 17.078125 -19.546875 18.234375 -18.945312 19.296875 -18.125 C 20.359375 -17.300781 21.207031 -16.253906 21.84375 -14.984375 C 22.476562 -13.722656 22.796875 -12.203125 22.796875 -10.421875 C 22.796875 -8.703125 22.460938 -7.164062 21.796875 -5.8125 C 21.140625 -4.46875 20.28125 -3.335938 19.21875 -2.421875 C 18.15625 -1.503906 16.988281 -0.800781 15.71875 -0.3125 C 14.457031 0.164062 13.234375 0.40625 12.046875 0.40625 Z M 5.296875 -12.609375 C 5.296875 -11.421875 5.46875 -10.125 5.8125 -8.71875 C 6.164062 -7.320312 6.6875 -6 7.375 -4.75 C 8.0625 -3.5 8.914062 -2.472656 9.9375 -1.671875 C 10.96875 -0.878906 12.140625 -0.484375 13.453125 -0.484375 C 14.773438 -0.484375 15.820312 -0.816406 16.59375 -1.484375 C 17.363281 -2.160156 17.910156 -3.023438 18.234375 -4.078125 C 18.554688 -5.128906 18.71875 -6.222656 18.71875 -7.359375 C 18.71875 -8.648438 18.507812 -10.03125 18.09375 -11.5 C 17.675781 -12.96875 17.082031 -14.347656 16.3125 -15.640625 C 15.539062 -16.929688 14.613281 -17.960938 13.53125 -18.734375 C 12.457031 -19.503906 11.273438 -19.820312 9.984375 -19.6875 C 8.828125 -19.582031 7.90625 -19.1875 7.21875 -18.5 C 6.53125 -17.8125 6.035156 -16.945312 5.734375 -15.90625 C 5.441406 -14.863281 5.296875 -13.765625 5.296875 -12.609375 Z M 5.296875 -12.609375 "/></g></g></g><g fill="#ffffff" fill-opacity="1"><g transform="translate(223.922715, 31.97082)"><g><path d="M 1.125 0 L 1.125 -0.5625 C 1.800781 -0.78125 2.238281 -1.234375 2.4375 -1.921875 C 2.644531 -2.609375 2.75 -3.679688 2.75 -5.140625 L 2.75 -14.4375 C 2.75 -15.613281 2.609375 -16.390625 2.328125 -16.765625 C 2.046875 -17.148438 1.644531 -17.453125 1.125 -17.671875 L 1.125 -18.234375 L 6.46875 -20.578125 L 6.875 -20.25 L 6.875 -16.859375 C 7.976562 -17.773438 9.242188 -18.609375 10.671875 -19.359375 C 12.097656 -20.117188 13.59375 -20.5 15.15625 -20.5 C 17.019531 -20.5 18.523438 -19.976562 19.671875 -18.9375 C 20.816406 -17.894531 21.390625 -16.191406 21.390625 -13.828125 L 21.390625 -5.140625 C 21.390625 -3.679688 21.488281 -2.609375 21.6875 -1.921875 C 21.882812 -1.234375 22.320312 -0.78125 23 -0.5625 L 23 0 L 15.640625 0 L 15.640625 -0.5625 C 16.316406 -0.78125 16.753906 -1.234375 16.953125 -1.921875 C 17.160156 -2.609375 17.265625 -3.679688 17.265625 -5.140625 L 17.265625 -13.09375 C 17.265625 -14.925781 16.878906 -16.347656 16.109375 -17.359375 C 15.335938 -18.367188 14.195312 -18.875 12.6875 -18.875 C 11.75 -18.875 10.820312 -18.644531 9.90625 -18.1875 C 8.988281 -17.726562 7.976562 -17.054688 6.875 -16.171875 L 6.875 -5.140625 C 6.875 -3.679688 6.972656 -2.609375 7.171875 -1.921875 C 7.378906 -1.234375 7.816406 -0.78125 8.484375 -0.5625 L 8.484375 0 Z M 1.125 0 "/></g></g></g></g></g><g fill="#b48e2e" fill-opacity="1"><g transform="translate(90.339242, 255.378206)"><g><path d="M 2.578125 -0.40625 C 2.929688 -0.425781 3.160156 -0.523438 3.265625 -0.703125 C 3.367188 -0.890625 3.421875 -1.171875 3.421875 -1.546875 L 3.421875 -8.203125 L 2.15625 -8.1875 C 1.644531 -8.1875 1.28125 -8.015625 1.0625 -7.671875 C 0.84375 -7.335938 0.734375 -6.796875 0.734375 -6.046875 L 0.265625 -6.046875 L 0.34375 -8.65625 L 7.5625 -8.65625 L 7.640625 -6.046875 L 7.171875 -6.046875 C 7.160156 -6.566406 7.109375 -6.984375 7.015625 -7.296875 C 6.921875 -7.609375 6.757812 -7.835938 6.53125 -7.984375 C 6.300781 -8.140625 5.976562 -8.21875 5.5625 -8.21875 L 4.5 -8.21875 L 4.484375 -1.46875 C 4.484375 -1.03125 4.472656 -0.707031 4.453125 -0.5 L 5.484375 -0.546875 L 5.484375 0 L 2.578125 0 Z M 2.578125 -0.40625 "/></g></g></g><g fill="#b48e2e" fill-opacity="1"><g transform="translate(101.901802, 255.378206)"><g><path d="M 0.6875 -0.40625 C 0.96875 -0.414062 1.171875 -0.484375 1.296875 -0.609375 C 1.421875 -0.734375 1.488281 -0.878906 1.5 -1.046875 C 1.519531 -1.210938 1.53125 -1.507812 1.53125 -1.9375 L 1.53125 -7.28125 C 1.53125 -7.625 1.546875 -7.921875 1.578125 -8.171875 L 0.6875 -8.125 L 0.6875 -8.65625 L 6.640625 -8.65625 L 6.6875 -6.5 L 6.28125 -6.5 C 6.28125 -7.175781 6.132812 -7.632812 5.84375 -7.875 C 5.550781 -8.125 5.140625 -8.242188 4.609375 -8.234375 L 3.546875 -8.203125 C 3.253906 -8.191406 3.039062 -8.132812 2.90625 -8.03125 C 2.769531 -7.9375 2.6875 -7.796875 2.65625 -7.609375 C 2.625 -7.421875 2.609375 -7.128906 2.609375 -6.734375 L 2.609375 -4.75 L 4.9375 -4.734375 L 4.84375 -5.796875 L 5.390625 -5.796875 L 5.390625 -3.203125 L 4.984375 -3.203125 C 4.984375 -3.503906 4.945312 -3.734375 4.875 -3.890625 C 4.800781 -4.054688 4.6875 -4.164062 4.53125 -4.21875 C 4.382812 -4.28125 4.171875 -4.3125 3.890625 -4.3125 L 3.515625 -4.296875 L 2.609375 -4.25 L 2.609375 -1.421875 C 2.609375 -0.992188 2.597656 -0.671875 2.578125 -0.453125 L 4.9375 -0.5 C 5.507812 -0.5 5.945312 -0.640625 6.25 -0.921875 C 6.5625 -1.210938 6.71875 -1.707031 6.71875 -2.40625 L 7.140625 -2.40625 L 7.0625 0 L 0.6875 0 Z M 0.6875 -0.40625 "/></g></g></g><g fill="#b48e2e" fill-opacity="1"><g transform="translate(113.241821, 255.378206)"><g><path d="M 4.78125 0.203125 C 3.96875 0.203125 3.238281 0.0078125 2.59375 -0.375 C 1.957031 -0.769531 1.457031 -1.300781 1.09375 -1.96875 C 0.738281 -2.632812 0.5625 -3.375 0.5625 -4.1875 C 0.5625 -5 0.722656 -5.757812 1.046875 -6.46875 C 1.378906 -7.175781 1.867188 -7.75 2.515625 -8.1875 C 3.160156 -8.632812 3.941406 -8.859375 4.859375 -8.859375 C 5.765625 -8.859375 6.597656 -8.609375 7.359375 -8.109375 L 7.296875 -8.78125 L 7.96875 -8.78125 L 7.96875 -5.90625 L 7.53125 -5.90625 C 7.445312 -6.664062 7.175781 -7.265625 6.71875 -7.703125 C 6.257812 -8.140625 5.671875 -8.359375 4.953125 -8.359375 C 4.367188 -8.359375 3.832031 -8.191406 3.34375 -7.859375 C 2.863281 -7.535156 2.484375 -7.070312 2.203125 -6.46875 C 1.921875 -5.863281 1.78125 -5.164062 1.78125 -4.375 C 1.78125 -3.625 1.925781 -2.945312 2.21875 -2.34375 C 2.519531 -1.75 2.921875 -1.285156 3.421875 -0.953125 C 3.929688 -0.617188 4.488281 -0.453125 5.09375 -0.453125 C 5.644531 -0.453125 6.175781 -0.570312 6.6875 -0.8125 C 7.207031 -1.0625 7.628906 -1.414062 7.953125 -1.875 L 8.28125 -1.609375 C 7.800781 -0.941406 7.25 -0.472656 6.625 -0.203125 C 6.007812 0.0664062 5.394531 0.203125 4.78125 0.203125 Z M 4.78125 0.203125 "/></g></g></g><g fill="#b48e2e" fill-opacity="1"><g transform="translate(125.533805, 255.378206)"><g><path d="M 0.6875 -0.40625 C 0.96875 -0.414062 1.171875 -0.484375 1.296875 -0.609375 C 1.421875 -0.734375 1.488281 -0.878906 1.5 -1.046875 C 1.519531 -1.210938 1.53125 -1.507812 1.53125 -1.9375 L 1.53125 -7.28125 C 1.53125 -7.625 1.546875 -7.921875 1.578125 -8.171875 L 0.6875 -8.125 L 0.6875 -8.65625 L 3.46875 -8.65625 L 3.46875 -8.25 C 3.175781 -8.238281 2.96875 -8.171875 2.84375 -8.046875 C 2.71875 -7.929688 2.644531 -7.785156 2.625 -7.609375 C 2.613281 -7.441406 2.609375 -7.148438 2.609375 -6.734375 L 2.609375 -4.671875 L 7.046875 -4.671875 L 7.046875 -7.28125 C 7.046875 -7.625 7.054688 -7.921875 7.078125 -8.171875 L 6.1875 -8.125 L 6.1875 -8.65625 L 8.96875 -8.65625 L 8.96875 -8.25 C 8.675781 -8.238281 8.46875 -8.171875 8.34375 -8.046875 C 8.226562 -7.929688 8.160156 -7.785156 8.140625 -7.609375 C 8.128906 -7.441406 8.125 -7.148438 8.125 -6.734375 L 8.125 -1.46875 C 8.125 -1.03125 8.109375 -0.707031 8.078125 -0.5 L 8.96875 -0.546875 L 8.96875 0 L 6.1875 0 L 6.1875 -0.40625 C 6.476562 -0.414062 6.679688 -0.484375 6.796875 -0.609375 C 6.921875 -0.734375 6.992188 -0.878906 7.015625 -1.046875 C 7.035156 -1.210938 7.046875 -1.507812 7.046875 -1.9375 L 7.046875 -4.1875 L 2.609375 -4.140625 L 2.609375 -1.46875 C 2.609375 -1.03125 2.597656 -0.707031 2.578125 -0.5 L 3.46875 -0.546875 L 3.46875 0 L 0.6875 0 Z M 0.6875 -0.40625 "/></g></g></g><g fill="#b48e2e" fill-opacity="1"><g transform="translate(138.827215, 255.378206)"><g><path d="M 2.078125 -7.015625 L 2.0625 -7.015625 L 2.109375 -1.71875 C 2.109375 -1.164062 2.097656 -0.757812 2.078125 -0.5 L 2.96875 -0.546875 L 2.96875 0 L 0.703125 0 L 0.703125 -0.40625 C 1.035156 -0.40625 1.253906 -0.5 1.359375 -0.6875 C 1.460938 -0.882812 1.515625 -1.117188 1.515625 -1.390625 L 1.53125 -8.171875 L 0.703125 -8.125 L 0.703125 -8.65625 L 2.171875 -8.65625 L 7.453125 -1.609375 L 7.46875 -1.609375 L 7.46875 -7.28125 C 7.46875 -7.625 7.484375 -7.921875 7.515625 -8.171875 L 6.625 -8.125 L 6.625 -8.65625 L 8.890625 -8.65625 L 8.890625 -8.25 C 8.648438 -8.238281 8.46875 -8.191406 8.34375 -8.109375 C 8.226562 -8.023438 8.148438 -7.90625 8.109375 -7.75 C 8.078125 -7.601562 8.0625 -7.410156 8.0625 -7.171875 L 8.0625 -6.734375 L 8.046875 0.203125 L 7.453125 0.203125 Z M 2.078125 -7.015625 "/></g></g></g><g fill="#b48e2e" fill-opacity="1"><g transform="translate(151.898083, 255.378206)"><g><path d="M 0.6875 -0.40625 C 0.96875 -0.414062 1.171875 -0.484375 1.296875 -0.609375 C 1.421875 -0.734375 1.488281 -0.878906 1.5 -1.046875 C 1.519531 -1.210938 1.53125 -1.507812 1.53125 -1.9375 L 1.53125 -7.28125 C 1.53125 -7.625 1.546875 -7.921875 1.578125 -8.171875 L 0.6875 -8.125 L 0.6875 -8.65625 L 3.46875 -8.65625 L 3.46875 -8.25 C 3.175781 -8.238281 2.96875 -8.171875 2.84375 -8.046875 C 2.71875 -7.929688 2.644531 -7.785156 2.625 -7.609375 C 2.613281 -7.441406 2.609375 -7.148438 2.609375 -6.734375 L 2.609375 -1.46875 C 2.609375 -1.03125 2.597656 -0.707031 2.578125 -0.5 L 3.46875 -0.546875 L 3.46875 0 L 0.6875 0 Z M 0.6875 -0.40625 "/></g></g></g><g fill="#b48e2e" fill-opacity="1"><g transform="translate(159.689873, 255.378206)"><g><path d="M 4.78125 0.203125 C 3.96875 0.203125 3.238281 0.0078125 2.59375 -0.375 C 1.957031 -0.769531 1.457031 -1.300781 1.09375 -1.96875 C 0.738281 -2.632812 0.5625 -3.375 0.5625 -4.1875 C 0.5625 -5 0.722656 -5.757812 1.046875 -6.46875 C 1.378906 -7.175781 1.867188 -7.75 2.515625 -8.1875 C 3.160156 -8.632812 3.941406 -8.859375 4.859375 -8.859375 C 5.765625 -8.859375 6.597656 -8.609375 7.359375 -8.109375 L 7.296875 -8.78125 L 7.96875 -8.78125 L 7.96875 -5.90625 L 7.53125 -5.90625 C 7.445312 -6.664062 7.175781 -7.265625 6.71875 -7.703125 C 6.257812 -8.140625 5.671875 -8.359375 4.953125 -8.359375 C 4.367188 -8.359375 3.832031 -8.191406 3.34375 -7.859375 C 2.863281 -7.535156 2.484375 -7.070312 2.203125 -6.46875 C 1.921875 -5.863281 1.78125 -5.164062 1.78125 -4.375 C 1.78125 -3.625 1.925781 -2.945312 2.21875 -2.34375 C 2.519531 -1.75 2.921875 -1.285156 3.421875 -0.953125 C 3.929688 -0.617188 4.488281 -0.453125 5.09375 -0.453125 C 5.644531 -0.453125 6.175781 -0.570312 6.6875 -0.8125 C 7.207031 -1.0625 7.628906 -1.414062 7.953125 -1.875 L 8.28125 -1.609375 C 7.800781 -0.941406 7.25 -0.472656 6.625 -0.203125 C 6.007812 0.0664062 5.394531 0.203125 4.78125 0.203125 Z M 4.78125 0.203125 "/></g></g></g><g fill="#b48e2e" fill-opacity="1"><g transform="translate(171.981857, 255.378206)"><g><path d="M -0.078125 -0.40625 C 0.128906 -0.40625 0.296875 -0.453125 0.421875 -0.546875 C 0.546875 -0.640625 0.644531 -0.765625 0.71875 -0.921875 C 0.800781 -1.078125 0.894531 -1.304688 1 -1.609375 L 1.125 -1.953125 L 3.671875 -8.890625 L 3.96875 -8.890625 L 6.734375 -1.859375 C 6.828125 -1.628906 6.90625 -1.382812 6.96875 -1.125 C 7.03125 -0.875 7.054688 -0.664062 7.046875 -0.5 L 7.890625 -0.546875 L 7.890625 0 L 5.0625 0 L 5.0625 -0.40625 C 5.550781 -0.414062 5.796875 -0.613281 5.796875 -1 C 5.796875 -1.15625 5.753906 -1.347656 5.671875 -1.578125 L 5.234375 -2.75 L 2.015625 -2.671875 C 1.890625 -2.335938 1.742188 -1.894531 1.578125 -1.34375 C 1.492188 -1.070312 1.394531 -0.789062 1.28125 -0.5 L 2.234375 -0.546875 L 2.234375 0 L -0.078125 0 Z M 5.0625 -3.203125 L 4.1875 -5.5625 L 3.625 -7.09375 L 3.59375 -7.09375 L 3.078125 -5.6875 L 2.40625 -3.8125 L 2.203125 -3.203125 Z M 5.0625 -3.203125 "/></g></g></g><g fill="#b48e2e" fill-opacity="1"><g transform="translate(183.371336, 255.378206)"><g><path d="M 0.6875 -0.40625 C 0.96875 -0.414062 1.171875 -0.484375 1.296875 -0.609375 C 1.421875 -0.734375 1.488281 -0.878906 1.5 -1.046875 C 1.519531 -1.210938 1.53125 -1.507812 1.53125 -1.9375 L 1.53125 -7.28125 C 1.53125 -7.625 1.546875 -7.921875 1.578125 -8.171875 L 0.6875 -8.125 L 0.6875 -8.65625 L 3.46875 -8.65625 L 3.46875 -8.25 C 3.175781 -8.238281 2.96875 -8.171875 2.84375 -8.046875 C 2.71875 -7.929688 2.644531 -7.785156 2.625 -7.609375 C 2.613281 -7.441406 2.609375 -7.148438 2.609375 -6.734375 L 2.609375 -1.421875 C 2.609375 -0.992188 2.597656 -0.671875 2.578125 -0.453125 L 4.890625 -0.5 C 5.421875 -0.5 5.816406 -0.660156 6.078125 -0.984375 C 6.335938 -1.316406 6.46875 -1.84375 6.46875 -2.5625 L 6.890625 -2.5625 L 6.8125 0 L 0.6875 0 Z M 0.6875 -0.40625 "/></g></g></g><g fill="#b48e2e" fill-opacity="1"><g transform="translate(194.167383, 255.378206)"><g/></g></g><g fill="#b48e2e" fill-opacity="1"><g transform="translate(201.069017, 255.378206)"><g><path d="M 3.578125 0.203125 C 3.191406 0.203125 2.800781 0.144531 2.40625 0.03125 C 2.007812 -0.0703125 1.664062 -0.226562 1.375 -0.4375 L 1.4375 0.09375 L 0.796875 0.09375 L 0.71875 -2.53125 L 1.203125 -2.53125 C 1.242188 -1.820312 1.484375 -1.273438 1.921875 -0.890625 C 2.367188 -0.515625 2.9375 -0.328125 3.625 -0.328125 C 4.125 -0.328125 4.546875 -0.460938 4.890625 -0.734375 C 5.234375 -1.015625 5.40625 -1.394531 5.40625 -1.875 C 5.40625 -2.226562 5.304688 -2.53125 5.109375 -2.78125 C 4.921875 -3.03125 4.679688 -3.238281 4.390625 -3.40625 C 4.109375 -3.570312 3.726562 -3.769531 3.25 -4 C 2.6875 -4.257812 2.242188 -4.488281 1.921875 -4.6875 C 1.597656 -4.882812 1.320312 -5.144531 1.09375 -5.46875 C 0.863281 -5.800781 0.75 -6.207031 0.75 -6.6875 C 0.75 -7.007812 0.820312 -7.335938 0.96875 -7.671875 C 1.125 -8.003906 1.390625 -8.285156 1.765625 -8.515625 C 2.140625 -8.742188 2.632812 -8.859375 3.25 -8.859375 C 3.625 -8.859375 4 -8.8125 4.375 -8.71875 C 4.75 -8.625 5.09375 -8.460938 5.40625 -8.234375 L 5.359375 -8.765625 L 5.984375 -8.765625 L 5.984375 -6.03125 L 5.546875 -6.03125 C 5.503906 -6.6875 5.296875 -7.238281 4.921875 -7.6875 C 4.546875 -8.132812 4.019531 -8.359375 3.34375 -8.359375 C 2.84375 -8.359375 2.453125 -8.21875 2.171875 -7.9375 C 1.890625 -7.664062 1.75 -7.328125 1.75 -6.921875 C 1.75 -6.585938 1.84375 -6.300781 2.03125 -6.0625 C 2.226562 -5.820312 2.460938 -5.625 2.734375 -5.46875 C 3.003906 -5.3125 3.390625 -5.117188 3.890625 -4.890625 C 4.453125 -4.628906 4.898438 -4.394531 5.234375 -4.1875 C 5.578125 -3.988281 5.867188 -3.722656 6.109375 -3.390625 C 6.347656 -3.054688 6.46875 -2.644531 6.46875 -2.15625 C 6.46875 -1.6875 6.351562 -1.273438 6.125 -0.921875 C 5.90625 -0.566406 5.578125 -0.289062 5.140625 -0.09375 C 4.703125 0.101562 4.179688 0.203125 3.578125 0.203125 Z M 3.578125 0.203125 "/></g></g></g><g fill="#b48e2e" fill-opacity="1"><g transform="translate(211.729062, 255.378206)"><g><path d="M 0.6875 -0.40625 C 0.96875 -0.414062 1.171875 -0.484375 1.296875 -0.609375 C 1.421875 -0.734375 1.488281 -0.878906 1.5 -1.046875 C 1.519531 -1.210938 1.53125 -1.507812 1.53125 -1.9375 L 1.53125 -7.28125 C 1.53125 -7.625 1.546875 -7.921875 1.578125 -8.171875 L 0.6875 -8.125 L 0.6875 -8.65625 L 6.640625 -8.65625 L 6.6875 -6.5 L 6.28125 -6.5 C 6.28125 -7.175781 6.132812 -7.632812 5.84375 -7.875 C 5.550781 -8.125 5.140625 -8.242188 4.609375 -8.234375 L 3.546875 -8.203125 C 3.253906 -8.191406 3.039062 -8.132812 2.90625 -8.03125 C 2.769531 -7.9375 2.6875 -7.796875 2.65625 -7.609375 C 2.625 -7.421875 2.609375 -7.128906 2.609375 -6.734375 L 2.609375 -4.75 L 4.9375 -4.734375 L 4.84375 -5.796875 L 5.390625 -5.796875 L 5.390625 -3.203125 L 4.984375 -3.203125 C 4.984375 -3.503906 4.945312 -3.734375 4.875 -3.890625 C 4.800781 -4.054688 4.6875 -4.164062 4.53125 -4.21875 C 4.382812 -4.28125 4.171875 -4.3125 3.890625 -4.3125 L 3.515625 -4.296875 L 2.609375 -4.25 L 2.609375 -1.421875 C 2.609375 -0.992188 2.597656 -0.671875 2.578125 -0.453125 L 4.9375 -0.5 C 5.507812 -0.5 5.945312 -0.640625 6.25 -0.921875 C 6.5625 -1.210938 6.71875 -1.707031 6.71875 -2.40625 L 7.140625 -2.40625 L 7.0625 0 L 0.6875 0 Z M 0.6875 -0.40625 "/></g></g></g><g fill="#b48e2e" fill-opacity="1"><g transform="translate(223.06908, 255.378206)"><g><path d="M 0.6875 -0.40625 C 0.96875 -0.414062 1.171875 -0.484375 1.296875 -0.609375 C 1.421875 -0.734375 1.488281 -0.878906 1.5 -1.046875 C 1.519531 -1.210938 1.53125 -1.507812 1.53125 -1.9375 L 1.53125 -7.28125 C 1.53125 -7.625 1.546875 -7.921875 1.578125 -8.171875 L 0.6875 -8.125 L 0.6875 -8.65625 C 1.539062 -8.675781 2.1875 -8.6875 2.625 -8.6875 C 3.019531 -8.6875 3.316406 -8.679688 3.515625 -8.671875 C 4.679688 -8.660156 5.53125 -8.46875 6.0625 -8.09375 C 6.601562 -7.71875 6.875 -7.171875 6.875 -6.453125 C 6.882812 -5.890625 6.71875 -5.378906 6.375 -4.921875 C 6.03125 -4.472656 5.425781 -4.160156 4.5625 -3.984375 C 4.707031 -3.878906 4.835938 -3.75 4.953125 -3.59375 C 5.066406 -3.445312 5.222656 -3.21875 5.421875 -2.90625 L 6.265625 -1.578125 C 6.441406 -1.296875 6.585938 -1.078125 6.703125 -0.921875 C 6.828125 -0.765625 6.972656 -0.640625 7.140625 -0.546875 C 7.316406 -0.453125 7.523438 -0.40625 7.765625 -0.40625 L 7.765625 0 L 6.21875 0 C 5.988281 -0.1875 5.796875 -0.378906 5.640625 -0.578125 C 5.492188 -0.785156 5.316406 -1.050781 5.109375 -1.375 L 4.28125 -2.703125 L 4.125 -2.953125 C 3.988281 -3.179688 3.867188 -3.363281 3.765625 -3.5 C 3.671875 -3.644531 3.566406 -3.769531 3.453125 -3.875 C 3.378906 -3.863281 3.265625 -3.859375 3.109375 -3.859375 C 2.878906 -3.859375 2.710938 -3.863281 2.609375 -3.875 L 2.609375 -1.46875 C 2.609375 -1.03125 2.597656 -0.707031 2.578125 -0.5 L 3.46875 -0.546875 L 3.46875 0 L 0.6875 0 Z M 3.15625 -4.328125 C 4.84375 -4.328125 5.6875 -4.992188 5.6875 -6.328125 C 5.6875 -6.953125 5.503906 -7.421875 5.140625 -7.734375 C 4.773438 -8.046875 4.21875 -8.203125 3.46875 -8.203125 C 3.175781 -8.203125 2.96875 -8.144531 2.84375 -8.03125 C 2.71875 -7.914062 2.644531 -7.773438 2.625 -7.609375 C 2.613281 -7.441406 2.609375 -7.148438 2.609375 -6.734375 L 2.609375 -4.359375 C 2.859375 -4.335938 3.039062 -4.328125 3.15625 -4.328125 Z M 3.15625 -4.328125 "/></g></g></g><g fill="#b48e2e" fill-opacity="1"><g transform="translate(234.483279, 255.378206)"><g><path d="M 1.171875 -6.453125 C 0.878906 -7.160156 0.703125 -7.722656 0.640625 -8.140625 L -0.046875 -8.125 L -0.046875 -8.65625 L 2.828125 -8.65625 L 2.828125 -8.25 L 2.8125 -8.234375 C 2.539062 -8.222656 2.335938 -8.164062 2.203125 -8.0625 C 2.078125 -7.957031 2.015625 -7.804688 2.015625 -7.609375 C 2.015625 -7.421875 2.070312 -7.1875 2.1875 -6.90625 L 2.515625 -6.109375 C 2.597656 -5.898438 2.722656 -5.585938 2.890625 -5.171875 C 3.054688 -4.753906 3.210938 -4.367188 3.359375 -4.015625 L 3.6875 -3.265625 C 4.007812 -2.535156 4.238281 -1.992188 4.375 -1.640625 L 4.390625 -1.640625 L 4.84375 -2.953125 L 5.015625 -3.40625 L 6.09375 -6.453125 L 6.390625 -7.25 C 6.546875 -7.695312 6.664062 -8.003906 6.75 -8.171875 L 5.796875 -8.125 L 5.796875 -8.65625 L 8.296875 -8.65625 L 8.296875 -8.25 C 7.941406 -8.238281 7.664062 -8.144531 7.46875 -7.96875 C 7.269531 -7.789062 7.09375 -7.484375 6.9375 -7.046875 L 4.328125 0.125 L 3.984375 0.125 Z M 1.171875 -6.453125 "/></g></g></g><g fill="#b48e2e" fill-opacity="1"><g transform="translate(246.20656, 255.378206)"><g><path d="M 0.6875 -0.40625 C 0.96875 -0.414062 1.171875 -0.484375 1.296875 -0.609375 C 1.421875 -0.734375 1.488281 -0.878906 1.5 -1.046875 C 1.519531 -1.210938 1.53125 -1.507812 1.53125 -1.9375 L 1.53125 -7.28125 C 1.53125 -7.625 1.546875 -7.921875 1.578125 -8.171875 L 0.6875 -8.125 L 0.6875 -8.65625 L 3.46875 -8.65625 L 3.46875 -8.25 C 3.175781 -8.238281 2.96875 -8.171875 2.84375 -8.046875 C 2.71875 -7.929688 2.644531 -7.785156 2.625 -7.609375 C 2.613281 -7.441406 2.609375 -7.148438 2.609375 -6.734375 L 2.609375 -1.46875 C 2.609375 -1.03125 2.597656 -0.707031 2.578125 -0.5 L 3.46875 -0.546875 L 3.46875 0 L 0.6875 0 Z M 0.6875 -0.40625 "/></g></g></g><g fill="#b48e2e" fill-opacity="1"><g transform="translate(253.99835, 255.378206)"><g><path d="M 4.78125 0.203125 C 3.96875 0.203125 3.238281 0.0078125 2.59375 -0.375 C 1.957031 -0.769531 1.457031 -1.300781 1.09375 -1.96875 C 0.738281 -2.632812 0.5625 -3.375 0.5625 -4.1875 C 0.5625 -5 0.722656 -5.757812 1.046875 -6.46875 C 1.378906 -7.175781 1.867188 -7.75 2.515625 -8.1875 C 3.160156 -8.632812 3.941406 -8.859375 4.859375 -8.859375 C 5.765625 -8.859375 6.597656 -8.609375 7.359375 -8.109375 L 7.296875 -8.78125 L 7.96875 -8.78125 L 7.96875 -5.90625 L 7.53125 -5.90625 C 7.445312 -6.664062 7.175781 -7.265625 6.71875 -7.703125 C 6.257812 -8.140625 5.671875 -8.359375 4.953125 -8.359375 C 4.367188 -8.359375 3.832031 -8.191406 3.34375 -7.859375 C 2.863281 -7.535156 2.484375 -7.070312 2.203125 -6.46875 C 1.921875 -5.863281 1.78125 -5.164062 1.78125 -4.375 C 1.78125 -3.625 1.925781 -2.945312 2.21875 -2.34375 C 2.519531 -1.75 2.921875 -1.285156 3.421875 -0.953125 C 3.929688 -0.617188 4.488281 -0.453125 5.09375 -0.453125 C 5.644531 -0.453125 6.175781 -0.570312 6.6875 -0.8125 C 7.207031 -1.0625 7.628906 -1.414062 7.953125 -1.875 L 8.28125 -1.609375 C 7.800781 -0.941406 7.25 -0.472656 6.625 -0.203125 C 6.007812 0.0664062 5.394531 0.203125 4.78125 0.203125 Z M 4.78125 0.203125 "/></g></g></g><g fill="#b48e2e" fill-opacity="1"><g transform="translate(266.290333, 255.378206)"><g><path d="M 0.6875 -0.40625 C 0.96875 -0.414062 1.171875 -0.484375 1.296875 -0.609375 C 1.421875 -0.734375 1.488281 -0.878906 1.5 -1.046875 C 1.519531 -1.210938 1.53125 -1.507812 1.53125 -1.9375 L 1.53125 -7.28125 C 1.53125 -7.625 1.546875 -7.921875 1.578125 -8.171875 L 0.6875 -8.125 L 0.6875 -8.65625 L 6.640625 -8.65625 L 6.6875 -6.5 L 6.28125 -6.5 C 6.28125 -7.175781 6.132812 -7.632812 5.84375 -7.875 C 5.550781 -8.125 5.140625 -8.242188 4.609375 -8.234375 L 3.546875 -8.203125 C 3.253906 -8.191406 3.039062 -8.132812 2.90625 -8.03125 C 2.769531 -7.9375 2.6875 -7.796875 2.65625 -7.609375 C 2.625 -7.421875 2.609375 -7.128906 2.609375 -6.734375 L 2.609375 -4.75 L 4.9375 -4.734375 L 4.84375 -5.796875 L 5.390625 -5.796875 L 5.390625 -3.203125 L 4.984375 -3.203125 C 4.984375 -3.503906 4.945312 -3.734375 4.875 -3.890625 C 4.800781 -4.054688 4.6875 -4.164062 4.53125 -4.21875 C 4.382812 -4.28125 4.171875 -4.3125 3.890625 -4.3125 L 3.515625 -4.296875 L 2.609375 -4.25 L 2.609375 -1.421875 C 2.609375 -0.992188 2.597656 -0.671875 2.578125 -0.453125 L 4.9375 -0.5 C 5.507812 -0.5 5.945312 -0.640625 6.25 -0.921875 C 6.5625 -1.210938 6.71875 -1.707031 6.71875 -2.40625 L 7.140625 -2.40625 L 7.0625 0 L 0.6875 0 Z M 0.6875 -0.40625 "/></g></g></g><g fill="#b48e2e" fill-opacity="1"><g transform="translate(277.630352, 255.378206)"><g><path d="M 3.578125 0.203125 C 3.191406 0.203125 2.800781 0.144531 2.40625 0.03125 C 2.007812 -0.0703125 1.664062 -0.226562 1.375 -0.4375 L 1.4375 0.09375 L 0.796875 0.09375 L 0.71875 -2.53125 L 1.203125 -2.53125 C 1.242188 -1.820312 1.484375 -1.273438 1.921875 -0.890625 C 2.367188 -0.515625 2.9375 -0.328125 3.625 -0.328125 C 4.125 -0.328125 4.546875 -0.460938 4.890625 -0.734375 C 5.234375 -1.015625 5.40625 -1.394531 5.40625 -1.875 C 5.40625 -2.226562 5.304688 -2.53125 5.109375 -2.78125 C 4.921875 -3.03125 4.679688 -3.238281 4.390625 -3.40625 C 4.109375 -3.570312 3.726562 -3.769531 3.25 -4 C 2.6875 -4.257812 2.242188 -4.488281 1.921875 -4.6875 C 1.597656 -4.882812 1.320312 -5.144531 1.09375 -5.46875 C 0.863281 -5.800781 0.75 -6.207031 0.75 -6.6875 C 0.75 -7.007812 0.820312 -7.335938 0.96875 -7.671875 C 1.125 -8.003906 1.390625 -8.285156 1.765625 -8.515625 C 2.140625 -8.742188 2.632812 -8.859375 3.25 -8.859375 C 3.625 -8.859375 4 -8.8125 4.375 -8.71875 C 4.75 -8.625 5.09375 -8.460938 5.40625 -8.234375 L 5.359375 -8.765625 L 5.984375 -8.765625 L 5.984375 -6.03125 L 5.546875 -6.03125 C 5.503906 -6.6875 5.296875 -7.238281 4.921875 -7.6875 C 4.546875 -8.132812 4.019531 -8.359375 3.34375 -8.359375 C 2.84375 -8.359375 2.453125 -8.21875 2.171875 -7.9375 C 1.890625 -7.664062 1.75 -7.328125 1.75 -6.921875 C 1.75 -6.585938 1.84375 -6.300781 2.03125 -6.0625 C 2.226562 -5.820312 2.460938 -5.625 2.734375 -5.46875 C 3.003906 -5.3125 3.390625 -5.117188 3.890625 -4.890625 C 4.453125 -4.628906 4.898438 -4.394531 5.234375 -4.1875 C 5.578125 -3.988281 5.867188 -3.722656 6.109375 -3.390625 C 6.347656 -3.054688 6.46875 -2.644531 6.46875 -2.15625 C 6.46875 -1.6875 6.351562 -1.273438 6.125 -0.921875 C 5.90625 -0.566406 5.578125 -0.289062 5.140625 -0.09375 C 4.703125 0.101562 4.179688 0.203125 3.578125 0.203125 Z M 3.578125 0.203125 "/></g></g></g></svg>