<svg xmlns="http://www.w3.org/2000/svg" xmlns:xlink="http://www.w3.org/1999/xlink" width="500" zoomAndPan="magnify" viewBox="0 0 375 374.999991" height="500" preserveAspectRatio="xMidYMid meet" version="1.0"><defs><clipPath id="2623afcb8e"><path d="M 71.488281 150.507812 L 144.535156 150.507812 L 144.535156 209.953125 L 71.488281 209.953125 Z M 71.488281 150.507812 " clip-rule="nonzero"/></clipPath><clipPath id="f0a6a8dcc1"><path d="M 96.835938 193.050781 C 93.964844 190.816406 94.539062 188.132812 94.539062 188.132812 L 134.207031 188.132812 C 134.359375 162.441406 122.347656 150.609375 102.824219 150.609375 C 87.53125 150.609375 71.640625 161.382812 71.640625 182.757812 C 71.640625 196.878906 82.601562 206.535156 92.738281 208.613281 C 100.921875 210.25 108.09375 209.589844 112.625 209.589844 L 132.847656 209.589844 L 144.207031 195.53125 L 107.035156 195.53125 C 103.496094 195.460938 100.425781 195.726562 96.835938 193.050781 M 104.277344 164.542969 C 112.449219 164.542969 113.128906 172.839844 113.128906 172.839844 L 94.222656 172.839844 C 94.4375 172.921875 94.160156 164.542969 104.265625 164.542969 " clip-rule="nonzero"/></clipPath><clipPath id="e6ea385948"><path d="M 0.519531 0.507812 L 73.238281 0.507812 L 73.238281 59.953125 L 0.519531 59.953125 Z M 0.519531 0.507812 " clip-rule="nonzero"/></clipPath><clipPath id="6e656d1f94"><path d="M 25.835938 43.050781 C 22.964844 40.816406 23.539062 38.132812 23.539062 38.132812 L 63.207031 38.132812 C 63.359375 12.441406 51.347656 0.609375 31.824219 0.609375 C 16.53125 0.609375 0.640625 11.382812 0.640625 32.757812 C 0.640625 46.878906 11.601562 56.535156 21.738281 58.613281 C 29.921875 60.25 37.09375 59.589844 41.625 59.589844 L 61.847656 59.589844 L 73.207031 45.53125 L 36.035156 45.53125 C 32.496094 45.460938 29.425781 45.726562 25.835938 43.050781 M 33.277344 14.542969 C 41.449219 14.542969 42.128906 22.839844 42.128906 22.839844 L 23.222656 22.839844 C 23.4375 22.921875 23.160156 14.542969 33.265625 14.542969 " clip-rule="nonzero"/></clipPath><clipPath id="c57f26d962"><rect x="0" width="74" y="0" height="60"/></clipPath><clipPath id="5dccf96239"><path d="M 135 140.40625 L 235 140.40625 L 235 209.953125 L 135 209.953125 Z M 135 140.40625 " clip-rule="nonzero"/></clipPath><clipPath id="81742f22cd"><path d="M 203.46875 151.019531 C 177.585938 151.019531 171.8125 173.507812 171.8125 178.808594 C 171.8125 188.902344 174.40625 192.453125 176.03125 195.367188 L 167.066406 195.367188 C 164.691406 195.367188 163.339844 194.285156 163.339844 192.1875 L 163.339844 169.667969 L 174.300781 153.789062 C 174.300781 153.789062 163.339844 153.890625 163.339844 153.789062 C 163.339844 153.890625 163.402344 140.5 163.339844 140.5 L 146.460938 140.5 L 135.039062 168.238281 L 145.136719 168.238281 L 145.136719 198.136719 C 145.136719 203.828125 152.75 209.589844 160.851562 209.589844 L 204.613281 209.589844 C 217.929688 209.589844 234.746094 198.917969 234.746094 180.25 C 234.746094 160.136719 219.636719 151.019531 203.480469 151.019531 M 204.054688 194.59375 C 197.109375 194.59375 192.898438 188.234375 192.898438 180.363281 C 192.898438 172.375 196.820312 166.015625 204.054688 166.015625 C 211.457031 166.015625 215.015625 172.375 215.015625 180.363281 C 215.015625 188.234375 210.136719 194.59375 204.054688 194.59375 " clip-rule="nonzero"/></clipPath><clipPath id="b750d48aa4"><path d="M 0 0.40625 L 99.960938 0.40625 L 99.960938 69.761719 L 0 69.761719 Z M 0 0.40625 " clip-rule="nonzero"/></clipPath><clipPath id="71b0876e0e"><path d="M 68.46875 11.019531 C 42.585938 11.019531 36.8125 33.507812 36.8125 38.808594 C 36.8125 48.902344 39.40625 52.453125 41.03125 55.367188 L 32.066406 55.367188 C 29.691406 55.367188 28.339844 54.285156 28.339844 52.1875 L 28.339844 29.667969 L 39.300781 13.789062 C 39.300781 13.789062 28.339844 13.890625 28.339844 13.789062 C 28.339844 13.890625 28.402344 0.5 28.339844 0.5 L 11.460938 0.5 L 0.0390625 28.238281 L 10.136719 28.238281 L 10.136719 58.136719 C 10.136719 63.828125 17.75 69.589844 25.851562 69.589844 L 69.613281 69.589844 C 82.929688 69.589844 99.746094 58.917969 99.746094 40.25 C 99.746094 20.136719 84.636719 11.019531 68.480469 11.019531 M 69.054688 54.59375 C 62.109375 54.59375 57.898438 48.234375 57.898438 40.363281 C 57.898438 32.375 61.820312 26.015625 69.054688 26.015625 C 76.457031 26.015625 80.015625 32.375 80.015625 40.363281 C 80.015625 48.234375 75.136719 54.59375 69.054688 54.59375 " clip-rule="nonzero"/></clipPath><clipPath id="64bd1baaa7"><rect x="0" width="100" y="0" height="70"/></clipPath><clipPath id="2a777e2a54"><path d="M 233.121094 153.617188 L 325.589844 153.617188 L 325.589844 209.953125 L 233.121094 209.953125 Z M 233.121094 153.617188 " clip-rule="nonzero"/></clipPath><clipPath id="36427c1c4c"><path d="M 309.207031 195.070312 L 299.335938 195.070312 L 299.335938 176.976562 C 299.335938 173.609375 299.027344 168.132812 296.527344 163.390625 C 294.089844 158.789062 290.445312 156.195312 285.453125 154.753906 C 284.464844 154.445312 282.261719 153.984375 279.484375 153.890625 C 279.484375 153.789062 245.304688 153.890625 245.304688 153.890625 L 233.304688 168.792969 L 243.09375 168.792969 L 243.09375 209.589844 L 261.320312 209.589844 L 261.320312 168.792969 C 261.320312 168.792969 268.925781 168.792969 273.78125 169.09375 C 279.976562 169.472656 280.453125 174.753906 280.453125 176.6875 C 280.566406 180.640625 280.566406 186.195312 280.453125 190.179688 L 280.453125 209.589844 L 297.578125 209.589844 L 309.207031 198.15625 L 309.207031 209.589844 L 325.507812 209.589844 L 325.507812 153.789062 L 309.207031 153.789062 Z M 309.207031 195.070312 " clip-rule="nonzero"/></clipPath><clipPath id="7e0ca8d1c4"><path d="M 0.28125 0.617188 L 92.589844 0.617188 L 92.589844 56.761719 L 0.28125 56.761719 Z M 0.28125 0.617188 " clip-rule="nonzero"/></clipPath><clipPath id="7f4d40d8e3"><path d="M 76.207031 42.070312 L 66.335938 42.070312 L 66.335938 23.976562 C 66.335938 20.609375 66.027344 15.132812 63.527344 10.390625 C 61.089844 5.789062 57.445312 3.195312 52.453125 1.753906 C 51.464844 1.445312 49.261719 0.984375 46.484375 0.890625 C 46.484375 0.789062 12.304688 0.890625 12.304688 0.890625 L 0.304688 15.792969 L 10.09375 15.792969 L 10.09375 56.589844 L 28.320312 56.589844 L 28.320312 15.792969 C 28.320312 15.792969 35.925781 15.792969 40.78125 16.09375 C 46.976562 16.472656 47.453125 21.753906 47.453125 23.6875 C 47.566406 27.640625 47.566406 33.195312 47.453125 37.179688 L 47.453125 56.589844 L 64.578125 56.589844 L 76.207031 45.15625 L 76.207031 56.589844 L 92.507812 56.589844 L 92.507812 0.789062 L 76.207031 0.789062 Z M 76.207031 42.070312 " clip-rule="nonzero"/></clipPath><clipPath id="fa1654b4b9"><rect x="0" width="93" y="0" height="57"/></clipPath><clipPath id="54ea194e74"><path d="M 309.207031 140.707031 L 325.507812 140.707031 L 325.507812 150.503906 L 309.207031 150.503906 Z M 309.207031 140.707031 " clip-rule="nonzero"/></clipPath><clipPath id="617ffbe290"><path d="M 0.207031 0.707031 L 16.507812 0.707031 L 16.507812 10.503906 L 0.207031 10.503906 Z M 0.207031 0.707031 " clip-rule="nonzero"/></clipPath><clipPath id="593755cf03"><rect x="0" width="17" y="0" height="11"/></clipPath><clipPath id="d4ccea61ad"><path d="M 6.605469 155.558594 L 79.261719 155.558594 L 79.261719 211.894531 L 6.605469 211.894531 Z M 6.605469 155.558594 " clip-rule="nonzero"/></clipPath><clipPath id="1f90192125"><path d="M 58.765625 155.867188 L 41.710938 188.984375 C 41.710938 188.984375 26.707031 155.878906 26.605469 155.96875 L 6.804688 155.96875 L 31.214844 211.699219 L 49.6875 211.699219 L 79.0625 155.867188 Z M 58.765625 155.867188 " clip-rule="nonzero"/></clipPath><clipPath id="a69fcfd537"><path d="M 0.71875 0.761719 L 73.199219 0.761719 L 73.199219 56.894531 L 0.71875 56.894531 Z M 0.71875 0.761719 " clip-rule="nonzero"/></clipPath><clipPath id="4f02d29434"><path d="M 52.765625 0.867188 L 35.710938 33.984375 C 35.710938 33.984375 20.707031 0.878906 20.605469 0.96875 L 0.804688 0.96875 L 25.214844 56.699219 L 43.6875 56.699219 L 73.0625 0.867188 Z M 52.765625 0.867188 " clip-rule="nonzero"/></clipPath><clipPath id="8befdbab99"><rect x="0" width="74" y="0" height="57"/></clipPath><clipPath id="1782bc7542"><path d="M 328 140.40625 L 369.882812 140.40625 L 369.882812 209.953125 L 328 209.953125 Z M 328 140.40625 " clip-rule="nonzero"/></clipPath><clipPath id="f56b860642"><path d="M 356.859375 195.53125 C 356.003906 194.769531 355.140625 194.65625 355.140625 190.449219 L 355.140625 169.472656 L 365.152344 153.890625 L 355.140625 153.890625 L 355.140625 140.777344 L 338.949219 140.777344 L 328.101562 168.792969 L 337.695312 168.792969 L 337.695312 194.863281 C 337.695312 201.417969 339.371094 203.714844 342.316406 206.027344 C 347.800781 210.339844 353.214844 209.765625 358.710938 209.609375 L 369.855469 196.109375 C 365.441406 196.109375 357.804688 196.3125 356.867188 195.53125 " clip-rule="nonzero"/></clipPath><clipPath id="102ec0d7d6"><path d="M 0.078125 0.640625 L 41.882812 0.640625 L 41.882812 69.953125 L 0.078125 69.953125 Z M 0.078125 0.640625 " clip-rule="nonzero"/></clipPath><clipPath id="2d4ebd1476"><path d="M 28.859375 55.53125 C 28.003906 54.769531 27.140625 54.65625 27.140625 50.449219 L 27.140625 29.472656 L 37.152344 13.890625 L 27.140625 13.890625 L 27.140625 0.777344 L 10.949219 0.777344 L 0.101562 28.792969 L 9.695312 28.792969 L 9.695312 54.863281 C 9.695312 61.417969 11.371094 63.714844 14.316406 66.027344 C 19.800781 70.339844 25.214844 69.765625 30.710938 69.609375 L 41.855469 56.109375 C 37.441406 56.109375 29.804688 56.3125 28.867188 55.53125 " clip-rule="nonzero"/></clipPath><clipPath id="90071391ab"><rect x="0" width="42" y="0" height="70"/></clipPath><clipPath id="0162785855"><path d="M 309.273438 219 L 326.753906 219 L 326.753906 221.609375 L 309.273438 221.609375 Z M 309.273438 219 " clip-rule="nonzero"/></clipPath><clipPath id="f75972fcf3"><path d="M 309.617188 221.382812 L 326.464844 221.382812 L 326.464844 219.152344 L 311.851562 219.152344 C 310.617188 219.152344 309.617188 220.148438 309.617188 221.382812 " clip-rule="nonzero"/></clipPath><clipPath id="8b0f97a555"><path d="M 0.601562 0.121094 L 17.640625 0.121094 L 17.640625 2.519531 L 0.601562 2.519531 Z M 0.601562 0.121094 " clip-rule="nonzero"/></clipPath><clipPath id="b20c6d74bb"><path d="M 0.617188 2.382812 L 17.464844 2.382812 L 17.464844 0.152344 L 2.851562 0.152344 C 1.617188 0.152344 0.617188 1.148438 0.617188 2.382812 " clip-rule="nonzero"/></clipPath><clipPath id="daa91e71cd"><rect x="0" width="18" y="0" height="3"/></clipPath><clipPath id="e38c62bc46"><path d="M 309.617188 223.289062 L 326.464844 223.289062 L 326.464844 225.523438 L 309.617188 225.523438 Z M 309.617188 225.523438 L 311.851562 225.523438 L 311.851562 227.4375 L 309.617188 227.4375 Z M 309.617188 227.4375 L 326.464844 227.4375 L 326.464844 229.667969 L 309.617188 229.667969 Z M 309.617188 227.4375 " clip-rule="nonzero"/></clipPath><clipPath id="a1ed3766e2"><path d="M 0.617188 0.289062 L 17.464844 0.289062 L 17.464844 2.523438 L 0.617188 2.523438 Z M 0.617188 2.523438 L 2.851562 2.523438 L 2.851562 4.4375 L 0.617188 4.4375 Z M 0.617188 4.4375 L 17.464844 4.4375 L 17.464844 6.667969 L 0.617188 6.667969 Z M 0.617188 4.4375 " clip-rule="nonzero"/></clipPath><clipPath id="538ae2214c"><rect x="0" width="18" y="0" height="7"/></clipPath><clipPath id="fd463a2d97"><path d="M 351.234375 219 L 369.882812 219 L 369.882812 229.769531 L 351.234375 229.769531 Z M 351.234375 219 " clip-rule="nonzero"/></clipPath><clipPath id="09ccee2d0d"><path d="M 366.605469 219.152344 L 354.367188 219.152344 C 352.742188 219.152344 351.425781 220.46875 351.425781 222.09375 L 351.425781 226.726562 C 351.425781 228.351562 352.742188 229.667969 354.367188 229.667969 L 366.59375 229.667969 C 368.21875 229.667969 369.539062 228.351562 369.539062 226.726562 L 369.539062 222.09375 C 369.539062 220.46875 368.21875 219.152344 366.59375 219.152344 M 366.59375 227.445312 L 354.367188 227.445312 C 353.976562 227.445312 353.65625 227.128906 353.65625 226.738281 L 353.65625 222.105469 C 353.65625 221.714844 353.976562 221.394531 354.367188 221.394531 L 366.59375 221.394531 C 366.984375 221.394531 367.304688 221.714844 367.304688 222.105469 L 367.304688 226.738281 C 367.304688 227.128906 366.984375 227.445312 366.59375 227.445312 " clip-rule="nonzero"/></clipPath><clipPath id="99bcbc0fcc"><path d="M 0.359375 0.121094 L 18.601562 0.121094 L 18.601562 10.679688 L 0.359375 10.679688 Z M 0.359375 0.121094 " clip-rule="nonzero"/></clipPath><clipPath id="bcc3921f86"><path d="M 15.605469 0.152344 L 3.367188 0.152344 C 1.742188 0.152344 0.425781 1.46875 0.425781 3.09375 L 0.425781 7.726562 C 0.425781 9.351562 1.742188 10.667969 3.367188 10.667969 L 15.59375 10.667969 C 17.21875 10.667969 18.539062 9.351562 18.539062 7.726562 L 18.539062 3.09375 C 18.539062 1.46875 17.21875 0.152344 15.59375 0.152344 M 15.59375 8.445312 L 3.367188 8.445312 C 2.976562 8.445312 2.65625 8.128906 2.65625 7.738281 L 2.65625 3.105469 C 2.65625 2.714844 2.976562 2.394531 3.367188 2.394531 L 15.59375 2.394531 C 15.984375 2.394531 16.304688 2.714844 16.304688 3.105469 L 16.304688 7.738281 C 16.304688 8.128906 15.984375 8.445312 15.59375 8.445312 " clip-rule="nonzero"/></clipPath><clipPath id="7019dc4d07"><rect x="0" width="19" y="0" height="11"/></clipPath><clipPath id="740cb18a03"><path d="M 260.707031 219 L 285 219 L 285 229.769531 L 260.707031 229.769531 Z M 260.707031 219 " clip-rule="nonzero"/></clipPath><clipPath id="b2b11b0746"><path d="M 274.050781 219.152344 L 271.609375 219.152344 L 260.855469 229.667969 L 264.046875 229.667969 L 272.835938 221.074219 L 281.625 229.667969 L 284.816406 229.667969 Z M 274.050781 219.152344 " clip-rule="nonzero"/></clipPath><clipPath id="a175c61711"><path d="M 0.707031 0.121094 L 24.878906 0.121094 L 24.878906 10.679688 L 0.707031 10.679688 Z M 0.707031 0.121094 " clip-rule="nonzero"/></clipPath><clipPath id="94b82e3c85"><path d="M 14.050781 0.152344 L 11.609375 0.152344 L 0.855469 10.667969 L 4.046875 10.667969 L 12.835938 2.074219 L 21.625 10.667969 L 24.816406 10.667969 Z M 14.050781 0.152344 " clip-rule="nonzero"/></clipPath><clipPath id="f7aa982985"><rect x="0" width="25" y="0" height="11"/></clipPath><clipPath id="51b9b2c80b"><path d="M 282.074219 219 L 306.164062 219 L 306.164062 229.769531 L 282.074219 229.769531 Z M 282.074219 219 " clip-rule="nonzero"/></clipPath><clipPath id="5446d797b0"><path d="M 302.960938 219.152344 L 294.171875 227.746094 L 285.382812 219.152344 L 282.191406 219.152344 L 292.945312 229.679688 L 295.386719 229.679688 L 306.152344 219.152344 Z M 302.960938 219.152344 " clip-rule="nonzero"/></clipPath><clipPath id="808559d85c"><path d="M 0.0742188 0.121094 L 24.164062 0.121094 L 24.164062 10.679688 L 0.0742188 10.679688 Z M 0.0742188 0.121094 " clip-rule="nonzero"/></clipPath><clipPath id="7f043540b6"><path d="M 20.960938 0.152344 L 12.171875 8.746094 L 3.382812 0.152344 L 0.191406 0.152344 L 10.945312 10.679688 L 13.386719 10.679688 L 24.152344 0.152344 Z M 20.960938 0.152344 " clip-rule="nonzero"/></clipPath><clipPath id="ffe55d4be3"><rect x="0" width="25" y="0" height="11"/></clipPath><clipPath id="1db218c0c5"><path d="M 241.277344 219 L 257.597656 219 L 257.597656 221.609375 L 241.277344 221.609375 Z M 241.277344 219 " clip-rule="nonzero"/></clipPath><clipPath id="f6aa6145af"><path d="M 257.449219 219.152344 L 244.398438 219.152344 C 243.226562 219.152344 242.144531 219.800781 241.589844 220.839844 L 241.300781 221.382812 L 257.449219 221.382812 Z M 257.449219 219.152344 " clip-rule="nonzero"/></clipPath><clipPath id="9e7e06bf40"><path d="M 0.277344 0.121094 L 16.519531 0.121094 L 16.519531 2.519531 L 0.277344 2.519531 Z M 0.277344 0.121094 " clip-rule="nonzero"/></clipPath><clipPath id="38add13652"><path d="M 16.449219 0.152344 L 3.398438 0.152344 C 2.226562 0.152344 1.144531 0.800781 0.589844 1.839844 L 0.300781 2.382812 L 16.449219 2.382812 Z M 16.449219 0.152344 " clip-rule="nonzero"/></clipPath><clipPath id="abf304e148"><rect x="0" width="17" y="0" height="3"/></clipPath><clipPath id="8609b42ee3"><path d="M 241.277344 223.164062 L 258.375 223.164062 L 258.375 229.769531 L 241.277344 229.769531 Z M 241.277344 223.164062 " clip-rule="nonzero"/></clipPath><clipPath id="4809a734e5"><path d="M 257.675781 224.988281 C 257.121094 223.949219 256.039062 223.300781 254.867188 223.300781 L 241.292969 223.300781 L 241.578125 223.84375 C 242.136719 224.882812 243.214844 225.53125 244.390625 225.53125 L 254.855469 225.53125 C 255.371094 225.53125 255.8125 225.976562 255.8125 226.488281 C 255.8125 227.003906 255.371094 227.445312 254.855469 227.445312 L 241.816406 227.445312 L 241.816406 229.679688 L 254.867188 229.679688 C 256.625 229.679688 258.058594 228.25 258.058594 226.488281 C 258.058594 225.964844 257.921875 225.449219 257.675781 224.988281 " clip-rule="nonzero"/></clipPath><clipPath id="f650b484d6"><path d="M 0.277344 0.199219 L 17.238281 0.199219 L 17.238281 6.679688 L 0.277344 6.679688 Z M 0.277344 0.199219 " clip-rule="nonzero"/></clipPath><clipPath id="fc839aab10"><path d="M 16.675781 1.988281 C 16.121094 0.949219 15.039062 0.300781 13.867188 0.300781 L 0.292969 0.300781 L 0.578125 0.84375 C 1.136719 1.882812 2.214844 2.53125 3.390625 2.53125 L 13.855469 2.53125 C 14.371094 2.53125 14.8125 2.976562 14.8125 3.488281 C 14.8125 4.003906 14.371094 4.445312 13.855469 4.445312 L 0.816406 4.445312 L 0.816406 6.679688 L 13.867188 6.679688 C 15.625 6.679688 17.058594 5.25 17.058594 3.488281 C 17.058594 2.964844 16.921875 2.449219 16.675781 1.988281 " clip-rule="nonzero"/></clipPath><clipPath id="8bb8b11804"><rect x="0" width="18" y="0" height="7"/></clipPath><clipPath id="9810df900a"><path d="M 330.511719 219.152344 L 347.359375 219.152344 L 347.359375 221.382812 L 330.511719 221.382812 Z M 337.820312 221.382812 L 340.050781 221.382812 L 340.050781 229.679688 L 337.820312 229.679688 Z M 337.820312 221.382812 " clip-rule="nonzero"/></clipPath><clipPath id="ed480535a1"><path d="M 0.511719 0.152344 L 17.359375 0.152344 L 17.359375 2.382812 L 0.511719 2.382812 Z M 7.820312 2.382812 L 10.050781 2.382812 L 10.050781 10.679688 L 7.820312 10.679688 Z M 7.820312 2.382812 " clip-rule="nonzero"/></clipPath><clipPath id="2870f25790"><rect x="0" width="18" y="0" height="11"/></clipPath><clipPath id="bc4fee147c"><path d="M 219.519531 219 L 235.839844 219 L 235.839844 229.769531 L 219.519531 229.769531 Z M 219.519531 219 " clip-rule="nonzero"/></clipPath><clipPath id="eca4524f55"><path d="M 230.464844 219.140625 L 219.832031 229.667969 L 225.144531 229.667969 L 235.671875 219.140625 Z M 230.464844 219.140625 " clip-rule="nonzero"/></clipPath><clipPath id="bdbc3d60cb"><path d="M 0.601562 0.121094 L 16.679688 0.121094 L 16.679688 10.679688 L 0.601562 10.679688 Z M 0.601562 0.121094 " clip-rule="nonzero"/></clipPath><clipPath id="a1545dc5e3"><path d="M 11.464844 0.140625 L 0.832031 10.667969 L 6.144531 10.667969 L 16.671875 0.140625 Z M 11.464844 0.140625 " clip-rule="nonzero"/></clipPath><clipPath id="c6dae1eae7"><rect x="0" width="17" y="0" height="11"/></clipPath><clipPath id="fffc2543e2"><path d="M 206.3125 219 L 222.628906 219 L 222.628906 229.769531 L 206.3125 229.769531 Z M 206.3125 219 " clip-rule="nonzero"/></clipPath><clipPath id="484d0de1f0"><path d="M 217.042969 219.140625 L 206.421875 229.667969 L 211.734375 229.667969 L 222.261719 219.140625 Z M 217.042969 219.140625 " clip-rule="nonzero"/></clipPath><clipPath id="648aa9005a"><path d="M 0.398438 0.121094 L 16.480469 0.121094 L 16.480469 10.679688 L 0.398438 10.679688 Z M 0.398438 0.121094 " clip-rule="nonzero"/></clipPath><clipPath id="79b12c13e1"><path d="M 11.042969 0.140625 L 0.421875 10.667969 L 5.734375 10.667969 L 16.261719 0.140625 Z M 11.042969 0.140625 " clip-rule="nonzero"/></clipPath><clipPath id="f6e6ddecf9"><rect x="0" width="17" y="0" height="11"/></clipPath><clipPath id="69d35ff85a"><path d="M 193 219 L 209 219 L 209 229.769531 L 193 229.769531 Z M 193 219 " clip-rule="nonzero"/></clipPath><clipPath id="b1fbe24b89"><path d="M 203.625 219.140625 L 193.003906 229.667969 L 198.3125 229.667969 L 208.839844 219.140625 Z M 203.625 219.140625 " clip-rule="nonzero"/></clipPath><clipPath id="afe5b64e99"><path d="M 0 0.121094 L 16 0.121094 L 16 10.679688 L 0 10.679688 Z M 0 0.121094 " clip-rule="nonzero"/></clipPath><clipPath id="ee9f992d36"><path d="M 10.625 0.140625 L 0.00390625 10.667969 L 5.3125 10.667969 L 15.839844 0.140625 Z M 10.625 0.140625 " clip-rule="nonzero"/></clipPath><clipPath id="8462e51680"><rect x="0" width="16" y="0" height="11"/></clipPath><clipPath id="8945becb0d"><path d="M 179.5 219 L 195.433594 219 L 195.433594 229.769531 L 179.5 229.769531 Z M 179.5 219 " clip-rule="nonzero"/></clipPath><clipPath id="78988df1a5"><path d="M 190.203125 219.140625 L 179.582031 229.667969 L 184.890625 229.667969 L 195.421875 219.140625 Z M 190.203125 219.140625 " clip-rule="nonzero"/></clipPath><clipPath id="19df631123"><path d="M 0.519531 0.121094 L 16.433594 0.121094 L 16.433594 10.679688 L 0.519531 10.679688 Z M 0.519531 0.121094 " clip-rule="nonzero"/></clipPath><clipPath id="4acf1fa8ae"><path d="M 11.203125 0.140625 L 0.582031 10.667969 L 5.890625 10.667969 L 16.421875 0.140625 Z M 11.203125 0.140625 " clip-rule="nonzero"/></clipPath><clipPath id="ea9dc8d5a2"><rect x="0" width="17" y="0" height="11"/></clipPath><clipPath id="de66db17c4"><path d="M 166 219 L 182 219 L 182 229.769531 L 166 229.769531 Z M 166 219 " clip-rule="nonzero"/></clipPath><clipPath id="2086e73a1e"><path d="M 176.792969 219.140625 L 166.160156 229.667969 L 171.472656 229.667969 L 182 219.140625 Z M 176.792969 219.140625 " clip-rule="nonzero"/></clipPath><clipPath id="c65b52d623"><path d="M 0.078125 0.121094 L 16 0.121094 L 16 10.679688 L 0.078125 10.679688 Z M 0.078125 0.121094 " clip-rule="nonzero"/></clipPath><clipPath id="bcfa6643d6"><path d="M 10.792969 0.140625 L 0.160156 10.667969 L 5.472656 10.667969 L 16 0.140625 Z M 10.792969 0.140625 " clip-rule="nonzero"/></clipPath><clipPath id="a256a7b900"><rect x="0" width="16" y="0" height="11"/></clipPath><clipPath id="98f4a17e11"><path d="M 152.691406 219 L 168.621094 219 L 168.621094 229.769531 L 152.691406 229.769531 Z M 152.691406 219 " clip-rule="nonzero"/></clipPath><clipPath id="03fc0ecb0d"><path d="M 163.371094 219.140625 L 152.75 229.667969 L 158.0625 229.667969 L 168.578125 219.140625 Z M 163.371094 219.140625 " clip-rule="nonzero"/></clipPath><clipPath id="cb63dc390e"><path d="M 0.691406 0.121094 L 16.621094 0.121094 L 16.621094 10.679688 L 0.691406 10.679688 Z M 0.691406 0.121094 " clip-rule="nonzero"/></clipPath><clipPath id="56dfdc0d98"><path d="M 11.371094 0.140625 L 0.75 10.667969 L 6.0625 10.667969 L 16.578125 0.140625 Z M 11.371094 0.140625 " clip-rule="nonzero"/></clipPath><clipPath id="8d22f04c55"><rect x="0" width="17" y="0" height="11"/></clipPath><clipPath id="43958120af"><path d="M 139.09375 219 L 155.414062 219 L 155.414062 229.769531 L 139.09375 229.769531 Z M 139.09375 219 " clip-rule="nonzero"/></clipPath><clipPath id="d1bdd2a32f"><path d="M 149.953125 219.140625 L 139.332031 229.667969 L 144.640625 229.667969 L 155.167969 219.140625 Z M 149.953125 219.140625 " clip-rule="nonzero"/></clipPath><clipPath id="26cc007361"><path d="M 0.199219 0.121094 L 16.28125 0.121094 L 16.28125 10.679688 L 0.199219 10.679688 Z M 0.199219 0.121094 " clip-rule="nonzero"/></clipPath><clipPath id="b8667030e9"><path d="M 10.953125 0.140625 L 0.332031 10.667969 L 5.640625 10.667969 L 16.167969 0.140625 Z M 10.953125 0.140625 " clip-rule="nonzero"/></clipPath><clipPath id="33e060131a"><rect x="0" width="17" y="0" height="11"/></clipPath><clipPath id="d92e57ac7c"><path d="M 125.882812 219 L 141.8125 219 L 141.8125 229.769531 L 125.882812 229.769531 Z M 125.882812 219 " clip-rule="nonzero"/></clipPath><clipPath id="d89d1cf06d"><path d="M 136.53125 219.140625 L 125.910156 229.667969 L 131.21875 229.667969 L 141.75 219.140625 Z M 136.53125 219.140625 " clip-rule="nonzero"/></clipPath><clipPath id="385415d1c4"><path d="M 0.882812 0.121094 L 16.8125 0.121094 L 16.8125 10.679688 L 0.882812 10.679688 Z M 0.882812 0.121094 " clip-rule="nonzero"/></clipPath><clipPath id="3387b62c99"><path d="M 11.53125 0.140625 L 0.910156 10.667969 L 6.21875 10.667969 L 16.75 0.140625 Z M 11.53125 0.140625 " clip-rule="nonzero"/></clipPath><clipPath id="5d97377891"><rect x="0" width="17" y="0" height="11"/></clipPath><clipPath id="57a5a4f53a"><path d="M 112.285156 219 L 128.605469 219 L 128.605469 229.769531 L 112.285156 229.769531 Z M 112.285156 219 " clip-rule="nonzero"/></clipPath><clipPath id="5bcdc4256c"><path d="M 123.121094 219.140625 L 112.488281 229.667969 L 117.800781 229.667969 L 128.328125 219.140625 Z M 123.121094 219.140625 " clip-rule="nonzero"/></clipPath><clipPath id="14a2b5a63d"><path d="M 0.320312 0.121094 L 16.398438 0.121094 L 16.398438 10.679688 L 0.320312 10.679688 Z M 0.320312 0.121094 " clip-rule="nonzero"/></clipPath><clipPath id="bb15999def"><path d="M 11.121094 0.140625 L 0.488281 10.667969 L 5.800781 10.667969 L 16.328125 0.140625 Z M 11.121094 0.140625 " clip-rule="nonzero"/></clipPath><clipPath id="eae05b34ab"><rect x="0" width="17" y="0" height="11"/></clipPath><clipPath id="387017c8ba"><path d="M 99 219 L 115 219 L 115 229.769531 L 99 229.769531 Z M 99 219 " clip-rule="nonzero"/></clipPath><clipPath id="fc85c7aa60"><path d="M 109.699219 219.140625 L 99.070312 229.667969 L 104.378906 229.667969 L 114.90625 219.140625 Z M 109.699219 219.140625 " clip-rule="nonzero"/></clipPath><clipPath id="b0e0768b88"><path d="M 0 0.121094 L 15.960938 0.121094 L 15.960938 10.679688 L 0 10.679688 Z M 0 0.121094 " clip-rule="nonzero"/></clipPath><clipPath id="907559086b"><path d="M 10.699219 0.140625 L 0.0703125 10.667969 L 5.378906 10.667969 L 15.90625 0.140625 Z M 10.699219 0.140625 " clip-rule="nonzero"/></clipPath><clipPath id="c09f4aee47"><rect x="0" width="16" y="0" height="11"/></clipPath><clipPath id="f175c44eb5"><path d="M 85.476562 219 L 101.796875 219 L 101.796875 229.769531 L 85.476562 229.769531 Z M 85.476562 219 " clip-rule="nonzero"/></clipPath><clipPath id="91fb1f3f97"><path d="M 96.28125 219.140625 L 85.660156 229.667969 L 90.96875 229.667969 L 101.488281 219.140625 Z M 96.28125 219.140625 " clip-rule="nonzero"/></clipPath><clipPath id="c5637f0fe4"><path d="M 0.476562 0.121094 L 16.519531 0.121094 L 16.519531 10.679688 L 0.476562 10.679688 Z M 0.476562 0.121094 " clip-rule="nonzero"/></clipPath><clipPath id="05b867252c"><path d="M 11.28125 0.140625 L 0.660156 10.667969 L 5.96875 10.667969 L 16.488281 0.140625 Z M 11.28125 0.140625 " clip-rule="nonzero"/></clipPath><clipPath id="48bf5a5994"><rect x="0" width="17" y="0" height="11"/></clipPath><clipPath id="3766afb57c"><path d="M 72 219 L 88.195312 219 L 88.195312 229.769531 L 72 229.769531 Z M 72 219 " clip-rule="nonzero"/></clipPath><clipPath id="41127dff39"><path d="M 82.859375 219.140625 L 72.238281 229.667969 L 77.546875 229.667969 L 88.078125 219.140625 Z M 82.859375 219.140625 " clip-rule="nonzero"/></clipPath><clipPath id="a2d947c300"><path d="M 0 0.121094 L 16.078125 0.121094 L 16.078125 10.679688 L 0 10.679688 Z M 0 0.121094 " clip-rule="nonzero"/></clipPath><clipPath id="82d5bfe023"><path d="M 10.859375 0.140625 L 0.238281 10.667969 L 5.546875 10.667969 L 16.078125 0.140625 Z M 10.859375 0.140625 " clip-rule="nonzero"/></clipPath><clipPath id="3404e0d45f"><rect x="0" width="17" y="0" height="11"/></clipPath><clipPath id="596ff5c929"><path d="M 58.667969 219 L 74.988281 219 L 74.988281 229.769531 L 58.667969 229.769531 Z M 58.667969 219 " clip-rule="nonzero"/></clipPath><clipPath id="08d00683ff"><path d="M 69.4375 219.140625 L 58.816406 229.667969 L 64.128906 229.667969 L 74.65625 219.140625 Z M 69.4375 219.140625 " clip-rule="nonzero"/></clipPath><clipPath id="ba06fc24c9"><path d="M 0.800781 0.121094 L 16.878906 0.121094 L 16.878906 10.679688 L 0.800781 10.679688 Z M 0.800781 0.121094 " clip-rule="nonzero"/></clipPath><clipPath id="2b981aa85d"><path d="M 11.4375 0.140625 L 0.816406 10.667969 L 6.128906 10.667969 L 16.65625 0.140625 Z M 11.4375 0.140625 " clip-rule="nonzero"/></clipPath><clipPath id="bebace8854"><rect x="0" width="17" y="0" height="11"/></clipPath><clipPath id="74fc272b09"><path d="M 45.070312 219 L 61.386719 219 L 61.386719 229.769531 L 45.070312 229.769531 Z M 45.070312 219 " clip-rule="nonzero"/></clipPath><clipPath id="472c6e975f"><path d="M 56.027344 219.140625 L 45.398438 229.667969 L 50.707031 229.667969 L 61.234375 219.140625 Z M 56.027344 219.140625 " clip-rule="nonzero"/></clipPath><clipPath id="81a2048f4c"><path d="M 0.359375 0.121094 L 16.386719 0.121094 L 16.386719 10.679688 L 0.359375 10.679688 Z M 0.359375 0.121094 " clip-rule="nonzero"/></clipPath><clipPath id="93b16faf9a"><path d="M 11.027344 0.140625 L 0.398438 10.667969 L 5.707031 10.667969 L 16.234375 0.140625 Z M 11.027344 0.140625 " clip-rule="nonzero"/></clipPath><clipPath id="51369e281f"><rect x="0" width="17" y="0" height="11"/></clipPath><clipPath id="409d88a56b"><path d="M 31.859375 219 L 48 219 L 48 229.769531 L 31.859375 229.769531 Z M 31.859375 219 " clip-rule="nonzero"/></clipPath><clipPath id="b310141732"><path d="M 42.609375 219.140625 L 31.988281 229.667969 L 37.296875 229.667969 L 47.816406 219.140625 Z M 42.609375 219.140625 " clip-rule="nonzero"/></clipPath><clipPath id="62c54a65c6"><path d="M 0.921875 0.121094 L 17 0.121094 L 17 10.679688 L 0.921875 10.679688 Z M 0.921875 0.121094 " clip-rule="nonzero"/></clipPath><clipPath id="7da421b371"><path d="M 11.609375 0.140625 L 0.988281 10.667969 L 6.296875 10.667969 L 16.816406 0.140625 Z M 11.609375 0.140625 " clip-rule="nonzero"/></clipPath><clipPath id="680542793c"><rect x="0" width="17" y="0" height="11"/></clipPath><clipPath id="684a7a1e79"><path d="M 18.261719 219 L 34.578125 219 L 34.578125 229.769531 L 18.261719 229.769531 Z M 18.261719 219 " clip-rule="nonzero"/></clipPath><clipPath id="fff09d69a8"><path d="M 29.1875 219.140625 L 18.566406 229.667969 L 23.878906 229.667969 L 34.40625 219.140625 Z M 29.1875 219.140625 " clip-rule="nonzero"/></clipPath><clipPath id="a3e55dacdc"><path d="M 0.480469 0.121094 L 16.558594 0.121094 L 16.558594 10.679688 L 0.480469 10.679688 Z M 0.480469 0.121094 " clip-rule="nonzero"/></clipPath><clipPath id="1c91b1e92c"><path d="M 11.1875 0.140625 L 0.566406 10.667969 L 5.878906 10.667969 L 16.40625 0.140625 Z M 11.1875 0.140625 " clip-rule="nonzero"/></clipPath><clipPath id="b373a28c31"><rect x="0" width="17" y="0" height="11"/></clipPath><clipPath id="a4bb98cc59"><path d="M 5.050781 219 L 21 219 L 21 229.769531 L 5.050781 229.769531 Z M 5.050781 219 " clip-rule="nonzero"/></clipPath><clipPath id="ad5bb139b4"><path d="M 15.765625 219.140625 L 5.144531 229.667969 L 10.457031 229.667969 L 20.984375 219.140625 Z M 15.765625 219.140625 " clip-rule="nonzero"/></clipPath><clipPath id="a0a58d6849"><path d="M 0.0507812 0.121094 L 16 0.121094 L 16 10.679688 L 0.0507812 10.679688 Z M 0.0507812 0.121094 " clip-rule="nonzero"/></clipPath><clipPath id="3cc282c85f"><path d="M 10.765625 0.140625 L 0.144531 10.667969 L 5.457031 10.667969 L 15.984375 0.140625 Z M 10.765625 0.140625 " clip-rule="nonzero"/></clipPath><clipPath id="ed824aeba4"><rect x="0" width="16" y="0" height="11"/></clipPath></defs><g clip-path="url(#2623afcb8e)"><g clip-path="url(#f0a6a8dcc1)"><g transform="matrix(1, 0, 0, 1, 71, 150)"><g clip-path="url(#c57f26d962)"><g clip-path="url(#e6ea385948)"><g clip-path="url(#6e656d1f94)"><rect x="-153.5" width="540" fill="#1e9dd8" height="539.999987" y="-232.499998" fill-opacity="1"/></g></g></g></g></g></g><g clip-path="url(#5dccf96239)"><g clip-path="url(#81742f22cd)"><g transform="matrix(1, 0, 0, 1, 135, 140)"><g clip-path="url(#64bd1baaa7)"><g clip-path="url(#b750d48aa4)"><g clip-path="url(#71b0876e0e)"><rect x="-217.5" width="540" fill="#1e9dd8" height="539.999987" y="-222.499998" fill-opacity="1"/></g></g></g></g></g></g><g clip-path="url(#2a777e2a54)"><g clip-path="url(#36427c1c4c)"><g transform="matrix(1, 0, 0, 1, 233, 153)"><g clip-path="url(#fa1654b4b9)"><g clip-path="url(#7e0ca8d1c4)"><g clip-path="url(#7f4d40d8e3)"><rect x="-315.5" width="540" fill="#1e9dd8" height="539.999987" y="-235.499998" fill-opacity="1"/></g></g></g></g></g></g><g clip-path="url(#54ea194e74)"><g transform="matrix(1, 0, 0, 1, 309, 140)"><g clip-path="url(#593755cf03)"><g clip-path="url(#617ffbe290)"><rect x="-391.5" width="540" fill="#1e9dd8" height="539.999987" y="-222.499998" fill-opacity="1"/></g></g></g></g><g clip-path="url(#d4ccea61ad)"><g clip-path="url(#1f90192125)"><g transform="matrix(1, 0, 0, 1, 6, 155)"><g clip-path="url(#8befdbab99)"><g clip-path="url(#a69fcfd537)"><g clip-path="url(#4f02d29434)"><rect x="-88.5" width="540" fill="#1e9dd8" height="539.999987" y="-237.499998" fill-opacity="1"/></g></g></g></g></g></g><g clip-path="url(#1782bc7542)"><g clip-path="url(#f56b860642)"><g transform="matrix(1, 0, 0, 1, 328, 140)"><g clip-path="url(#90071391ab)"><g clip-path="url(#102ec0d7d6)"><g clip-path="url(#2d4ebd1476)"><rect x="-410.5" width="540" fill="#1e9dd8" height="539.999987" y="-222.499998" fill-opacity="1"/></g></g></g></g></g></g><g clip-path="url(#0162785855)"><g clip-path="url(#f75972fcf3)"><g transform="matrix(1, 0, 0, 1, 309, 219)"><g clip-path="url(#daa91e71cd)"><g clip-path="url(#8b0f97a555)"><g clip-path="url(#b20c6d74bb)"><rect x="-391.5" width="540" fill="#1e9dd8" height="539.999987" y="-301.499998" fill-opacity="1"/></g></g></g></g></g></g><g clip-path="url(#e38c62bc46)"><g transform="matrix(1, 0, 0, 1, 309, 223)"><g clip-path="url(#538ae2214c)"><g clip-path="url(#a1ed3766e2)"><rect x="-391.5" width="540" fill="#1e9dd8" height="539.999987" y="-305.499998" fill-opacity="1"/></g></g></g></g><g clip-path="url(#fd463a2d97)"><g clip-path="url(#09ccee2d0d)"><g transform="matrix(1, 0, 0, 1, 351, 219)"><g clip-path="url(#7019dc4d07)"><g clip-path="url(#99bcbc0fcc)"><g clip-path="url(#bcc3921f86)"><rect x="-433.5" width="540" fill="#1e9dd8" height="539.999987" y="-301.499998" fill-opacity="1"/></g></g></g></g></g></g><g clip-path="url(#740cb18a03)"><g clip-path="url(#b2b11b0746)"><g transform="matrix(1, 0, 0, 1, 260, 219)"><g clip-path="url(#f7aa982985)"><g clip-path="url(#a175c61711)"><g clip-path="url(#94b82e3c85)"><rect x="-342.5" width="540" fill="#1e9dd8" height="539.999987" y="-301.499998" fill-opacity="1"/></g></g></g></g></g></g><g clip-path="url(#51b9b2c80b)"><g clip-path="url(#5446d797b0)"><g transform="matrix(1, 0, 0, 1, 282, 219)"><g clip-path="url(#ffe55d4be3)"><g clip-path="url(#808559d85c)"><g clip-path="url(#7f043540b6)"><rect x="-364.5" width="540" fill="#1e9dd8" height="539.999987" y="-301.499998" fill-opacity="1"/></g></g></g></g></g></g><g clip-path="url(#1db218c0c5)"><g clip-path="url(#f6aa6145af)"><g transform="matrix(1, 0, 0, 1, 241, 219)"><g clip-path="url(#abf304e148)"><g clip-path="url(#9e7e06bf40)"><g clip-path="url(#38add13652)"><rect x="-323.5" width="540" fill="#1e9dd8" height="539.999987" y="-301.499998" fill-opacity="1"/></g></g></g></g></g></g><g clip-path="url(#8609b42ee3)"><g clip-path="url(#4809a734e5)"><g transform="matrix(1, 0, 0, 1, 241, 223)"><g clip-path="url(#8bb8b11804)"><g clip-path="url(#f650b484d6)"><g clip-path="url(#fc839aab10)"><rect x="-323.5" width="540" fill="#1e9dd8" height="539.999987" y="-305.499998" fill-opacity="1"/></g></g></g></g></g></g><g clip-path="url(#9810df900a)"><g transform="matrix(1, 0, 0, 1, 330, 219)"><g clip-path="url(#2870f25790)"><g clip-path="url(#ed480535a1)"><rect x="-412.5" width="540" fill="#1e9dd8" height="539.999987" y="-301.499998" fill-opacity="1"/></g></g></g></g><g clip-path="url(#bc4fee147c)"><g clip-path="url(#eca4524f55)"><g transform="matrix(1, 0, 0, 1, 219, 219)"><g clip-path="url(#c6dae1eae7)"><g clip-path="url(#bdbc3d60cb)"><g clip-path="url(#a1545dc5e3)"><rect x="-301.5" width="540" fill="#1e9dd8" height="539.999987" y="-301.499998" fill-opacity="1"/></g></g></g></g></g></g><g clip-path="url(#fffc2543e2)"><g clip-path="url(#484d0de1f0)"><g transform="matrix(1, 0, 0, 1, 206, 219)"><g clip-path="url(#f6e6ddecf9)"><g clip-path="url(#648aa9005a)"><g clip-path="url(#79b12c13e1)"><rect x="-288.5" width="540" fill="#1e9dd8" height="539.999987" y="-301.499998" fill-opacity="1"/></g></g></g></g></g></g><g clip-path="url(#69d35ff85a)"><g clip-path="url(#b1fbe24b89)"><g transform="matrix(1, 0, 0, 1, 193, 219)"><g clip-path="url(#8462e51680)"><g clip-path="url(#afe5b64e99)"><g clip-path="url(#ee9f992d36)"><rect x="-275.5" width="540" fill="#1e9dd8" height="539.999987" y="-301.499998" fill-opacity="1"/></g></g></g></g></g></g><g clip-path="url(#8945becb0d)"><g clip-path="url(#78988df1a5)"><g transform="matrix(1, 0, 0, 1, 179, 219)"><g clip-path="url(#ea9dc8d5a2)"><g clip-path="url(#19df631123)"><g clip-path="url(#4acf1fa8ae)"><rect x="-261.5" width="540" fill="#1e9dd8" height="539.999987" y="-301.499998" fill-opacity="1"/></g></g></g></g></g></g><g clip-path="url(#de66db17c4)"><g clip-path="url(#2086e73a1e)"><g transform="matrix(1, 0, 0, 1, 166, 219)"><g clip-path="url(#a256a7b900)"><g clip-path="url(#c65b52d623)"><g clip-path="url(#bcfa6643d6)"><rect x="-248.5" width="540" fill="#1e9dd8" height="539.999987" y="-301.499998" fill-opacity="1"/></g></g></g></g></g></g><g clip-path="url(#98f4a17e11)"><g clip-path="url(#03fc0ecb0d)"><g transform="matrix(1, 0, 0, 1, 152, 219)"><g clip-path="url(#8d22f04c55)"><g clip-path="url(#cb63dc390e)"><g clip-path="url(#56dfdc0d98)"><rect x="-234.5" width="540" fill="#1e9dd8" height="539.999987" y="-301.499998" fill-opacity="1"/></g></g></g></g></g></g><g clip-path="url(#43958120af)"><g clip-path="url(#d1bdd2a32f)"><g transform="matrix(1, 0, 0, 1, 139, 219)"><g clip-path="url(#33e060131a)"><g clip-path="url(#26cc007361)"><g clip-path="url(#b8667030e9)"><rect x="-221.5" width="540" fill="#1e9dd8" height="539.999987" y="-301.499998" fill-opacity="1"/></g></g></g></g></g></g><g clip-path="url(#d92e57ac7c)"><g clip-path="url(#d89d1cf06d)"><g transform="matrix(1, 0, 0, 1, 125, 219)"><g clip-path="url(#5d97377891)"><g clip-path="url(#385415d1c4)"><g clip-path="url(#3387b62c99)"><rect x="-207.5" width="540" fill="#1e9dd8" height="539.999987" y="-301.499998" fill-opacity="1"/></g></g></g></g></g></g><g clip-path="url(#57a5a4f53a)"><g clip-path="url(#5bcdc4256c)"><g transform="matrix(1, 0, 0, 1, 112, 219)"><g clip-path="url(#eae05b34ab)"><g clip-path="url(#14a2b5a63d)"><g clip-path="url(#bb15999def)"><rect x="-194.5" width="540" fill="#1e9dd8" height="539.999987" y="-301.499998" fill-opacity="1"/></g></g></g></g></g></g><g clip-path="url(#387017c8ba)"><g clip-path="url(#fc85c7aa60)"><g transform="matrix(1, 0, 0, 1, 99, 219)"><g clip-path="url(#c09f4aee47)"><g clip-path="url(#b0e0768b88)"><g clip-path="url(#907559086b)"><rect x="-181.5" width="540" fill="#1e9dd8" height="539.999987" y="-301.499998" fill-opacity="1"/></g></g></g></g></g></g><g clip-path="url(#f175c44eb5)"><g clip-path="url(#91fb1f3f97)"><g transform="matrix(1, 0, 0, 1, 85, 219)"><g clip-path="url(#48bf5a5994)"><g clip-path="url(#c5637f0fe4)"><g clip-path="url(#05b867252c)"><rect x="-167.5" width="540" fill="#1e9dd8" height="539.999987" y="-301.499998" fill-opacity="1"/></g></g></g></g></g></g><g clip-path="url(#3766afb57c)"><g clip-path="url(#41127dff39)"><g transform="matrix(1, 0, 0, 1, 72, 219)"><g clip-path="url(#3404e0d45f)"><g clip-path="url(#a2d947c300)"><g clip-path="url(#82d5bfe023)"><rect x="-154.5" width="540" fill="#1e9dd8" height="539.999987" y="-301.499998" fill-opacity="1"/></g></g></g></g></g></g><g clip-path="url(#596ff5c929)"><g clip-path="url(#08d00683ff)"><g transform="matrix(1, 0, 0, 1, 58, 219)"><g clip-path="url(#bebace8854)"><g clip-path="url(#ba06fc24c9)"><g clip-path="url(#2b981aa85d)"><rect x="-140.5" width="540" fill="#1e9dd8" height="539.999987" y="-301.499998" fill-opacity="1"/></g></g></g></g></g></g><g clip-path="url(#74fc272b09)"><g clip-path="url(#472c6e975f)"><g transform="matrix(1, 0, 0, 1, 45, 219)"><g clip-path="url(#51369e281f)"><g clip-path="url(#81a2048f4c)"><g clip-path="url(#93b16faf9a)"><rect x="-127.5" width="540" fill="#1e9dd8" height="539.999987" y="-301.499998" fill-opacity="1"/></g></g></g></g></g></g><g clip-path="url(#409d88a56b)"><g clip-path="url(#b310141732)"><g transform="matrix(1, 0, 0, 1, 31, 219)"><g clip-path="url(#680542793c)"><g clip-path="url(#62c54a65c6)"><g clip-path="url(#7da421b371)"><rect x="-113.5" width="540" fill="#1e9dd8" height="539.999987" y="-301.499998" fill-opacity="1"/></g></g></g></g></g></g><g clip-path="url(#684a7a1e79)"><g clip-path="url(#fff09d69a8)"><g transform="matrix(1, 0, 0, 1, 18, 219)"><g clip-path="url(#b373a28c31)"><g clip-path="url(#a3e55dacdc)"><g clip-path="url(#1c91b1e92c)"><rect x="-100.5" width="540" fill="#1e9dd8" height="539.999987" y="-301.499998" fill-opacity="1"/></g></g></g></g></g></g><g clip-path="url(#a4bb98cc59)"><g clip-path="url(#ad5bb139b4)"><g transform="matrix(1, 0, 0, 1, 5, 219)"><g clip-path="url(#ed824aeba4)"><g clip-path="url(#a0a58d6849)"><g clip-path="url(#3cc282c85f)"><rect x="-87.5" width="540" fill="#1e9dd8" height="539.999987" y="-301.499998" fill-opacity="1"/></g></g></g></g></g></g></svg>