<svg xmlns="http://www.w3.org/2000/svg" width="500" height="500" viewBox="0 0 375 375">
    <defs>
        <clipPath id="b">
            <path d="M45.332.95h252.473v95.585H45.332Zm0 0"/>
        </clipPath>
        <clipPath id="c">
            <path d="M225.43 54.887h47.793V94.37H225.43Zm0 0"/>
        </clipPath>
        <clipPath id="d">
            <path d="M.32 114h345.36v57H.32Zm0 0"/>
        </clipPath>
        <clipPath id="e">
            <path d="M0 0h346v57H0z"/>
        </clipPath>
        <clipPath id="a">
            <path d="M0 0h346v199H0z"/>
        </clipPath>
    </defs>
    <g clip-path="url(#a)" transform="translate(16 88)">
        <g clip-path="url(#b)">
            <path fill="#b48e2e" d="M91.992 9.078 51.043 50.016V96.46h-5.711V47.656l15.297-15.304V12.098h8.652v11.609L91.992.997l50.836 50.843h-8.082ZM59.047 93.797V53.336L91.992 20.39l31.45 31.449h3.773L91.992 16.617 56.38 52.23v44.24h241.277V93.8H59.046Zm0 0"/>
        </g>
        <g clip-path="url(#c)">
            <path fill="#fff" fill-rule="evenodd" d="M253.148 91.55c-.003.415-.011.825-.011 1.24-.004.515-.07.589-.59.632h-.117c-.258-.004-.52-.012-.778-.012h-8.527c-.43 0-.562-.133-.562-.57q0-.621.003-1.242c.004-.477.137-.606.602-.606.613 0 1.23-.015 1.848.004.242.008.265-.086.28-.293.017-.238-.116-.21-.265-.21-1.636 0-3.273-.013-4.914-.005-.336.004-.566-.097-.726-.394-.145-.262-.328-.5-.477-.758-.07-.121-.148-.172-.293-.172-1.078.008-2.16.012-3.238.004-.188 0-.262.047-.227.238.031.156-.11.39.242.375.559-.027 1.118-.004 1.676 0 .422 0 .535.102.602.5.125.754.125.754.867.754l2.312.008c.485.004.641.156.66.637.016.394.024.789.044 1.183.007.18.004.352-.164.461-.133.09-.016.153.023.211.164.266.34.528.535.824h-1.266c-.14 0-.19-.097-.238-.207l-.379-.715q-.032.017-.062.04.186.39.379.78c-.028.126-.117.126-.219.13-.191 0-.379-.059-.57-.004-.403.113-.48-.2-.59-.461-.07-.18-.121-.367-.285-.492q.041.264.187.488c.004.027.012.055.016.082.02.117.164.293.062.328-.164.055-.39.129-.55-.062q-.165-.418-.329-.84l-.082.035q.152.41.309.82c-.012.047-.016.094-.082.09-.316 0-.629-.004-.941 0-.098.004-.133-.039-.165-.117-.054-.14-.12-.277-.183-.414l-.047-.121q-.04-.083-.074-.164c-.02-.04-.012-.13-.082-.09-.051.027.008.09.027.137l.063.171q.02.06.043.118l.14.476c-.328 0-.637-.012-.941.004-.164.012-.239-.043-.29-.195-.046-.153-.058-.332-.234-.469-.02.195.082.324.121.457.059.18.008.227-.16.207-.11-.012-.23.031-.332-.047q-.14-.428-.281-.851c.02.18.074.347.121.515.031.13.14.25.04.39-.212-.054-.485.095-.626-.066-.129-.148-.129-.406-.187-.617l-.075-.215c-.02-.011-.054-.035-.058-.03-.028.027-.02.062.004.09q.045.313.086.628c.007.047.03.121.011.137-.191.152-.414.027-.62.062-.114.02-.153-.027-.157-.14a24 24 0 0 0-.039-.743h-.078c0 .23-.012.465.004.696.015.246-.149.183-.285.191-.153.012-.239-.023-.211-.203.02-.117.02-.242.027-.418-.145.137-.14.266-.145.375-.011.207-.105.246-.292.246-.536-.008-.536 0-.426-.512q.023-.099.035-.199c.004-.004-.008-.015-.055-.066-.07.21-.148.394-.187.582-.035.156-.11.199-.262.191-.297-.012-.594-.004-.906-.004.043-.324.195-.605.27-.914-.114-.02-.134.04-.157.102l-.145.41c-.156.441-.156.441-.652.371.031-.113.063-.219.094-.328l.016-.07c.078-.153.16-.305.132-.496-.062.14-.12.285-.18.425q-.022.048-.038.094c-.094.348-.32.465-.668.41a1.8 1.8 0 0 0-.457 0c-.176.024-.184-.058-.141-.187.012-.051.078-.114.02-.145-.079-.047-.07.047-.09.086-.106.215-.356.332-.551.242-.145-.066.012-.16-.012-.242.04-.098.078-.191.113-.289l.047-.117q.02-.064.043-.13c.043-.038.082-.097.02-.132-.035-.02-.063.047-.078.09l-.047.117-.047.125c-.043.094-.082.188-.125.278-.063.257-.211.347-.477.312-.226-.031-.46-.016-.691-.004-.137.004-.14-.055-.102-.152q.165-.376.332-.746a.4.4 0 0 0-.058-.028q-.17.38-.348.766c-.058.102-.12.195-.265.168-.266-.059-.532 0-.801 0-.18-.004-.2-.055-.11-.2.09-.148.16-.308.25-.456.114-.184.258-.352.012-.551-.039-.035-.031-.145-.027-.219q0-.666.015-1.332c.008-.402.184-.578.586-.582 1.043-.004 2.082-.008 3.125.008.196 0 .27-.063.309-.238.043-.215.113-.426.164-.641.059-.27.223-.395.492-.387.098.004.195-.008.29.004.206.024.288-.027.296-.27.012-.3-.078-.363-.363-.347-.488.027-.98.008-1.473.008-.644-.004-1.012-.367-1.012-.996l.012-3.211c0-.219.024-.426.207-.574.051-.043.055-.094.063-.149.136-.871.257-1.746.414-2.613.207-1.172.437-2.34.664-3.508.097-.52.191-1.04.312-1.555.325-1.394 1.45-2.375 2.875-2.543 3.434-.402 6.864-.812 10.297-1.222.64-.075 1.278-.16 1.918-.23.149-.016.219-.079.274-.208.21-.496.441-.984.648-1.48.117-.274.29-.426.598-.457.586-.059 1.164-.153 1.75-.223.164-.02.25-.043.246-.25-.012-.832.008-.844.828-.844h3.758c.441.004.582.145.586.59.007.492.007.492.507.496.61.004 1.215.012 1.825.004.293-.004.496.11.625.371.02.043.05.082.066.13.16.413.336.671.902.542.497-.11 1.02.07 1.305.594.059.11.113.058.18.031a5.5 5.5 0 0 1 1.449-.371c.11-.012.168-.055.215-.148l6.363-13.04c.004-.011 0-.035 0-.078-.293.075-.578.149-.867.22-.586.151-1.117-.15-1.25-.708-.148-.61.184-1.156.785-1.293 1.547-.351 3.098-.691 4.64-1.066.622-.149 1.22-.39 1.864-.48.953-.134 1.5.484 1.348 1.433-.078.46-.125.91-.297 1.347-.52 1.325-1.453 2.223-2.758 2.75q-.791.322-1.613.543c-.121.032-.219.07-.282.208-1.796 3.68-3.593 7.363-5.398 11.039-.098.199-.094.335.016.539.343.636.476 1.34.52 2.054.089 1.532-.102 3.02-.735 4.43-.238.531-.54 1.023-.988 1.406-.254.215-.54.383-.86.457-.187.04-.152.153-.156.274-.008.16.101.152.207.164q.157.017.316.047c.766.132 1.075.535 1.004 1.308-.015.192-.047.383-.078.574-.117.73-.543 1.22-1.23 1.473-.192.07-.23.164-.23.352.007 1.066.003 2.136.003 3.207.004.703-.226 1.304-.8 1.742-.16.121-.071.266-.063.39.012.157.148.051.23.067.055.012.117 0 .172 0 .7.004.774.062.98.723.024.062.016.152.122.187.054-.18.02-.363.023-.539.016-.383.152-.535.524-.535q1.038-.004 2.078.004c.332.004.484.168.492.504v.379c.004.242-.074.523.363.476.192-.02.309.18.317.383.007.375.011.754 0 1.129-.008.297-.184.441-.52.441l-3.988-.011c-.406-.004-.809-.012-1.215.003-.3.012-.5-.101-.602-.41a3.6 3.6 0 0 1-1.601.887 3.47 3.47 0 0 1-4.219-2.586c-.016-.066-.039-.133-.055-.195-.02-.309-.054-.614 0-.922.02-.117-.027-.149-.14-.149q-.78.013-1.559.008c-.254-.004-.129.18-.148.285-.02.118-.028.227.16.22.328-.016.656-.005.984-.005.465.004.567.098.617.563m-24.359 2.38c.07-.16.145-.317.215-.477-.188.086-.203.258-.262.41-.015.04-.066.082-.012.117.04.028.06-.011.06-.05m14.242-9.664v-.004c3.438 0 6.88-.004 10.317.004a.57.57 0 0 0 .468-.211c.961-1.078 1.938-2.145 2.895-3.227.191-.219.402-.332.684-.375.859-.125 1.71-.273 2.57-.398.152-.024.207-.067.207-.227-.008-1.562.008-3.125-.008-4.683-.008-.84-.547-1.477-1.355-1.7a3 3 0 0 0-.774-.082c-1.117 0-2.234.008-3.351-.004-.2 0-.313.067-.43.211-.926 1.137-1.856 2.266-2.785 3.399-.11.136-.219.246-.418.261-2.992.2-5.98.41-8.969.61q-4.196.279-8.39.547c-.18.011-.258.05-.294.254a498 498 0 0 1-.949 5.37c-.039.204-.02.259.203.259 3.461-.008 6.918-.004 10.38-.004m17.117-3.395c-.863.145-1.726.29-2.59.426a.4.4 0 0 0-.265.148c-.938 1.047-1.89 2.082-2.805 3.149-.312.36-.636.511-1.113.511-7.004-.011-14.008-.003-21.008-.011-.234 0-.265.074-.265.277.011.895.015 1.79 0 2.688-.004.242.085.27.293.27 3.113 0 6.222.007 9.335.007.215 0 .391.062.543.215.317.324.645.633.965.957.102.105.207.14.352.14 3.008-.007 6.012-.011 9.02.004.335 0 .488-.097.644-.394.68-1.293 1.746-2.078 3.226-2.153 1.508-.078 2.645.602 3.43 1.883.031.051.04.137.133.125.148-.363.234-7.129.105-8.242m-26.597-3.09c2.21-.136 4.383-.27 6.55-.414 3.56-.238 7.114-.488 10.669-.73a.41.41 0 0 0 .335-.172q.806-1.001 1.622-1.996c.289-.356.582-.707.91-1.106h-.305l-7.863-.011q-.113 0-.23.011c-2.903.36-5.805.73-8.716 1.07-1.25.145-2.14.743-2.648 1.895-.2.457-.242.95-.324 1.453m27.433-2.992c.079-.148.13-.238.172-.328.781-1.59 1.57-3.172 2.344-4.762 2.031-4.168 4.063-8.332 6.074-12.504.18-.37.367-.636.797-.675.078-.004.203.015.172-.153-.035-.172-.133-.117-.234-.094-1.446.332-2.891.66-4.332.993-.122.027-.301.02-.25.23.046.207.203.125.324.094.562-.133 1.125-.266 1.683-.41a.41.41 0 0 1 .438.133c.121.136.14.292.074.457q-.042.095-.086.183c-1.52 3.11-3.035 6.223-4.558 9.332-.997 2.04-2 4.074-2.997 6.113-.043.094-.136.176-.043.313.211.3.317.652.422 1.078m-4.273 13.508c-1.457-.012-2.633 1.176-2.649 2.672a2.594 2.594 0 0 0 2.567 2.617c1.469.012 2.648-1.168 2.652-2.656.004-1.47-1.12-2.621-2.57-2.633m-4.32-15.781v.004c1.316 0 2.636-.004 3.957.003.187 0 .242-.027.144-.214a23 23 0 0 1-.539-1.082c-.066-.141-.148-.192-.308-.192q-3.393 0-6.786-.015c-.156 0-.218.043-.254.195-.085.351-.175.707-.296 1.055-.07.207-.04.253.183.253 1.297-.011 2.598-.007 3.899-.007m-18.782 20.062h6.79c.046 0 .097-.004.144.004.113.008.156-.039.148-.152a1.4 1.4 0 0 1-.004-.29c.032-.206-.054-.25-.253-.25q-6.746.01-13.493.008c-.07 0-.136.004-.203 0-.129-.015-.172.04-.16.16a.8.8 0 0 1-.008.262c-.054.227.035.266.25.266 2.262-.008 4.524-.004 6.79-.008m-3.062-8.312h.375c.277-.004.625.093.816-.04.207-.144.145-.527.196-.804.285-1.582.562-3.164.847-4.742.031-.176.02-.235-.183-.215-.711.062-1.422.105-2.133.152-.133.008-.207.047-.23.192-.079.414-.153.832-.255 1.242-.046.187.032.18.165.176q.479-.011.953-.016c.433-.004.625.191.57.625-.09.695-.195 1.39-.3 2.086-.04.262-.208.402-.473.41-.262.008-.52.004-.782.008-.726.012-.726.012-.804.738v.027c-.036.125.007.168.14.165.363-.008.73-.004 1.098-.004m1.113 2.457h-.012c0-.465-.007-.926.004-1.387.008-.191-.047-.242-.242-.238-.73.015-1.46.023-2.191.015-.203 0-.235.07-.23.246q.012 1.371.007 2.743c-.004.18.055.23.227.23q1.127-.012 2.254 0c.148 0 .191-.043.187-.195-.012-.473-.004-.946-.004-1.414m2.606-12c-.692.086-1.391.054-2.047.293-.813.293-1.356.859-1.574 1.707-.09.363-.149.738-.227 1.101-.027.13-.023.192.144.176q1.082-.089 2.16-.152c.157-.008.208-.063.231-.22.078-.472.133-.952.305-1.405.219-.575.57-1.059 1.008-1.5m13.597 17.113v-.004h-1.558c-.887.004-1.77.008-2.657 0-.187-.004-.27.043-.234.234a.7.7 0 0 1 0 .204c-.039.242.035.32.3.316 2.696-.012 5.391-.008 8.083-.004.508 0 .492 0 .508-.492.007-.235-.086-.258-.282-.258-1.386.008-2.773.004-4.16.004M262.61 73.44c-.359.735-.687 1.41-1.027 2.079-.074.148.02.199.098.28a1.64 1.64 0 0 1-.516 2.665c-.133.058-.172.113-.172.25.012.441.016.883.004 1.328-.004.227.074.215.23.125.434-.258.692-.664.91-1.094.434-.851.653-1.77.747-2.715.09-.957.058-1.914-.274-2.918m6.579-13.468c1.601-.43 2.851-1.203 3.37-2.864-.07.016-.113.024-.156.032-.41.07-.812.254-1.242.054-.144-.07-.71.176-.765.29-.399.82-.797 1.64-1.207 2.488m-35.426 30.66c-.973 0-1.946.008-2.918-.008-.262-.004-.254.184-.258.32-.012.172.156.086.238.086q2.495.01 4.996.008c.317.004.637-.004.953.008.149.004.168-.04.149-.184-.031-.195-.113-.238-.3-.234-.954.012-1.907.004-2.86.004m14.558.355v-.004c.664 0 1.328-.011 1.993.004.214.008.222-.086.222-.25.004-.164-.004-.254-.219-.254q-1.976.013-3.953-.004c-.187 0-.25.043-.238.239.016.16-.008.285.23.277.657-.02 1.31-.008 1.965-.008m-.316-19.914c-.461.063-.875.125-1.297.172-.105.012-.144.07-.18.156q-.204.475-.422.95c-.05.113-.054.168.102.168q.621-.012 1.242 0c.117.003.168-.032.196-.153.109-.418.23-.832.359-1.293M233.063 89.77v-.004c.343 0 .69-.016 1.039.004.285.02.18-.18.183-.305.004-.133.082-.309-.195-.3-.613.019-1.23.003-1.844.007-.398 0-.387 0-.398.387-.004.195.07.218.234.214.324-.011.652-.003.98-.003m29.21 3.23v.004h2.106c.094 0 .215.047.21-.137-.003-.16-.109-.12-.198-.12q-2.116 0-4.239.003c-.078 0-.199-.055-.203.113-.004.188.13.133.219.133q1.052.005 2.105.004m-11.289-22.805v-.004h1.563c.086-.004.207.043.2-.12-.005-.141-.11-.106-.188-.106l-3.063-.012c-.086 0-.203-.047-.207.117 0 .192.137.121.223.125.492.004.984 0 1.472 0m10.012 13.907c.54-.211.633-.649.676-1.102.047-.484 0-.527-.473-.574-.164-.016-.21.027-.207.195.012.48.004.961.004 1.48m-21.215 5.066c.172.191.196.457.399.465.644.027 1.293.008 2.02.008-.266-.164-.348-.454-.602-.465-.582-.024-1.164-.008-1.817-.008m23.406 2.723v.004c.18 0 .364-.012.543 0 .168.015.176-.09.153-.196-.024-.11.11-.3-.125-.304-.383-.012-.766-.004-1.149-.004-.066 0-.097.02-.113.09-.07.304.008.41.317.41.125-.004.25 0 .375 0m9.551-35.895c-.008-.21-.078-.3-.273-.258-.293.063-.586.11-.88.16-.132.024-.284.036-.237.235.043.183.12.332.355.273.277-.07.559-.136.836-.207.121-.031.215-.09.2-.203M230.61 82.094c-.394 0-.777 0-1.16-.004-.234 0-.137.187-.164.297-.039.168.102.09.164.093.25 0 .504-.03.75-.003.297.03.45-.055.41-.383m-.468-1.012v.008h-.547c-.219 0-.14.183-.168.293-.04.152.086.113.164.113.305 0 .613-.027.918-.008.242.02.234-.125.246-.281.016-.23-.152-.105-.238-.121-.121-.02-.25-.004-.375-.004m27.738-8.598c.023-.011.226.145.21-.117-.01-.281-.218-.297-.425-.3-.117 0-.312-.008-.293.132.031.207.156.403.508.285m3.297 4c-.219.313-.235.45-.153 1.043.336-.277.395-.629.153-1.043m-1.86-3.77c.196.052.364.25.512.231.156-.027.188-.297.277-.46.004-.005-.003-.016-.015-.044-.262.059-.52.137-.774.274m1.145 19.09c-.004.04.031.11.164.09.07-.007.148-.007.117-.109-.027-.094-.02-.219-.176-.219-.128 0-.093.09-.105.239m-27.625 1.626c.016.136-.063.218.027.363.02-.14.055-.227-.027-.363m-.762.105c.024-.055-.008-.062-.031-.07-.004-.004-.031.027-.031.043 0 .02.015.043.023.066zm0 0"/>
        </g>
        <path fill="#fff" fill-rule="evenodd" d="M258.27 90.934a1.6 1.6 0 0 1-1.598 1.597 1.57 1.57 0 0 1-1.574-1.582c0-.883.718-1.61 1.582-1.613.894 0 1.59.7 1.59 1.598m-.856.007a.746.746 0 0 0-.707-.765.75.75 0 0 0-.758.742c-.008.422.29.746.703.754a.73.73 0 0 0 .762-.73m0 0"/>
        <g clip-path="url(#d)">
            <g fill="#fff" clip-path="url(#e)" transform="translate(0 114)">
                <path d="M16.77 44.897q-4.312 0-8.016-1.203-3.69-1.2-5.812-2.781l-.235-8.39.735-.11c.781 2.125 1.851 4.039 3.219 5.734a15.4 15.4 0 0 0 4.953 4.063q2.917 1.516 6.609 1.515c1.313 0 2.523-.27 3.64-.812a6.87 6.87 0 0 0 2.75-2.375q1.063-1.578 1.063-3.875-.002-2.074-1.187-3.61-1.173-1.545-3-2.687a26.6 26.6 0 0 0-3.828-2.016 160 160 0 0 0-3.688-1.547 92 92 0 0 1-5.266-2.453Q6.3 23.12 4.832 21.178 3.38 19.243 3.38 15.991q0-5.202 3.89-8.219 3.905-3.03 10.517-3.031 3.123.001 5.843.625 2.718.609 4.907 1.734l.218 7.282-.61.218q-1.75-4.312-5.077-6.61c-2.219-1.53-4.696-2.296-7.422-2.296q-3.362 0-5.688 1.875-2.313 1.876-2.312 5.188-.002 1.846.922 3.218.919 1.377 2.453 2.39a21.5 21.5 0 0 0 3.312 1.75q1.765.752 3.454 1.423a165 165 0 0 1 4.328 1.797 22.7 22.7 0 0 1 4.062 2.25q1.842 1.283 2.969 3.078 1.125 1.781 1.125 4.297c0 1.906-.399 3.609-1.188 5.109a11.2 11.2 0 0 1-3.14 3.75 14.7 14.7 0 0 1-4.36 2.297q-2.408.78-4.812.781m19.472-.562v-.782q1.407-.45 1.829-1.875.42-1.435.421-4.453V24.35q-.001-2.465-.593-3.25-.598-.795-1.657-1.234v-.781l7.391-3.25.563.437v20.953q0 3.018.421 4.453.422 1.425 1.829 1.875v.782Zm.954-34.22q0-1.62 1.125-2.733 1.124-1.125 2.687-1.125 1.686 0 2.75 1.125 1.062 1.112 1.063 2.734a3.75 3.75 0 0 1-1.094 2.703q-1.095 1.111-2.719 1.11-1.563.002-2.687-1.11c-.75-.75-1.125-1.648-1.125-2.703m30.638 34.219v-.782q1.39-.45.687-1.546-.689-1.09-2.375-3.61l-4.312-6.547-4.922 6.766c-.793 1.086-1.387 1.953-1.781 2.61q-.58.985-.11 1.484.48.504 2.391.843v.782h-7.39v-.782c.824-.3 1.695-.796 2.624-1.484q1.405-1.029 3.204-3.453l5.484-7.5-5.828-8.844q-1.674-2.514-2.938-3.64-1.264-1.124-2.218-1.516v-.781h9.812v.78q-1.406.458-.703 1.548.702 1.095 2.375 3.61l3.422 5.202 3.75-5.312q1.17-1.686 1.703-2.656.528-.985.078-1.547-.439-.563-2.406-.844v-.781h7.344v.78q-1.238.395-2.61 1.485-1.376 1.095-3.11 3.563l-4.25 6.094 6.673 10.14q1.67 2.52 2.953 3.61 1.296 1.096 2.187 1.546v.782Zm22.557.562c-1.906 0-3.355-.648-4.343-1.953-.993-1.312-1.485-3.477-1.485-6.5V17.225h-3.578v-.89l8.39-7.391h.907v7.39h8.672l-.219.891h-8.453v19.266q0 2.579.938 3.781c.632.805 1.57 1.203 2.812 1.203q.95 0 2.266-.531 1.312-.53 2.718-2.266l.563.563q-2.252 2.579-4.469 4.125-2.204 1.53-4.719 1.531m14.383 10.25q-1.734.046-2.906-.453c-.79-.336-1.188-.781-1.188-1.344 0-.375.164-.836.484-1.375.313-.543.79-1.039 1.422-1.484q.95-.674 2.25-.672c.813 0 1.914.102 3.313.313q2.107.31 4.297.703 1.013-1.125 2.015-2.72a31 31 0 0 0 1.907-3.5l-9.407-21.733q-1.172-2.794-2.297-4.047c-.75-.844-1.445-1.414-2.078-1.72v-.78h9.922v.78q-1.407.459-1.015 1.688.386 1.237 1.625 4.032l6.39 14.562 6.266-14.515q1.17-2.797 1-4.11-.157-1.312-1.61-1.656v-.781h6.375v.78q-1.236.459-2.437 1.688-1.207 1.237-2.438 4.032l-8.562 19.812q-2.128 4.875-4.203 7.594-2.063 2.716-4.313 3.781c-1.492.707-3.093 1.082-4.812 1.125m61.365-10.359-26.266-33.156v22.234c0 2.273.148 4.062.453 5.375q.451 1.957 1.406 2.906.951.956 2.406 1.406v.782h-7.515v-.782q1.405-.45 1.828-1.875.421-1.435.422-4.453V12.241q0-3.012-.563-4.438-.564-1.435-2.36-1.89v-.781h6.329l23.531 29.453V15.6q0-3.403-.453-5.36-.457-1.967-1.406-2.921c-.625-.633-1.43-1.102-2.407-1.406v-.781h7.563v.78c-.93.305-1.531.934-1.813 1.891q-.42 1.425-.421 4.438v32.547Zm22.903.109a13.7 13.7 0 0 1-4.688-.844 13.9 13.9 0 0 1-4.28-2.515q-1.958-1.686-3.141-4.203-1.173-2.515-1.172-5.938c0-2.383.414-4.531 1.25-6.437q1.264-2.86 3.39-4.875a15.4 15.4 0 0 1 4.735-3.078 14.1 14.1 0 0 1 5.359-1.063c2.531 0 4.656.508 6.375 1.516q2.579 1.5 3.89 3.797c.883 1.53 1.329 3.12 1.329 4.765h-21.235q-.047.457-.078.906-.033.44-.031.891 0 3.643 1.422 6.5 1.435 2.848 4.031 4.453 2.607 1.594 6.14 1.594 3.14.001 5.548-1.234a13.9 13.9 0 0 0 4.14-3.204l.5.563c-.855 1.312-1.918 2.617-3.187 3.906-1.274 1.281-2.766 2.356-4.485 3.219-1.718.851-3.656 1.281-5.812 1.281m-8.125-19.656h15.516q-.346-2.297-1.438-4.172-1.095-1.875-2.687-3a6 6 0 0 0-3.547-1.125q-2.362-.046-3.985 1.125-1.629 1.173-2.578 3.078a13.6 13.6 0 0 0-1.281 4.094m28.488-2.078q-.83-2.906-1.531-4.281-.703-1.373-1.657-1.766v-.781h9.578v.78q-1.406.457-1.265 1.798c.094.898.398 2.312.922 4.25l4.265 15.015 7.5-21.843h3.422l7.39 21.609 4.423-14.781c.562-1.938.707-3.367.437-4.297q-.392-1.406-1.844-1.75v-.781h6v.78q-1.236.395-2.015 1.767c-.524.917-1.063 2.343-1.625 4.28l-6.39 21.173h-2.86l-7.781-22.907-7.954 22.907h-2.843Zm50.619 21.734c-1.906 0-3.355-.648-4.343-1.953-.993-1.312-1.485-3.477-1.485-6.5V17.225h-3.578v-.89l8.39-7.391h.907v7.39h8.672l-.219.891h-8.453v19.266q0 2.579.937 3.781c.633.805 1.57 1.203 2.813 1.203q.95 0 2.266-.531 1.312-.53 2.718-2.266l.563.563q-2.252 2.579-4.469 4.125-2.204 1.53-4.719 1.531m29.055 0a18.5 18.5 0 0 1-5.407-.812 14.5 14.5 0 0 1-4.812-2.516q-2.158-1.717-3.453-4.312-1.283-2.608-1.281-6.188-.001-3.422 1.234-6.187 1.23-2.779 3.36-4.766a15.7 15.7 0 0 1 4.812-3.078 14.6 14.6 0 0 1 5.547-1.094q2.623.001 5.234.781a14.6 14.6 0 0 1 4.813 2.5c1.476 1.137 2.656 2.586 3.53 4.344q1.313 2.625 1.313 6.313-.001 3.596-1.375 6.39-1.36 2.8-3.578 4.703a16.3 16.3 0 0 1-4.844 2.922q-2.626.998-5.093 1m-9.344-18.031q-.001 2.456.719 5.375a23.4 23.4 0 0 0 2.156 5.516q1.419 2.613 3.547 4.265 2.138 1.64 4.875 1.64c1.832 0 3.281-.46 4.344-1.39q1.592-1.404 2.265-3.594a15.4 15.4 0 0 0 .672-4.53q-.001-2.687-.875-5.735a24 24 0 0 0-2.453-5.75q-1.594-2.687-3.844-4.281-2.238-1.594-4.922-1.313-2.408.222-3.843 1.656-1.423 1.423-2.032 3.578a16.7 16.7 0 0 0-.61 4.563m31.057 17.469v-.782q1.407-.45 1.828-1.875.423-1.435.422-4.453V24.35q-.001-2.465-.593-3.25-.597-.795-1.657-1.234v-.781l7.391-3.25.562.437v4.703q2.297-1.888 5.266-3.453 2.966-1.576 6.219-1.578 3.855 0 6.234 2.156 2.39 2.157 2.39 7.078v12.047q0 3.018.423 4.453.42 1.425 1.812 1.875v.782h-10.187v-.782q1.404-.45 1.812-1.875.422-1.435.422-4.453V26.194q0-3.81-1.594-5.906-1.593-2.11-4.734-2.11-1.956.002-3.86.954c-1.273.636-2.671 1.57-4.203 2.796v15.297q0 3.018.422 4.453.423 1.425 1.828 1.875v.782Zm0 0"/>
            </g>
        </g>
        <path fill="#b48e2e" d="M40.466 192.969q.731-.03.938-.406.217-.387.218-1.172v-.531l.032-8.688-1.766.016q-1.065.002-1.516.718-.454.705-.453 2.25h-.64l.109-3.609h9.984l.094 3.61h-.64c-.024-.72-.102-1.29-.235-1.72q-.188-.637-.656-.952-.47-.33-1.344-.329h-1.453l-.016 9.344q0 .91-.046 1.344l1.421-.063v.75h-4.03Zm13.393 0q.608-.013.86-.266a.98.98 0 0 0 .296-.609q.03-.356.031-1.234v-7.391q0-.717.047-1.234l-1.234.062v-.75h8.234l.094 3h-.563q0-1.406-.609-1.922c-.406-.344-.977-.504-1.703-.484l-1.469.031q-.626.018-.906.234-.269.223-.344.61-.063.376-.062 1.203v2.734l3.218.016-.109-1.469h.75v3.594h-.563q-.002-.623-.156-.953a.8.8 0 0 0-.484-.453c-.211-.07-.5-.11-.875-.11l-.531.016-1.25.047v3.922a14 14 0 0 1-.047 1.328l3.265-.047q1.201-.012 1.828-.61.64-.593.641-2.046h.578l-.094 3.343H53.86Zm21.381.844q-1.676 0-3-.797a5.67 5.67 0 0 1-2.078-2.203q-.75-1.389-.75-3.094-.001-1.67.672-3.14a5.87 5.87 0 0 1 2.03-2.391q1.341-.922 3.25-.922 1.874.002 3.454 1.047l-.078-.922h.922v3.969h-.625q-.176-1.594-1.125-2.485c-.625-.601-1.438-.906-2.438-.906q-1.206 0-2.218.687-1.003.675-1.579 1.922-.579 1.252-.578 2.891 0 1.581.61 2.828.623 1.235 1.656 1.938 1.044.689 2.328.687 1.137 0 2.203-.516a4.7 4.7 0 0 0 1.75-1.453l.438.36q-.986 1.376-2.282 1.937-1.283.563-2.562.563m11.356-.844q.608-.013.86-.266a.98.98 0 0 0 .296-.609q.031-.356.032-1.234v-7.391q0-.717.046-1.234l-1.234.062v-.75h3.86v.563q-.597.017-.86.28a1.02 1.02 0 0 0-.297.61q-.033.346-.031 1.219v2.844h6.14v-3.594q0-.717.047-1.234l-1.234.062v-.75h3.86v.563q-.611.017-.876.28a.95.95 0 0 0-.28.61q-.034.346-.032 1.219v7.281q0 .91-.047 1.344l1.234-.063v.75h-3.859v-.562q.592-.013.844-.266a.98.98 0 0 0 .297-.609q.046-.356.047-1.234v-3.11l-6.141.063v3.687q0 .91-.047 1.344l1.234-.063v.75h-3.859Zm20.353-9.141h-.016l.047 7.328q-.001 1.143-.031 1.688l1.234-.063v.75h-3.14v-.562q.684 0 .906-.39.234-.406.234-.97l.016-9.374-1.156.062v-.75h2.046l7.297 9.766h.016l.016-7.844q0-.717.046-1.234l-1.234.062v-.75h3.156v.563c-.343.011-.601.078-.765.203a.74.74 0 0 0-.313.484q-.063.315-.062.813v.609l-.047 9.594h-.813Zm16.169 9.141q.61-.013.86-.266a.98.98 0 0 0 .297-.609q.03-.356.03-1.234v-7.391q0-.717.048-1.234l-1.235.062v-.75h3.86v.563q-.597.017-.86.28a1.02 1.02 0 0 0-.297.61c-.023.23-.03.637-.03 1.219v7.281q0 .91-.048 1.344l1.235-.063v.75h-3.86Zm16.466.844q-1.675 0-3-.797a5.67 5.67 0 0 1-2.078-2.203q-.75-1.389-.75-3.094 0-1.67.672-3.14a5.87 5.87 0 0 1 2.031-2.391q1.341-.922 3.25-.922 1.873.002 3.453 1.047l-.078-.922h.922v3.969h-.625q-.175-1.594-1.125-2.485c-.625-.601-1.437-.906-2.437-.906q-1.206 0-2.22.687-1.002.675-1.577 1.922-.58 1.252-.578 2.891 0 1.581.609 2.828c.414.824.969 1.469 1.656 1.938q1.044.689 2.328.687 1.137 0 2.203-.516a4.7 4.7 0 0 0 1.75-1.453l.438.36q-.985 1.376-2.281 1.937-1.285.563-2.563.563m10.309-.844q.435 0 .688-.188.263-.198.422-.515a8 8 0 0 0 .39-.953l.172-.485 3.532-9.609h.406l3.812 9.75a8 8 0 0 1 .328 1q.139.534.125.875l1.157-.063v.75h-3.922v-.562q1.014-.013 1.015-.828 0-.329-.171-.797l-.594-1.61-4.453.094q-.27.706-.61 1.844-.176.563-.422 1.172l1.329-.063v.75h-3.204Zm7.11-3.875-1.219-3.266-.766-2.109h-.03l-.72 1.937-.921 2.594-.297.844Zm9.715 3.875q.608-.013.86-.266a.98.98 0 0 0 .296-.609q.031-.356.032-1.234v-7.391q0-.717.046-1.234l-1.234.062v-.75h3.86v.563q-.597.017-.86.28a1.02 1.02 0 0 0-.297.61q-.033.346-.031 1.219v7.344a14 14 0 0 1-.047 1.328l3.203-.047q1.09-.013 1.64-.688.547-.685.548-2.171h.578l-.094 3.546h-8.5Zm28.532.844a5.8 5.8 0 0 1-1.625-.235 4.5 4.5 0 0 1-1.422-.64l.078.734h-.89l-.094-3.656h.656q.093 1.486 1.016 2.281.92.797 2.344.797c.695 0 1.281-.191 1.75-.578q.716-.576.718-1.563 0-.75-.406-1.265a3.6 3.6 0 0 0-1-.86 16 16 0 0 0-1.594-.828 23 23 0 0 1-1.828-.953 4.1 4.1 0 0 1-1.156-1.094q-.469-.669-.469-1.672-.002-.685.313-1.359.31-.686 1.094-1.172.78-.482 2.062-.484.78.002 1.547.203a4 4 0 0 1 1.437.672l-.062-.735h.86v3.766h-.61q-.081-1.342-.86-2.281-.783-.938-2.187-.938c-.687 0-1.226.196-1.61.578a1.93 1.93 0 0 0-.577 1.422q0 .69.39 1.188.389.502.953.828.563.316 1.594.797 1.172.534 1.875.969.716.42 1.203 1.125.499.69.5 1.687 0 .972-.469 1.703-.47.736-1.375 1.156-.908.406-2.156.407m10.752-.844q.608-.013.86-.266a.98.98 0 0 0 .296-.609q.03-.356.031-1.234v-7.391q0-.717.047-1.234l-1.234.062v-.75h8.234l.094 3h-.562q0-1.406-.61-1.922-.61-.515-1.703-.484l-1.469.031q-.625.018-.906.234-.269.223-.344.61-.063.376-.062 1.203v2.734l3.219.016-.11-1.469h.75v3.594h-.562q-.002-.623-.157-.953a.8.8 0 0 0-.484-.453c-.21-.07-.5-.11-.875-.11l-.531.016-1.25.047v3.922a14 14 0 0 1-.047 1.328l3.266-.047q1.2-.012 1.828-.61.639-.593.64-2.046h.578l-.093 3.343h-8.844Zm15.709 0q.609-.013.86-.266a.98.98 0 0 0 .296-.609q.031-.356.032-1.234v-7.391q0-.717.047-1.234l-1.235.062v-.75q1.78-.03 2.688-.031c.55 0 .96.008 1.234.015q2.42.035 3.531.813 1.125.785 1.125 2.25.012 1.189-.703 2.125-.719.939-2.5 1.297.296.221.531.531.247.315.657.953l1.172 1.844q.375.595.609.922.247.316.594.515.357.188.875.188v.562h-2.157a5.4 5.4 0 0 1-.78-.812 16 16 0 0 1-.735-1.094l-1.156-1.828-.22-.36a12 12 0 0 0-.484-.75 3.4 3.4 0 0 0-.437-.515 5 5 0 0 1-.484.016q-.456.001-.688-.016v3.328q0 .91-.047 1.344l1.235-.063v.75h-3.86Zm3.422-5.438c2.332 0 3.5-.914 3.5-2.75q0-1.295-.75-1.953-.752-.656-2.312-.656c-.399 0-.684.086-.86.25a.95.95 0 0 0-.297.578c-.023.23-.03.637-.03 1.219v3.281c.343.024.593.031.75.031m13.076-2.937c-.406-.969-.652-1.742-.734-2.328l-.953.031v-.75h3.969v.563l-.016.015q-.563.035-.828.25c-.18.149-.265.356-.265.625q0 .394.234.969l.437 1.11q.171.421.516 1.296.356.879.672 1.594l.453 1.047q.656 1.518.938 2.25h.03l.641-1.828.22-.61 1.5-4.234.405-1.094q.31-.92.485-1.265l-1.313.062v-.75h3.47v.563q-.752.034-1.157.39-.392.362-.719 1.281l-3.61 9.922h-.484Zm15.553 8.375q.61-.013.86-.266a.98.98 0 0 0 .297-.609q.03-.356.03-1.234v-7.391q0-.717.048-1.234l-1.235.062v-.75h3.86v.563q-.597.017-.86.28a1.02 1.02 0 0 0-.296.61c-.024.23-.032.637-.032 1.219v7.281q0 .91-.047 1.344l1.235-.063v.75h-3.86Zm16.467.844q-1.677 0-3-.797a5.67 5.67 0 0 1-2.079-2.203q-.75-1.389-.75-3.094 0-1.67.672-3.14a5.87 5.87 0 0 1 2.031-2.391q1.341-.922 3.25-.922 1.874.002 3.453 1.047l-.078-.922h.922v3.969h-.625q-.176-1.594-1.125-2.485c-.625-.601-1.437-.906-2.437-.906q-1.206 0-2.22.687-1.002.675-1.577 1.922-.58 1.252-.578 2.891 0 1.581.609 2.828c.414.824.969 1.469 1.656 1.938q1.045.689 2.328.687 1.137 0 2.204-.516a4.7 4.7 0 0 0 1.75-1.453l.437.36q-.985 1.376-2.281 1.937-1.284.563-2.563.563m11.356-.844q.61-.013.86-.266a.98.98 0 0 0 .297-.609q.03-.356.03-1.234v-7.391q0-.717.048-1.234l-1.235.062v-.75h8.235l.094 3h-.563q0-1.406-.61-1.922-.611-.515-1.702-.484l-1.47.031q-.625.018-.905.234-.269.223-.344.61-.064.376-.063 1.203v2.734l3.219.016-.11-1.469h.75v3.594h-.562c0-.414-.055-.734-.156-.953a.8.8 0 0 0-.484-.453c-.211-.07-.5-.11-.875-.11l-.532.016-1.25.047v3.922c0 .593-.015 1.039-.047 1.328l3.266-.047q1.2-.012 1.828-.61.64-.593.64-2.046h.579l-.094 3.343h-8.844Zm19.725.844a5.8 5.8 0 0 1-1.625-.235 4.5 4.5 0 0 1-1.422-.64l.079.734h-.891l-.094-3.656h.656q.093 1.486 1.016 2.281.92.797 2.344.797c.695 0 1.281-.191 1.75-.578.476-.383.719-.906.719-1.563q-.001-.75-.407-1.265a3.6 3.6 0 0 0-1-.86 16 16 0 0 0-1.593-.828 23 23 0 0 1-1.829-.953 4.1 4.1 0 0 1-1.156-1.094q-.469-.669-.469-1.672-.002-.685.313-1.359.31-.686 1.094-1.172.78-.482 2.062-.484.78.002 1.547.203c.52.125 1 .352 1.438.672l-.063-.735h.86v3.766h-.61q-.081-1.342-.86-2.281-.783-.938-2.187-.938c-.687 0-1.226.196-1.61.578a1.93 1.93 0 0 0-.577 1.422q0 .69.39 1.188.389.502.953.828.563.316 1.594.797 1.171.534 1.875.969.717.42 1.203 1.125.499.69.5 1.687 0 .972-.468 1.703c-.313.492-.774.875-1.375 1.156q-.909.406-2.157.407m0 0"/>
    </g>
</svg>
